{"glyphs":{"0":{"ha":628,"x_min":49,"x_max":579,"o":"m 82 817 q 118 856 94 833 q 170 903 142 879 q 231 947 199 926 q 296 979 264 968 q 384 972 349 979 q 456 936 419 964 q 531 840 500 904 q 572 672 563 776 q 578 589 576 629 q 579 510 579 549 q 574 367 579 432 q 564 253 569 301 q 550 151 558 197 q 513 113 535 135 q 468 69 492 90 q 422 28 444 47 q 386 0 400 10 q 340 -14 361 -11 q 292 -17 319 -17 q 196 8 236 -17 q 128 71 156 32 q 85 160 101 110 q 61 262 69 210 q 51 363 53 314 q 49 449 49 411 q 58 651 49 551 q 82 817 67 751 m 244 800 q 231 683 236 750 q 225 542 225 617 q 231 406 225 474 q 253 283 238 338 q 294 195 268 229 q 363 161 321 161 q 386 165 378 161 q 400 285 393 211 q 407 481 407 360 q 399 599 407 542 q 375 702 392 657 q 330 774 358 747 q 260 801 301 801 q 253 801 257 801 q 244 800 249 801 z "},"1":{"ha":319,"x_min":69,"x_max":250,"o":"m 250 979 q 247 832 249 908 q 246 683 246 765 q 246 514 246 600 q 246 326 246 418 q 247 161 246 235 q 250 0 249 75 l 69 0 q 71 161 69 75 q 73 326 72 235 q 74 514 74 418 q 73 678 74 597 q 71 824 72 760 q 69 965 69 899 l 250 979 z "},"2":{"ha":489,"x_min":21,"x_max":447,"o":"m 21 800 q 54 846 39 824 q 83 885 68 865 q 108 919 97 906 q 158 962 129 944 q 233 979 186 979 q 283 974 258 979 q 329 957 307 969 q 369 921 351 944 q 399 860 388 897 q 422 731 418 796 q 426 600 426 665 q 417 451 426 521 q 392 322 407 382 q 358 281 379 304 q 313 233 338 258 q 263 184 289 208 q 214 139 238 160 l 254 139 q 292 140 272 139 q 332 142 313 140 q 374 148 354 143 q 411 158 394 153 q 447 172 429 164 l 418 0 l 33 0 l 43 133 q 106 153 74 139 q 168 195 139 168 q 218 263 197 222 q 246 363 239 304 q 254 517 254 447 q 251 599 254 561 q 246 672 249 638 q 231 744 242 715 q 203 789 219 772 q 167 813 186 806 q 126 819 147 819 q 74 810 94 819 q 38 785 54 801 q 21 800 22 788 z "},"3":{"ha":464,"x_min":28,"x_max":422,"o":"m 49 810 q 86 858 68 835 q 117 897 101 878 q 139 925 132 915 q 191 967 163 956 q 258 979 219 979 q 303 974 278 979 q 353 949 329 968 q 393 895 376 931 q 410 800 410 860 q 397 727 410 758 q 366 672 385 696 q 327 631 347 647 q 292 603 307 614 q 363 565 328 593 q 410 488 397 536 q 419 427 417 460 q 422 358 422 394 q 415 240 422 297 q 399 150 408 183 q 361 113 382 133 q 318 74 340 93 q 274 36 296 54 q 233 4 251 18 q 193 -12 218 -7 q 142 -17 168 -17 q 81 -8 110 -17 q 36 17 51 0 l 53 163 q 182 122 110 122 q 222 126 201 122 q 256 138 242 131 q 262 192 260 158 q 264 260 264 226 q 258 332 264 297 q 238 392 253 367 q 198 434 224 418 q 131 450 172 450 q 87 446 110 450 q 40 431 64 442 q 28 447 28 433 q 72 503 50 476 q 110 550 92 526 q 144 589 129 574 q 167 599 154 596 q 192 606 181 603 q 219 610 206 608 q 231 652 225 625 q 238 719 238 679 q 210 799 238 772 q 143 826 182 826 q 94 815 111 826 q 65 793 76 804 q 49 810 49 793 z "},"4":{"ha":513,"x_min":4,"x_max":526,"o":"m 4 447 q 42 524 22 483 q 79 602 58 558 q 121 692 100 646 q 166 792 144 743 q 204 879 188 840 q 240 965 224 925 l 407 972 q 406 804 406 890 q 404 640 404 729 q 404 465 404 551 q 448 465 426 465 q 488 467 469 465 q 526 468 508 467 l 474 311 l 453 311 q 431 312 443 311 q 404 313 418 313 q 404 196 404 251 q 406 96 404 140 q 407 0 406 44 l 226 0 q 228 96 226 44 q 228 196 228 140 q 229 313 229 251 q 140 312 181 313 q 68 311 99 311 l 4 311 l 4 447 m 89 467 q 126 465 104 465 l 229 465 l 229 506 q 230 547 229 524 q 231 597 231 571 q 230 660 231 629 q 229 715 229 690 l 229 772 l 89 467 z "},"5":{"ha":485,"x_min":53,"x_max":457,"o":"m 349 824 q 286 825 321 824 q 219 826 257 825 q 140 826 181 826 q 139 806 139 818 l 139 743 l 139 678 q 140 654 139 664 q 163 664 149 658 q 190 670 174 667 q 226 674 206 674 q 335 652 290 674 q 406 592 379 631 q 445 499 433 553 q 457 382 457 446 q 444 249 457 311 q 418 146 432 186 q 385 110 406 131 q 341 68 364 89 q 296 29 318 47 q 260 1 274 11 q 220 -11 249 -6 q 164 -17 192 -17 q 106 -9 135 -17 q 57 17 76 -1 l 75 168 q 135 135 103 149 q 208 122 167 122 q 249 127 232 122 q 285 139 265 132 q 296 213 293 171 q 299 292 299 254 q 263 441 299 386 q 147 496 228 496 q 99 490 124 496 q 53 471 74 483 q 54 557 53 511 q 55 644 54 596 q 56 743 56 692 q 55 828 56 786 q 54 901 54 869 q 53 972 53 939 l 422 972 l 349 824 z "},"6":{"ha":568,"x_min":49,"x_max":533,"o":"m 410 803 q 361 826 390 817 q 300 836 332 836 q 274 834 289 836 q 250 828 260 832 q 223 697 229 765 q 214 568 217 628 q 259 604 238 588 q 313 644 281 621 q 340 660 326 654 q 374 665 354 665 q 436 650 403 665 q 506 567 479 629 q 533 406 533 506 q 521 237 533 310 q 486 118 508 164 q 453 87 474 106 q 410 49 433 68 q 365 14 388 31 q 329 -11 343 -3 q 288 -17 319 -17 q 224 -10 260 -17 q 164 15 189 -3 q 107 73 129 40 q 72 152 85 106 q 53 263 58 199 q 49 415 49 326 q 52 531 49 472 q 63 646 56 590 q 79 749 69 701 q 101 833 89 797 q 185 910 135 869 q 300 975 236 950 q 353 979 322 979 q 414 971 385 979 q 469 943 443 963 l 410 803 m 213 494 q 216 359 213 418 q 231 256 219 300 q 338 147 256 147 q 356 150 347 147 q 363 192 358 168 q 367 240 365 211 q 369 303 369 268 q 365 373 369 336 q 349 441 361 410 q 317 492 338 472 q 263 513 296 513 q 237 508 250 513 q 213 494 224 504 z "},"7":{"ha":440,"x_min":7,"x_max":433,"o":"m 433 972 q 403 842 418 913 q 372 700 389 781 q 340 528 356 619 q 310 344 325 438 q 283 174 294 250 q 257 0 269 83 l 110 -7 q 139 143 124 65 q 167 292 151 210 q 199 458 183 375 q 222 595 211 531 q 240 710 232 660 q 257 818 249 767 q 232 820 247 819 q 204 821 217 821 q 91 813 135 821 q 7 786 47 804 l 67 972 l 433 972 z "},"8":{"ha":575,"x_min":50,"x_max":533,"o":"m 79 831 q 147 892 107 858 q 219 949 186 925 q 259 967 229 956 q 340 979 289 979 q 476 934 429 979 q 524 801 524 889 q 517 731 524 765 q 504 669 511 696 q 458 625 482 644 q 413 592 435 606 q 501 497 469 564 q 533 338 533 431 q 530 254 533 290 q 522 192 526 218 q 513 139 517 161 l 343 -12 q 326 -15 338 -14 q 301 -17 317 -17 q 260 -17 285 -17 q 207 -10 235 -17 q 153 13 179 -3 q 104 52 126 28 q 69 113 82 76 q 54 178 58 142 q 50 251 50 214 q 53 329 50 292 q 61 392 57 367 q 108 443 82 421 q 158 483 135 465 q 102 524 131 497 q 64 593 74 551 q 56 669 56 628 q 64 766 56 721 q 79 831 72 811 m 218 844 q 211 812 214 832 q 208 769 208 792 q 238 667 208 703 q 339 618 268 631 q 344 649 342 632 q 349 683 347 664 q 351 724 351 701 q 327 814 351 778 q 251 850 303 850 q 218 844 233 850 m 238 458 q 235 404 236 432 q 233 351 233 381 q 232 294 232 322 q 235 238 232 265 q 249 188 239 210 q 276 151 258 165 q 322 138 294 138 q 350 143 340 138 q 356 188 353 163 q 360 242 358 210 q 361 317 361 274 q 348 380 361 354 q 316 422 335 406 q 276 447 297 439 q 238 458 254 456 z "},"9":{"ha":574,"x_min":42,"x_max":532,"o":"m 92 850 q 128 881 106 863 q 174 918 150 900 q 220 951 197 936 q 258 975 243 967 q 274 978 265 978 q 292 979 283 979 q 405 953 358 979 q 479 872 451 928 q 519 727 507 815 q 532 514 532 639 q 525 370 532 435 q 510 258 518 306 q 489 160 500 203 q 453 119 478 143 q 400 72 428 96 q 345 28 372 49 q 301 -3 318 7 q 264 -13 286 -10 q 219 -17 242 -17 q 150 -8 181 -17 q 103 13 119 1 l 101 174 q 172 138 133 153 q 263 124 210 124 q 303 128 283 124 q 339 139 324 132 q 351 217 346 174 q 358 299 356 260 q 363 390 361 344 q 324 360 343 375 q 287 331 307 346 q 250 306 267 317 q 224 300 236 301 q 196 299 213 299 q 83 365 125 299 q 42 554 42 431 q 49 685 42 629 q 67 778 57 742 q 92 850 78 821 m 218 818 q 210 756 215 800 q 206 663 206 713 q 208 594 206 631 q 223 525 211 557 q 257 472 235 493 q 318 451 279 451 q 363 464 346 451 q 364 497 364 478 q 364 531 364 515 q 358 638 364 586 q 337 731 351 690 q 297 796 322 771 q 236 821 272 821 q 218 818 224 821 z "},"\u0000":{"ha":0,"x_min":0,"x_max":0,"o":""},"\r":{"ha":694,"x_min":0,"x_max":0,"o":""}," ":{"ha":313,"x_min":0,"x_max":0,"o":""},"#":{"ha":1100,"x_min":69,"x_max":1031,"o":"m 878 979 q 857 890 868 939 q 834 792 847 849 q 807 672 821 736 q 901 673 860 672 q 971 674 942 674 q 1031 675 1006 674 l 994 531 l 938 531 q 869 531 910 531 q 778 532 829 532 l 758 439 q 851 440 810 439 q 921 440 892 440 q 981 442 956 440 l 944 297 l 888 297 q 820 298 860 297 q 729 299 781 299 q 705 181 715 235 q 686 86 694 126 q 669 0 676 39 l 501 -7 q 522 82 511 33 q 544 178 532 124 q 571 300 556 233 l 451 300 q 427 181 438 235 q 408 86 417 126 q 392 0 399 39 l 224 -7 q 244 81 233 32 q 266 177 254 121 q 293 299 278 233 q 199 298 240 299 q 129 297 158 297 l 69 297 l 106 442 q 163 440 129 440 q 231 440 190 440 q 324 439 271 439 l 343 532 q 249 531 290 532 q 179 531 208 531 l 119 531 l 156 675 q 213 674 179 674 q 280 673 240 674 q 371 672 319 672 q 394 790 383 735 q 414 885 406 844 q 432 972 424 932 l 600 979 q 579 890 590 939 q 556 792 569 849 q 529 672 543 736 l 649 672 q 672 790 661 735 q 692 885 683 844 q 710 972 701 932 l 878 979 m 481 439 l 601 439 l 621 533 l 500 533 l 481 439 z "},"$":{"ha":474,"x_min":24,"x_max":443,"o":"m 207 953 q 206 989 206 972 q 206 1017 206 1006 l 206 1042 l 283 1063 q 282 1039 282 1053 l 282 976 q 334 962 307 974 q 383 928 361 950 q 421 874 406 907 q 439 793 436 840 l 274 711 q 264 757 272 736 q 242 790 257 775 q 204 808 228 806 q 189 756 194 785 q 183 699 183 726 q 199 633 183 657 q 238 592 214 608 q 290 564 261 576 q 346 533 318 551 q 420 453 397 500 q 443 333 443 406 q 438 249 443 288 q 425 183 432 211 q 407 124 417 150 l 282 11 l 282 -47 q 283 -69 282 -60 l 206 -90 l 206 -69 q 206 -47 206 -60 q 207 -17 206 -33 q 143 -8 175 -17 q 84 23 111 0 q 40 85 57 46 q 24 186 24 124 l 196 254 q 204 201 197 226 q 224 161 211 181 q 263 136 238 142 q 279 192 274 161 q 285 250 285 224 q 281 299 285 276 q 266 341 278 321 q 230 380 254 361 q 164 419 206 399 q 60 508 94 454 q 25 651 25 563 q 42 766 25 713 q 85 864 58 819 l 207 953 z "},"%":{"ha":999,"x_min":54,"x_max":944,"o":"m 792 1049 q 722 889 758 975 q 651 720 690 815 q 567 521 611 625 q 480 311 522 417 q 404 121 438 206 q 329 -69 365 22 l 218 -76 q 247 -16 224 -68 q 304 115 271 36 q 378 292 338 193 q 462 492 419 390 q 544 690 504 593 q 614 865 583 788 q 663 990 644 942 q 683 1042 682 1038 l 792 1049 m 597 225 q 600 291 597 260 q 606 346 603 322 q 614 399 610 374 q 631 413 619 406 q 654 428 640 419 q 689 450 668 438 q 746 481 728 472 l 763 489 l 769 489 q 804 487 783 489 q 847 477 825 485 q 890 454 869 469 q 924 413 911 439 q 941 340 938 385 q 944 251 944 296 q 941 152 944 196 q 935 103 938 108 q 924 90 932 99 q 903 72 915 82 q 879 53 892 63 q 858 39 867 44 q 817 11 840 26 q 778 -7 793 -4 l 769 -7 q 733 -5 754 -7 q 692 6 713 -3 q 651 31 671 14 q 619 75 632 47 q 603 142 608 99 q 597 225 597 185 m 731 371 q 725 342 728 358 q 721 249 721 313 q 723 197 721 222 q 732 151 725 171 q 753 118 739 131 q 790 106 767 106 q 810 108 801 106 q 815 124 813 111 q 819 156 818 138 q 822 195 821 174 q 822 238 822 217 q 821 284 822 260 q 813 328 819 308 q 791 360 806 347 q 750 374 776 374 q 731 371 739 374 m 54 715 q 57 781 54 750 q 63 836 60 813 q 71 889 67 864 q 88 903 76 896 q 111 919 97 910 q 146 940 125 928 q 203 971 185 963 l 219 979 l 226 979 q 261 977 240 979 q 304 967 282 975 q 347 944 326 960 q 381 903 368 929 q 398 831 394 875 q 401 742 401 786 q 398 642 401 686 q 392 593 394 599 q 381 581 389 589 q 360 563 372 572 q 336 544 349 553 q 315 529 324 535 q 274 501 297 517 q 235 483 250 486 l 226 483 q 190 485 211 483 q 149 496 169 488 q 108 521 128 504 q 76 565 89 538 q 60 632 65 589 q 54 715 54 675 m 188 861 q 182 832 185 849 q 178 739 178 803 q 180 687 178 713 q 189 641 182 661 q 210 608 196 621 q 247 596 224 596 q 267 599 258 596 q 272 615 269 601 q 276 646 275 628 q 278 685 278 664 q 279 728 279 707 q 278 774 279 750 q 269 818 276 799 q 248 851 263 838 q 207 864 233 864 q 188 861 196 864 z "},"&":{"ha":565,"x_min":35,"x_max":558,"o":"m 313 749 q 278 819 303 793 q 218 844 254 844 q 206 808 211 831 q 201 763 201 786 q 208 715 201 738 q 231 679 215 693 q 306 648 258 654 q 403 642 354 642 l 460 642 l 401 494 l 286 494 q 253 481 271 492 q 224 442 235 469 q 212 392 217 422 q 207 324 207 363 q 211 258 207 290 q 227 200 215 225 q 260 159 239 175 q 317 143 282 143 q 328 143 322 143 q 340 146 333 143 l 344 163 q 347 183 346 171 q 349 210 349 194 q 289 290 349 276 l 215 290 l 290 401 l 558 401 l 494 304 q 513 225 513 267 q 505 174 513 199 q 483 126 497 149 q 300 -12 404 40 q 280 -16 289 -15 q 257 -17 271 -17 q 163 2 204 -17 q 94 55 122 21 q 50 136 65 89 q 35 239 35 183 q 40 340 35 296 q 56 417 46 383 q 103 469 78 446 q 153 508 129 493 q 119 522 138 513 q 85 551 101 532 q 59 599 69 569 q 49 672 49 628 q 58 778 49 725 q 85 865 68 831 q 176 931 128 901 q 268 975 224 960 q 319 979 293 979 q 428 951 382 979 q 501 842 475 922 l 313 749 z "},"'":{"ha":238,"x_min":56,"x_max":182,"o":"m 56 743 q 57 769 56 754 q 58 805 57 783 q 58 858 58 826 q 58 913 58 890 q 57 950 57 935 q 56 979 56 967 l 182 893 q 181 865 181 882 q 179 828 179 850 q 179 775 179 807 q 179 722 179 743 q 181 685 179 700 q 182 657 181 668 l 56 743 z "},"(":{"ha":419,"x_min":56,"x_max":413,"o":"m 413 -139 q 306 -119 361 -137 q 202 -66 250 -101 q 118 22 154 -31 q 69 143 82 74 q 59 236 63 186 q 56 342 56 286 q 63 538 56 438 q 79 722 69 639 q 104 910 90 819 q 139 964 118 936 q 183 1017 160 992 q 230 1065 206 1043 q 274 1099 254 1086 q 289 1104 281 1101 q 308 1109 296 1107 q 335 1111 319 1111 q 362 1108 350 1111 q 382 1101 374 1104 q 399 1093 392 1097 l 356 913 q 315 934 336 929 q 283 939 294 939 q 277 938 279 939 q 272 938 275 938 l 269 938 q 259 833 264 901 q 250 681 254 764 q 243 510 246 599 q 240 344 240 421 q 248 194 240 265 q 276 61 256 122 q 329 -51 296 0 q 413 -139 363 -101 z "},")":{"ha":421,"x_min":8,"x_max":365,"o":"m 8 1111 q 115 1092 60 1110 q 219 1038 171 1074 q 303 951 267 1003 q 351 829 339 899 q 362 736 358 786 q 365 631 365 686 q 358 433 365 533 q 340 250 350 333 q 317 63 329 153 q 282 8 303 36 q 238 -45 261 -19 q 191 -92 215 -71 q 147 -126 167 -114 q 132 -133 140 -131 q 113 -137 125 -136 q 86 -139 101 -139 q 59 -136 71 -139 q 39 -131 47 -133 q 22 -121 29 -126 l 65 60 q 106 38 85 43 q 138 33 126 33 l 149 33 q 151 35 151 33 q 162 140 157 71 q 171 291 167 208 q 178 462 175 374 q 181 628 181 550 q 173 778 181 707 q 145 911 165 850 q 92 1023 125 972 q 8 1111 58 1074 z "},"*":{"ha":403,"x_min":14,"x_max":368,"o":"m 263 986 q 261 965 261 978 q 260 940 260 954 q 260 910 260 926 q 298 922 281 917 q 329 933 315 928 q 358 944 344 939 l 368 826 q 349 821 360 825 q 325 813 339 818 q 293 803 311 808 q 318 769 307 785 q 339 743 329 754 q 358 719 349 729 l 249 674 q 236 692 242 682 q 222 712 229 700 q 204 739 215 724 q 161 676 178 699 q 144 651 151 663 l 67 742 q 81 758 74 749 q 96 778 88 767 q 115 804 104 789 q 75 816 93 811 q 43 825 57 821 q 14 833 28 831 l 76 936 q 96 929 85 933 q 118 921 106 926 q 149 910 131 915 q 147 950 147 932 q 147 983 147 968 q 146 1014 147 999 l 263 986 l 263 986 z "},"+":{"ha":568,"x_min":35,"x_max":533,"o":"m 85 508 q 117 507 99 507 q 156 506 132 506 q 211 506 179 506 q 210 567 211 538 q 208 619 210 596 q 207 672 207 646 l 360 672 q 357 619 358 646 q 356 567 356 596 q 356 506 356 538 q 428 506 396 506 q 485 507 461 506 q 533 508 511 507 l 483 364 q 451 365 469 365 q 412 365 436 365 q 356 367 388 365 q 356 305 356 335 q 357 251 356 275 q 360 200 358 224 l 207 200 q 208 251 207 224 q 210 305 210 275 q 211 367 211 335 q 138 365 171 365 q 82 365 106 365 q 35 364 56 365 l 85 508 z "},",":{"ha":249,"x_min":28,"x_max":221,"o":"m 221 93 q 201 41 215 68 q 167 -12 188 14 q 118 -60 146 -37 q 58 -97 90 -83 q 81 -32 75 -62 q 88 26 88 -1 q 65 75 82 53 q 28 114 49 97 l 158 225 q 178 204 167 217 q 198 174 189 192 q 214 136 207 157 q 221 93 221 115 z "},"-":{"ha":490,"x_min":28,"x_max":463,"o":"m 372 408 q 424 411 406 408 q 463 432 443 414 l 378 297 q 356 276 368 282 q 319 269 344 269 l 118 269 q 66 267 85 269 q 28 246 47 264 l 113 381 q 134 402 122 396 q 171 408 146 408 l 372 408 l 372 408 z "},".":{"ha":297,"x_min":28,"x_max":269,"o":"m 139 -17 q 76 42 107 6 q 28 114 44 78 l 158 225 q 206 153 174 190 q 269 94 238 117 l 139 -17 z "},"/":{"ha":629,"x_min":0,"x_max":629,"o":"m 629 1049 q 560 889 596 975 q 488 720 528 815 q 404 521 449 625 q 317 311 360 417 q 242 121 275 206 q 167 -69 203 22 l 0 -76 q 86 118 42 17 q 168 310 124 204 q 256 521 213 417 q 335 719 297 625 q 403 885 374 813 q 465 1042 438 969 l 629 1049 z "},":":{"ha":311,"x_min":42,"x_max":290,"o":"m 160 -17 q 97 42 128 6 q 49 114 65 78 l 179 225 q 226 153 194 190 q 290 94 258 117 l 160 -17 m 153 240 q 90 299 121 263 q 42 371 58 335 l 172 482 q 219 410 188 447 q 283 351 251 374 l 153 240 z "},";":{"ha":297,"x_min":35,"x_max":276,"o":"m 146 240 q 83 299 114 263 q 35 371 51 335 l 165 482 q 213 410 181 447 q 276 351 244 374 l 146 240 m 249 93 q 229 41 243 68 q 194 -12 215 14 q 146 -60 174 -37 q 86 -97 118 -83 q 109 -32 103 -62 q 115 26 115 -1 q 93 75 110 53 q 56 114 76 97 l 186 225 q 206 204 194 217 q 226 174 217 192 q 242 136 235 157 q 249 93 249 115 z "},"<":{"ha":524,"x_min":56,"x_max":454,"o":"m 56 506 q 149 546 99 524 q 253 592 200 568 q 358 640 306 615 q 454 686 410 664 l 454 547 q 389 526 419 536 q 328 508 358 517 q 267 488 299 499 q 197 464 235 476 q 267 439 235 450 q 328 418 299 428 q 389 399 358 408 q 454 381 419 390 l 454 186 q 358 233 410 208 q 253 281 306 257 q 149 326 200 304 q 56 367 99 349 l 56 506 z "},"=":{"ha":568,"x_min":35,"x_max":533,"o":"m 85 606 q 150 604 114 604 q 224 603 182 603 q 317 603 265 603 q 403 603 364 603 q 472 604 443 603 q 533 606 507 604 l 483 461 q 418 463 454 461 q 344 463 386 463 q 251 464 303 464 q 165 463 204 464 q 96 463 125 463 q 35 461 61 461 l 85 606 m 85 411 q 150 410 114 410 q 224 408 182 408 q 317 408 265 408 q 403 408 364 408 q 472 410 443 408 q 533 411 507 410 l 483 267 q 418 268 454 267 q 344 269 386 268 q 251 269 303 269 q 165 269 204 269 q 96 268 125 268 q 35 267 61 267 l 85 411 z "},">":{"ha":524,"x_min":69,"x_max":468,"o":"m 468 367 q 374 326 425 349 q 271 281 324 304 q 166 233 218 257 q 69 186 114 208 l 69 325 q 135 346 104 336 q 195 365 165 356 q 257 385 225 374 q 326 408 289 396 q 257 433 289 422 q 195 454 225 444 q 135 473 165 464 q 69 492 104 482 l 69 686 q 166 640 114 664 q 271 592 218 615 q 374 546 324 568 q 468 506 425 524 l 468 367 z "},"?":{"ha":503,"x_min":49,"x_max":453,"o":"m 440 856 q 450 795 447 828 q 453 726 453 763 q 446 608 453 665 q 429 518 439 551 q 392 481 413 501 q 349 442 371 461 q 304 404 326 422 q 264 372 282 386 q 246 363 257 367 q 247 332 246 346 q 247 307 247 318 q 249 285 247 294 l 79 271 q 81 361 79 315 q 83 445 82 400 q 83 531 83 490 q 165 499 128 506 q 222 492 201 492 q 288 507 261 492 q 295 553 292 525 q 299 639 299 581 q 265 773 299 726 q 160 819 231 819 q 110 813 131 819 q 65 793 89 806 q 50 810 51 799 q 99 869 74 842 q 140 919 118 893 q 178 960 163 944 q 220 975 194 971 q 268 979 246 979 q 379 944 332 979 q 440 856 426 910 m 160 -17 q 97 42 128 6 q 49 114 65 78 l 179 225 q 226 153 194 190 q 290 94 258 117 l 160 -17 z "},"@":{"ha":829,"x_min":42,"x_max":774,"o":"m 596 771 q 557 823 596 807 q 467 839 518 839 q 367 827 417 839 q 294 800 318 815 q 252 686 275 765 q 229 483 229 607 q 292 235 229 315 q 489 156 354 156 q 615 178 563 156 q 703 233 667 201 q 715 230 704 235 q 724 222 725 225 q 715 199 722 218 q 696 153 707 179 q 672 101 685 128 q 650 56 660 75 q 580 6 635 28 q 431 -17 525 -17 q 260 16 333 -17 q 139 109 188 49 q 66 255 90 169 q 42 444 42 340 q 51 585 42 525 q 74 688 61 646 q 98 755 86 731 q 114 788 110 779 q 129 805 117 793 q 160 832 142 817 q 201 864 179 847 q 247 896 224 881 q 287 921 271 911 q 315 938 303 931 q 338 949 328 944 q 358 958 347 954 q 407 971 369 964 q 511 978 444 978 q 708 924 642 978 q 774 769 774 869 q 772 658 774 731 q 771 506 771 585 q 771 395 771 439 q 772 325 771 351 q 774 278 772 294 l 588 264 q 589 290 588 275 q 590 319 590 303 q 592 357 590 336 q 560 322 575 338 q 532 294 546 308 q 508 275 518 281 q 439 260 482 260 q 385 269 410 260 q 341 301 360 278 q 312 366 322 325 q 301 472 301 407 q 306 563 301 526 q 315 622 310 600 q 354 659 328 638 q 408 701 381 681 q 457 735 433 721 q 508 763 481 749 q 519 765 513 764 q 557 768 533 768 q 579 767 569 768 q 596 765 589 767 l 596 771 m 596 611 q 574 623 589 617 q 531 629 558 629 q 509 628 518 629 q 493 624 500 626 l 481 619 q 472 568 475 601 q 468 507 468 535 q 488 435 468 463 q 556 408 507 408 q 574 410 564 408 q 593 415 583 411 q 594 444 593 429 q 595 474 594 458 q 596 507 596 490 l 596 611 z "},"A":{"ha":600,"x_min":7,"x_max":593,"o":"m 415 979 q 450 774 432 879 q 485 573 465 682 q 524 357 504 464 q 548 228 536 290 q 571 117 560 165 q 593 7 582 60 l 394 -7 q 379 92 386 42 q 365 184 372 135 q 350 275 357 233 l 197 275 q 185 186 190 233 q 174 99 179 139 q 163 7 168 53 l 7 -7 q 29 101 17 43 q 52 217 40 151 q 78 357 64 282 q 114 569 96 461 q 147 768 132 678 q 181 972 164 874 l 415 979 m 271 747 l 218 414 l 331 414 l 271 747 z "},"B":{"ha":601,"x_min":56,"x_max":585,"o":"m 56 972 q 131 975 92 974 q 204 978 164 976 q 285 979 244 979 q 482 922 410 979 q 554 763 554 864 q 539 670 554 708 q 503 607 524 632 q 460 567 482 582 q 426 547 439 553 q 476 521 449 539 q 528 475 504 503 q 568 408 551 447 q 585 315 585 368 q 577 249 585 278 q 560 198 569 219 q 540 163 550 176 q 526 146 531 150 q 471 99 503 125 q 409 51 439 74 q 355 15 379 29 q 321 0 331 0 l 56 0 q 57 156 56 71 q 59 324 58 228 q 60 532 60 421 q 59 724 60 642 q 57 863 58 807 q 56 972 56 928 m 251 835 q 250 792 250 815 l 250 694 l 250 528 q 344 586 317 542 q 371 694 371 631 q 358 772 371 743 q 329 815 346 800 q 295 833 313 829 q 268 836 278 836 q 261 835 264 836 q 256 835 258 835 l 251 835 m 250 285 l 250 194 q 251 154 250 172 q 267 150 258 151 q 285 148 274 149 q 310 147 296 147 q 340 150 328 147 q 365 158 353 153 q 377 201 372 175 q 382 256 382 228 q 376 312 382 283 q 356 364 371 340 q 316 403 342 388 q 250 418 290 418 l 250 285 z "},"C":{"ha":585,"x_min":42,"x_max":564,"o":"m 369 696 q 371 711 371 707 q 371 719 371 715 q 360 775 371 754 q 335 806 350 796 q 305 820 321 817 q 276 824 289 824 q 269 823 272 824 q 263 822 265 822 l 258 822 q 243 721 249 776 q 233 613 238 674 q 229 483 229 551 q 229 431 229 457 q 232 379 229 406 q 260 253 238 297 q 313 188 283 208 q 372 165 342 168 q 424 161 403 161 q 497 177 468 161 q 544 213 525 193 q 555 208 546 214 q 563 200 564 203 q 551 178 560 196 q 528 138 542 161 q 501 90 515 115 q 472 47 486 65 q 406 -5 443 7 q 315 -17 369 -17 q 199 11 251 -17 q 114 89 146 39 q 55 242 68 160 q 42 429 42 325 q 47 548 42 486 q 60 663 53 610 q 76 753 68 717 q 86 799 83 790 q 99 816 88 804 q 129 843 111 828 q 169 876 147 858 q 215 911 192 894 q 299 962 263 944 q 357 979 336 979 q 441 969 400 979 q 518 918 482 960 q 540 883 532 901 q 553 849 549 865 q 558 819 557 832 q 558 799 558 806 l 558 790 l 369 696 l 369 696 z "},"D":{"ha":643,"x_min":56,"x_max":594,"o":"m 57 972 q 76 974 57 972 q 126 976 94 975 q 197 978 157 976 q 276 979 236 979 q 358 975 319 979 q 429 958 396 971 q 490 921 463 944 q 539 858 518 897 q 566 790 556 829 q 583 708 576 751 q 592 617 589 664 q 594 522 594 569 q 591 427 594 479 q 583 327 588 375 q 572 242 578 279 q 563 189 567 204 q 547 169 561 186 q 510 130 532 153 q 461 82 488 107 q 410 38 435 57 q 386 21 397 28 q 363 9 375 14 q 335 2 351 4 q 297 0 319 0 l 56 0 q 57 163 56 79 q 59 319 58 233 q 60 486 60 404 q 59 653 60 567 q 58 810 58 739 q 57 972 57 893 m 247 835 q 246 742 246 794 q 244 632 244 697 q 244 486 244 567 q 244 343 244 404 q 246 240 244 282 q 247 156 246 192 q 268 153 257 154 q 291 151 278 151 q 319 150 304 150 q 372 154 353 150 q 392 158 383 156 q 406 298 399 211 q 414 500 414 385 q 408 637 414 575 q 385 742 403 699 q 334 810 367 786 q 247 835 301 835 z "},"E":{"ha":490,"x_min":56,"x_max":476,"o":"m 468 972 l 378 824 q 338 825 360 824 q 294 826 318 825 q 243 826 271 826 l 243 569 q 318 569 282 569 q 383 571 354 569 q 447 572 417 571 l 371 428 q 333 429 354 428 q 292 430 315 429 q 243 431 269 431 l 243 146 q 328 146 288 146 q 403 147 369 146 q 476 149 440 147 l 399 0 l 56 0 q 57 153 56 72 q 59 308 58 222 q 60 486 60 394 q 59 665 60 578 q 57 821 58 753 q 56 972 56 900 l 468 972 z "},"F":{"ha":471,"x_min":56,"x_max":464,"o":"m 464 972 l 375 824 q 336 825 357 824 q 294 826 318 825 q 243 826 269 826 l 243 569 q 315 569 279 569 q 379 571 351 569 q 442 572 413 571 l 372 428 q 331 429 353 428 q 289 430 311 429 q 243 431 267 431 q 243 267 243 344 q 244 129 243 189 q 247 0 246 60 l 56 0 q 57 160 56 75 q 59 324 58 232 q 60 514 60 415 q 59 679 60 597 q 57 826 58 761 q 56 972 56 903 l 464 972 z "},"G":{"ha":635,"x_min":40,"x_max":586,"o":"m 372 704 q 345 801 372 772 q 286 829 318 829 q 263 825 272 829 q 237 707 250 797 q 224 465 224 617 q 258 241 224 317 q 361 165 293 165 q 392 169 379 165 l 392 206 q 392 243 392 222 q 393 288 393 264 q 392 332 393 311 q 392 371 392 353 l 392 410 q 346 409 368 410 q 306 408 324 408 q 265 407 285 407 l 372 549 l 586 549 q 585 485 585 519 l 585 342 l 585 192 q 586 124 585 156 q 484 53 529 83 q 394 -1 439 24 q 372 -10 386 -6 q 307 -17 347 -17 q 229 -3 275 -17 q 142 53 183 11 q 70 171 100 94 q 40 371 40 247 q 53 604 40 489 q 93 813 65 719 q 191 899 133 853 q 311 975 249 944 q 333 978 319 978 q 357 979 346 979 q 426 974 389 979 q 492 946 463 969 q 542 883 528 918 q 557 789 557 847 l 372 704 l 372 704 z "},"H":{"ha":661,"x_min":56,"x_max":606,"o":"m 254 972 q 251 867 253 926 q 250 740 250 815 q 250 569 250 665 l 411 569 q 410 740 411 665 q 408 867 410 815 q 407 972 407 926 l 606 972 q 603 860 604 926 q 601 713 601 801 q 601 500 601 625 q 601 282 601 375 q 603 126 601 189 q 606 0 604 53 l 407 0 q 408 119 407 53 q 410 255 410 176 q 411 431 411 333 l 250 431 q 251 255 250 333 q 253 119 251 176 q 256 0 254 53 l 56 0 q 57 126 56 53 q 59 282 58 189 q 60 500 60 375 q 59 713 60 625 q 57 860 58 801 q 56 972 56 926 l 254 972 z "},"I":{"ha":303,"x_min":56,"x_max":247,"o":"m 247 972 q 244 832 246 907 q 243 685 243 768 q 243 514 243 603 q 243 322 243 414 q 244 158 243 231 q 247 0 246 74 l 56 0 q 57 158 56 74 q 59 322 58 231 q 60 514 60 414 q 59 685 60 603 q 57 832 58 768 q 56 972 56 907 l 247 972 z "},"J":{"ha":307,"x_min":-7,"x_max":251,"o":"m 251 972 q 250 824 250 901 q 249 672 249 757 q 249 500 249 588 q 249 357 249 426 q 250 233 250 288 q 251 143 250 178 q 251 104 251 108 q 222 53 240 83 q 181 -7 203 24 q 138 -65 158 -37 q 104 -106 117 -92 q 88 -112 96 -110 q 67 -114 81 -114 q 31 -101 46 -114 q 14 -72 17 -87 q 8 -35 11 -62 q 1 21 4 -8 q -7 94 -3 56 q 22 87 8 89 q 47 83 36 85 q 72 81 61 82 q 74 208 72 140 q 74 342 74 267 q 75 500 75 417 q 74 671 75 586 q 74 822 74 756 q 72 972 72 900 l 251 972 z "},"K":{"ha":599,"x_min":56,"x_max":592,"o":"m 254 972 q 251 856 253 919 q 249 730 250 801 q 249 575 249 658 q 275 642 260 606 q 301 710 286 672 q 332 788 317 747 q 356 856 344 822 q 378 915 368 889 q 397 972 389 946 l 568 979 l 475 772 q 442 698 457 733 q 414 635 426 663 q 386 575 399 603 q 413 500 397 540 q 441 419 425 465 q 476 322 457 374 q 517 210 496 267 q 554 110 538 154 q 592 7 574 56 l 389 -7 q 368 60 379 24 q 346 127 358 90 q 321 204 333 164 q 295 283 307 244 q 272 350 283 321 q 249 415 260 385 q 249 263 249 336 q 251 131 250 189 q 254 0 253 63 l 56 0 q 57 160 56 75 q 59 324 58 232 q 60 514 60 417 q 59 681 60 599 q 57 828 58 763 q 56 972 56 904 l 254 972 z "},"L":{"ha":460,"x_min":56,"x_max":460,"o":"m 243 972 q 240 821 242 901 q 239 665 239 751 q 239 486 239 578 l 239 146 q 319 148 281 146 q 390 153 358 150 q 460 160 426 156 l 351 0 l 56 0 q 57 139 56 63 q 59 293 58 204 q 60 486 60 382 q 59 678 60 590 q 57 833 58 767 q 56 972 56 910 l 243 972 z "},"M":{"ha":925,"x_min":28,"x_max":890,"o":"m 307 979 q 335 849 319 915 q 361 726 347 792 q 389 603 375 661 q 415 488 404 539 q 436 401 426 438 q 456 326 446 358 q 475 401 464 358 q 497 488 485 438 q 524 603 508 539 q 552 726 538 661 q 579 846 567 790 q 607 972 594 911 l 847 979 q 851 826 849 906 q 856 673 854 758 q 863 500 858 588 q 872 317 867 406 q 881 160 876 229 q 890 7 886 79 l 694 -7 q 690 124 693 57 q 686 252 688 182 q 682 389 685 322 q 677 500 679 449 q 672 589 675 551 q 667 668 669 633 q 646 589 656 629 q 627 513 638 554 q 608 432 617 471 q 581 315 594 374 q 557 206 568 256 q 531 92 543 147 l 540 7 l 342 0 q 318 115 331 56 q 293 231 307 167 q 265 358 279 294 q 243 456 254 410 q 224 539 232 503 q 206 618 214 581 q 201 540 204 582 q 197 457 199 504 q 194 358 196 410 q 190 233 192 296 q 188 121 189 171 q 186 7 186 63 l 28 -7 q 40 151 33 68 q 53 313 46 222 q 67 500 60 404 q 78 672 72 588 q 86 824 83 757 q 93 972 90 901 l 307 979 z "},"N":{"ha":688,"x_min":53,"x_max":632,"o":"m 632 972 q 629 819 631 899 q 628 667 628 751 q 628 500 628 583 q 628 313 628 401 q 629 156 628 224 q 632 7 631 76 l 418 -7 q 379 111 400 49 q 340 231 361 164 q 296 367 318 297 q 256 488 275 429 q 222 590 238 546 q 189 690 206 643 q 190 440 189 563 q 193 218 190 317 q 197 0 194 103 l 56 0 q 58 308 57 149 q 59 453 58 376 q 60 613 60 531 q 62 778 61 694 q 63 944 63 863 l 53 972 l 286 972 q 318 874 301 926 q 351 772 333 829 q 389 656 369 715 q 429 534 408 593 q 465 428 450 475 q 501 324 483 372 q 500 573 501 456 q 497 779 499 690 q 493 972 494 883 l 632 972 z "},"O":{"ha":674,"x_min":42,"x_max":632,"o":"m 88 813 q 124 843 104 828 q 161 874 140 857 q 204 907 182 890 q 278 957 249 940 q 308 975 294 967 q 357 979 329 979 q 452 960 406 979 q 535 901 499 942 q 572 852 554 881 q 603 785 589 824 q 624 695 617 746 q 632 578 632 644 q 624 403 632 481 q 607 271 617 325 q 582 158 596 207 q 540 113 567 139 q 483 63 513 88 q 424 17 453 38 q 378 -12 394 -4 q 331 -17 358 -17 q 192 17 247 -17 q 103 109 136 51 q 56 241 69 167 q 42 396 42 315 q 49 545 42 471 q 64 679 56 619 q 88 813 74 749 m 260 801 q 246 713 251 764 q 236 602 240 668 q 232 449 232 536 q 274 235 232 303 q 383 167 317 167 q 401 167 394 167 q 415 171 408 168 q 428 258 422 211 q 438 353 433 299 q 442 472 442 408 q 436 594 442 535 q 411 699 431 653 q 356 774 392 746 q 260 801 319 801 z "},"P":{"ha":571,"x_min":56,"x_max":558,"o":"m 56 0 q 57 174 56 83 q 59 347 58 251 q 60 542 60 443 q 59 701 60 624 q 57 839 58 778 q 56 972 56 910 q 128 975 92 974 q 193 978 158 976 q 256 979 228 979 q 370 973 314 979 q 476 931 426 967 q 543 840 528 893 q 558 724 558 788 q 553 648 558 683 q 542 585 549 613 q 525 525 535 553 q 483 478 508 503 q 430 432 457 454 q 376 391 403 410 q 332 363 350 372 q 308 360 321 361 q 283 358 297 358 q 253 357 269 357 q 253 219 253 283 q 254 106 253 154 q 256 0 254 49 l 56 0 m 251 547 q 253 510 251 524 q 276 506 264 507 q 303 504 289 504 q 321 505 314 504 q 335 507 328 506 q 347 511 340 508 q 357 556 351 531 q 363 604 360 576 q 367 667 367 632 q 363 724 367 696 q 349 773 358 751 q 322 808 339 794 q 279 821 306 821 q 267 821 272 821 q 251 819 261 821 l 251 672 l 251 547 z "},"Q":{"ha":674,"x_min":42,"x_max":649,"o":"m 86 813 q 122 843 103 828 q 160 874 139 857 q 203 906 181 890 q 244 933 225 921 q 279 956 264 946 q 311 975 296 967 q 334 978 321 978 q 361 979 347 979 q 533 901 460 979 q 571 852 553 881 q 602 785 589 824 q 623 695 615 746 q 631 578 631 644 q 622 403 631 481 q 601 272 613 326 q 574 161 589 208 q 601 141 588 150 q 625 125 614 132 q 649 111 638 117 l 528 -51 l 503 -26 q 476 -1 492 -15 q 442 32 461 14 q 375 -12 399 0 q 356 -16 368 -15 q 335 -17 344 -17 q 238 -5 279 -17 q 156 43 196 7 q 103 110 125 71 q 68 197 82 150 q 48 294 54 243 q 42 396 42 344 q 49 554 42 479 q 64 688 56 629 q 86 813 74 754 m 258 801 q 244 706 250 761 q 235 589 239 658 q 232 431 232 519 q 246 299 232 350 q 281 218 260 247 q 331 178 303 189 q 386 167 358 167 q 418 171 406 167 q 431 256 425 210 q 439 349 435 296 q 443 465 443 401 q 437 588 443 528 q 411 696 431 649 q 356 772 392 743 q 258 801 319 801 z "},"R":{"ha":604,"x_min":57,"x_max":600,"o":"m 57 972 q 122 975 86 974 q 193 978 153 976 q 282 979 233 979 q 464 940 404 979 q 528 872 499 918 q 557 760 557 825 q 544 676 557 714 q 513 607 532 638 q 469 553 493 576 q 419 517 444 531 q 442 442 428 482 q 468 360 453 407 q 503 261 483 314 q 535 174 518 219 q 567 92 551 129 q 600 7 583 47 l 389 -7 l 251 403 l 251 219 q 251 140 251 179 q 253 69 251 101 q 254 0 253 33 l 57 0 q 58 149 57 69 q 60 305 60 217 q 61 490 61 393 q 60 663 61 578 q 58 818 60 749 q 57 972 57 899 m 251 517 l 268 521 q 286 526 275 524 q 310 532 297 528 q 326 545 315 533 q 346 576 336 557 q 363 622 356 596 q 369 681 369 649 q 360 756 369 728 q 335 800 350 785 q 303 820 321 815 q 269 825 285 825 q 251 824 258 825 l 251 517 z "},"S":{"ha":497,"x_min":39,"x_max":464,"o":"m 258 979 q 318 972 285 979 q 381 946 351 965 q 431 890 410 926 q 454 793 451 853 l 275 704 q 267 753 272 731 q 250 788 261 772 q 219 806 239 803 q 211 688 211 744 q 224 626 211 644 q 263 596 238 608 q 313 570 283 585 q 361 544 343 556 q 440 462 417 513 q 464 340 464 411 q 458 259 464 297 q 444 192 451 221 q 425 126 436 157 l 268 -14 q 249 -17 260 -17 q 228 -18 238 -18 q 163 -12 196 -18 q 103 15 131 -6 q 58 76 76 36 q 39 186 40 117 l 219 258 q 228 208 222 231 q 244 173 233 189 q 275 154 256 157 q 288 205 283 178 q 292 258 292 232 q 285 315 292 292 q 263 354 278 338 q 226 384 249 371 q 174 410 204 397 q 95 461 132 428 q 46 560 58 494 q 41 599 43 579 q 39 639 39 618 q 50 744 39 689 q 85 853 61 799 l 258 979 z "},"T":{"ha":558,"x_min":-7,"x_max":565,"o":"m 565 972 l 482 824 q 447 825 465 824 q 413 826 432 825 q 372 826 393 826 q 369 714 371 775 q 368 592 368 661 q 368 444 368 524 q 368 287 368 365 q 369 144 368 208 q 372 0 371 69 l 176 0 q 178 144 176 69 q 180 287 179 208 q 181 444 181 365 q 180 592 181 524 q 178 714 179 661 q 176 826 176 775 q 110 826 143 826 q 51 824 78 825 q -7 822 21 822 l 63 972 l 565 972 z "},"U":{"ha":625,"x_min":56,"x_max":569,"o":"m 249 972 q 247 735 247 856 q 246 508 246 631 q 246 269 246 385 q 271 194 246 221 q 335 167 296 167 q 357 168 346 167 q 379 175 368 169 q 378 468 379 325 q 376 724 378 611 q 375 972 375 856 l 569 972 q 567 829 568 904 q 565 686 565 765 q 565 528 565 607 q 565 333 565 426 q 567 164 565 239 q 569 0 568 78 l 376 0 l 376 25 q 377 50 376 36 q 378 79 378 64 q 350 50 364 64 q 326 25 339 38 q 304 4 313 13 q 283 -5 301 1 q 232 -11 265 -11 q 143 7 178 -11 q 89 57 108 25 q 63 133 69 89 q 56 226 56 176 q 57 338 56 257 q 58 528 58 419 q 58 681 58 603 q 57 825 57 760 q 56 972 56 901 l 249 972 z "},"V":{"ha":547,"x_min":7,"x_max":549,"o":"m 203 979 l 251 624 q 267 509 260 564 q 281 411 274 454 q 294 315 288 361 q 310 411 303 361 q 324 509 317 454 q 342 624 332 564 q 360 751 351 688 q 376 863 369 814 q 392 972 385 919 l 549 979 q 522 849 536 918 q 497 712 511 789 q 467 551 482 635 q 432 356 449 453 q 401 181 415 258 q 371 7 386 89 l 154 -7 q 129 174 143 79 q 103 353 118 254 q 74 551 89 451 q 49 710 61 635 q 28 844 38 786 q 7 972 17 913 l 203 979 z "},"W":{"ha":914,"x_min":7,"x_max":914,"o":"m 203 979 q 217 885 210 935 q 231 786 224 842 q 247 672 238 731 q 267 544 257 607 q 283 431 276 481 q 300 319 292 372 l 386 842 l 363 972 l 565 979 q 578 883 571 933 q 592 785 585 840 q 608 672 599 731 q 627 544 618 607 q 644 431 636 481 q 663 319 653 372 q 681 431 671 372 q 699 544 689 481 q 721 672 710 607 q 738 785 731 731 q 753 881 746 839 q 767 972 760 929 l 914 979 q 886 843 901 915 q 859 703 874 781 q 829 542 844 625 q 794 348 811 443 q 765 176 778 253 q 736 7 750 88 l 525 -7 q 513 82 518 36 q 500 167 507 121 q 486 257 493 213 q 473 342 479 303 q 461 410 467 382 q 450 469 456 443 l 369 7 l 160 -7 q 135 169 149 78 q 110 346 124 249 q 81 542 96 443 q 54 704 67 626 q 31 842 42 782 q 7 972 18 911 l 203 979 z "},"X":{"ha":582,"x_min":7,"x_max":576,"o":"m 225 979 l 315 685 l 414 972 l 576 979 l 378 515 l 558 0 l 353 -7 l 268 292 l 171 0 l 7 -7 l 201 460 l 24 972 l 225 979 z "},"Y":{"ha":513,"x_min":7,"x_max":513,"o":"m 168 0 q 169 111 168 51 q 172 228 171 163 q 172 369 172 294 l 7 972 l 210 972 l 293 629 l 367 972 l 513 972 l 360 410 q 360 246 360 321 q 361 117 360 171 q 363 0 361 51 l 168 0 z "},"Z":{"ha":450,"x_min":4,"x_max":443,"o":"m 431 972 q 386 826 410 901 q 343 683 367 761 q 296 528 319 606 q 256 388 274 453 q 224 274 238 322 q 194 167 208 217 q 283 167 239 167 q 364 169 328 168 q 443 174 406 171 l 393 0 l 4 0 q 53 161 28 78 q 99 317 74 232 q 147 486 124 403 q 183 614 167 554 q 211 718 200 674 q 236 813 225 769 q 157 811 196 813 q 88 808 118 810 q 19 806 51 807 l 76 972 l 431 972 z "},"[":{"ha":339,"x_min":56,"x_max":332,"o":"m 56 -208 q 57 35 56 -87 q 57 144 57 86 q 58 260 57 201 q 58 376 58 319 q 58 486 58 433 q 58 595 58 538 q 58 712 58 653 q 57 828 57 771 q 57 938 57 885 q 56 1181 56 1060 l 331 1181 l 300 1039 q 269 1040 285 1039 q 237 1041 256 1040 q 199 1042 218 1042 q 198 919 199 988 q 197 776 197 850 q 197 628 197 703 q 197 486 197 554 q 197 343 197 418 q 197 194 197 268 q 198 53 197 121 q 199 -69 199 -15 q 253 -69 229 -69 q 296 -68 278 -69 q 332 -67 317 -68 l 301 -208 l 56 -208 l 56 -208 z "},"\\":{"ha":624,"x_min":0,"x_max":624,"o":"m 222 889 q 290 720 251 815 q 371 521 328 625 q 458 311 413 417 q 539 121 503 206 q 624 -69 582 22 l 463 -76 q 386 118 426 17 q 309 310 351 204 q 222 521 267 417 q 138 719 178 625 q 67 885 97 813 q 0 1042 31 969 l 158 1049 l 222 889 z "},"]":{"ha":339,"x_min":7,"x_max":283,"o":"m 283 1181 q 282 938 282 1060 q 281 828 282 885 q 281 712 281 771 q 281 595 281 653 q 281 486 281 538 q 281 376 281 433 q 281 260 281 319 q 281 144 281 201 q 282 35 282 86 q 283 -208 282 -87 l 8 -208 l 39 -67 q 69 -68 54 -68 q 101 -69 83 -69 q 140 -69 119 -69 q 141 53 140 -15 q 142 196 142 122 q 142 344 142 269 q 142 486 142 418 q 142 629 142 554 q 142 778 142 704 q 141 919 142 851 q 140 1042 140 988 q 85 1041 108 1042 q 43 1040 61 1040 q 7 1039 22 1039 l 38 1181 l 283 1181 l 283 1181 z "},"^":{"ha":658,"x_min":28,"x_max":631,"o":"m 442 674 q 408 735 426 701 q 369 801 389 768 q 331 864 350 833 q 299 917 313 894 q 230 798 264 861 q 169 681 196 735 l 28 674 q 76 744 50 707 q 127 821 101 782 q 178 899 153 860 q 224 972 203 938 l 432 972 q 526 829 472 907 q 631 681 579 751 l 442 674 z "},"_":{"ha":661,"x_min":14,"x_max":647,"o":"m 106 -67 q 189 -68 144 -68 q 275 -69 226 -69 q 376 -69 324 -69 q 478 -69 429 -69 q 564 -68 526 -69 q 647 -67 608 -68 l 556 -211 q 472 -210 517 -211 q 386 -209 435 -210 q 285 -208 338 -208 q 183 -209 232 -208 q 97 -210 135 -210 q 14 -211 53 -211 l 106 -67 l 106 -67 z "},"`":{"ha":390,"x_min":35,"x_max":356,"o":"m 356 749 q 308 763 333 756 q 259 777 286 769 q 201 793 232 785 q 148 807 171 801 q 110 817 125 813 q 79 825 92 822 l 35 979 q 75 967 53 972 q 120 953 94 960 q 176 938 146 946 q 231 923 207 929 q 274 913 256 917 q 311 904 294 907 l 356 749 z "},"a":{"ha":563,"x_min":42,"x_max":514,"o":"m 331 0 q 332 24 332 10 q 332 51 332 35 q 333 88 332 67 q 296 47 313 65 q 268 19 281 32 q 254 4 256 6 q 222 -7 242 -3 q 179 -11 203 -11 q 124 -1 149 -11 q 81 35 99 8 q 52 111 63 63 q 42 239 42 160 q 49 449 42 378 q 60 539 57 521 q 97 576 72 554 q 150 618 122 597 q 199 651 175 638 q 250 679 222 665 q 267 682 257 681 q 287 685 275 683 q 314 686 299 686 q 374 681 346 686 q 439 664 403 676 l 514 679 q 513 574 513 629 q 511 467 511 526 q 511 347 511 408 q 511 218 511 281 q 513 107 511 156 q 514 0 513 50 l 331 0 m 339 347 q 338 424 339 390 q 338 481 338 457 q 336 529 336 507 q 321 538 329 533 q 302 544 314 540 q 275 547 290 547 q 253 546 263 547 q 236 542 243 544 q 222 538 228 539 q 214 461 218 510 q 210 336 210 413 q 213 265 210 300 q 224 201 215 229 q 249 156 232 174 q 294 139 265 139 q 314 140 301 139 q 336 146 326 142 q 338 188 336 161 q 338 250 338 211 q 339 347 339 289 z "},"b":{"ha":564,"x_min":49,"x_max":529,"o":"m 229 972 q 226 849 228 914 q 225 722 225 793 q 225 576 225 651 l 299 651 q 339 678 317 669 q 385 686 361 686 q 431 678 408 686 q 474 654 454 671 q 514 590 499 632 q 529 478 529 547 q 526 362 529 421 q 521 254 524 303 q 514 144 517 197 q 481 103 500 125 q 442 63 463 82 q 400 26 421 43 q 363 0 379 10 q 322 -9 342 -7 q 281 -11 303 -11 q 223 -7 249 -11 q 178 4 197 -3 q 138 21 156 11 l 49 -7 q 50 158 49 72 q 52 326 51 233 q 53 514 53 418 q 52 685 53 603 q 50 832 51 768 q 49 972 49 907 l 229 972 m 225 342 l 225 211 q 226 153 225 181 q 246 138 233 143 q 270 126 256 131 q 304 122 285 122 q 326 124 314 122 q 350 132 339 125 q 353 210 351 165 q 356 301 354 247 q 357 425 357 354 q 349 471 357 453 q 327 500 340 489 q 297 516 314 511 q 263 521 281 521 q 244 519 254 521 q 225 515 235 518 l 225 342 z "},"c":{"ha":424,"x_min":35,"x_max":403,"o":"m 264 447 q 247 509 261 489 q 214 529 233 529 q 210 463 211 497 q 208 397 208 433 q 207 325 207 360 q 208 260 207 290 q 217 206 210 229 q 240 170 225 183 q 279 157 254 157 q 325 165 307 157 q 356 183 343 172 q 379 210 369 194 q 397 201 390 210 q 383 160 392 185 q 365 110 375 135 q 344 61 354 85 q 326 24 335 38 q 296 6 314 13 q 256 -6 281 -1 q 197 -11 231 -11 q 126 4 156 -11 q 75 42 96 19 q 55 71 63 56 q 42 108 47 86 q 36 160 38 131 q 35 233 35 190 q 38 333 35 278 q 44 438 40 389 q 54 554 49 494 q 84 584 64 565 q 131 622 104 603 q 188 658 157 642 q 250 681 218 674 q 322 663 293 681 q 369 622 351 646 q 394 572 386 597 q 403 532 401 547 l 264 447 l 264 447 z "},"d":{"ha":547,"x_min":35,"x_max":506,"o":"m 506 972 q 503 853 504 918 q 501 721 501 796 q 501 556 501 646 q 501 365 501 463 q 503 185 501 267 q 506 0 504 89 l 324 0 q 325 22 324 10 q 326 48 325 33 q 326 82 326 63 q 290 47 307 63 q 261 20 275 33 q 239 0 247 7 q 218 -9 231 -7 q 190 -11 206 -11 q 72 40 108 -11 q 35 197 35 90 q 36 295 35 240 q 40 401 38 350 q 44 491 42 451 q 50 546 47 531 q 81 578 60 558 q 128 619 103 599 q 178 656 153 639 q 222 679 204 672 q 249 682 233 681 q 280 685 261 683 q 325 686 299 686 q 324 797 325 744 q 324 888 324 849 q 322 972 322 933 l 506 972 m 328 342 q 327 421 328 385 q 326 485 326 457 q 325 542 325 517 q 308 544 317 543 q 291 547 301 546 q 269 547 281 547 q 248 546 258 547 q 231 543 238 544 q 215 539 222 540 q 213 513 214 538 q 209 453 211 489 q 206 378 207 418 q 204 308 204 339 q 206 246 204 276 q 217 192 208 215 q 244 153 226 168 q 290 139 261 139 q 311 141 303 139 q 326 147 319 143 l 326 196 q 327 256 326 219 q 328 342 328 293 z "},"e":{"ha":461,"x_min":42,"x_max":433,"o":"m 222 318 q 221 297 221 308 q 221 278 221 286 q 242 183 221 207 q 300 160 264 160 q 366 178 340 160 q 408 219 392 196 q 417 218 413 219 q 424 211 421 217 q 413 179 422 204 q 393 124 404 154 q 372 67 382 94 q 356 31 361 40 q 309 4 347 19 q 222 -11 271 -11 q 83 53 124 -11 q 42 236 42 117 q 44 347 42 292 q 51 448 47 403 q 60 523 56 493 q 67 556 64 553 q 109 590 85 572 q 159 624 133 607 q 211 656 185 642 q 260 681 238 671 q 354 662 322 681 q 406 615 386 643 q 429 551 425 588 q 433 483 433 514 q 433 448 433 465 q 429 419 432 431 q 365 369 393 392 q 303 317 338 347 q 273 317 288 317 q 247 318 258 318 l 222 318 m 297 440 q 282 500 297 474 q 238 526 267 526 q 231 526 233 526 q 225 525 228 525 l 222 525 q 221 490 221 508 l 221 413 q 296 417 264 413 q 297 428 297 422 q 297 440 297 435 z "},"f":{"ha":350,"x_min":-8,"x_max":364,"o":"m 317 781 q 274 802 294 797 q 231 807 254 807 l 231 646 l 319 646 q 364 647 342 646 l 269 542 l 231 542 q 231 351 231 446 q 232 176 231 256 q 233 0 232 85 l 69 0 q 71 176 69 85 q 72 351 71 256 q 72 542 72 446 q 42 541 57 542 q 17 540 28 540 l -8 540 l 72 646 l 72 778 q 152 888 107 835 q 236 968 197 940 q 251 974 243 971 q 270 978 258 976 q 299 979 282 979 q 324 976 314 979 q 342 969 335 972 q 356 961 350 965 l 317 781 z "},"g":{"ha":554,"x_min":42,"x_max":506,"o":"m 506 681 q 504 551 504 618 q 503 422 503 493 q 503 278 503 350 q 503 127 503 199 q 504 0 503 56 q 506 -121 504 -65 q 466 -166 490 -140 q 416 -217 442 -192 q 365 -265 390 -243 q 322 -299 339 -286 q 298 -303 311 -301 q 274 -304 285 -304 q 207 -295 239 -304 q 147 -271 175 -286 q 97 -236 119 -256 q 58 -196 75 -217 l 196 -61 q 249 -115 217 -93 q 328 -139 281 -137 l 328 -79 q 328 -8 328 -50 q 329 89 329 35 q 281 38 301 60 q 244 3 260 17 q 216 -8 232 -4 q 169 -11 200 -11 q 98 11 124 -11 q 60 67 72 33 q 44 142 47 101 q 42 218 42 182 q 44 297 42 247 q 49 398 46 346 q 58 494 53 450 q 67 556 63 539 q 100 585 76 567 q 150 623 124 604 q 201 658 176 642 q 240 681 226 674 q 257 683 247 682 q 275 685 264 685 q 297 686 286 686 q 356 682 331 686 q 401 674 382 678 q 440 663 424 668 l 506 681 m 329 211 q 330 278 329 242 q 331 349 331 315 q 330 419 331 385 q 329 481 329 454 l 329 539 q 272 547 301 547 q 229 543 250 547 q 219 460 224 510 q 214 343 214 411 q 215 263 214 301 q 225 197 217 225 q 251 153 233 169 q 299 136 268 136 q 329 140 317 136 l 329 211 z "},"h":{"ha":564,"x_min":49,"x_max":522,"o":"m 228 972 q 226 846 226 913 q 225 719 225 789 q 225 576 225 649 l 253 604 l 294 646 q 329 670 310 660 q 386 681 349 681 q 442 669 417 681 q 485 636 467 657 q 513 588 503 615 q 522 529 522 560 q 521 428 522 494 q 519 278 519 361 q 519 177 519 226 q 521 88 519 128 q 522 0 521 42 l 339 0 q 340 144 339 71 q 341 283 340 207 q 342 431 342 358 q 319 490 342 468 q 261 513 296 513 q 244 511 253 513 q 225 506 235 510 q 225 315 225 406 q 226 153 225 224 q 228 0 226 71 l 49 0 q 50 156 49 74 q 52 315 51 226 q 53 500 53 404 q 52 672 53 588 q 50 824 51 757 q 49 972 49 901 l 228 972 z "},"i":{"ha":286,"x_min":21,"x_max":272,"o":"m 21 822 q 40 844 31 832 q 60 867 49 856 q 82 893 71 879 l 132 954 l 151 944 q 171 935 160 940 q 196 922 182 929 q 223 909 210 915 q 247 897 236 903 q 272 886 260 892 q 254 867 264 876 q 235 846 246 857 q 214 822 225 835 q 193 799 203 811 q 175 778 183 788 q 157 757 165 767 q 136 767 147 761 q 114 777 126 771 q 89 790 101 783 q 65 802 76 796 q 43 813 53 808 q 21 822 32 818 m 233 672 q 232 569 232 624 q 231 465 231 524 q 231 347 231 407 q 231 219 231 281 q 232 108 231 157 q 233 0 232 51 l 54 0 q 56 108 54 51 q 56 219 56 157 q 57 347 57 281 q 56 465 57 407 q 56 569 56 524 q 54 672 54 624 l 233 672 z "},"j":{"ha":286,"x_min":21,"x_max":272,"o":"m 21 822 q 40 844 31 832 q 60 867 49 856 q 82 893 71 879 l 132 954 l 151 944 q 171 935 160 940 q 196 922 182 929 q 223 909 210 915 q 247 897 236 903 q 272 886 260 892 q 254 867 264 876 q 235 846 246 857 q 214 822 225 835 q 193 799 203 811 q 175 778 183 788 q 157 757 165 767 q 136 767 147 761 q 114 777 126 771 q 89 790 101 783 q 65 802 76 796 q 43 813 53 808 q 21 822 32 818 m 229 672 q 228 474 228 581 q 226 263 226 382 q 226 14 226 144 q 226 -33 226 -6 q 225 -87 226 -61 q 220 -134 224 -114 q 211 -160 217 -154 q 169 -199 192 -178 q 123 -239 146 -219 q 79 -276 100 -258 q 43 -304 58 -293 q 24 -286 26 -301 q 47 -238 39 -262 q 60 -184 56 -214 q 65 -117 64 -154 q 65 -31 65 -79 q 65 226 65 100 q 63 451 64 351 q 61 672 61 568 l 229 672 z "},"k":{"ha":565,"x_min":49,"x_max":524,"o":"m 229 972 q 228 850 228 915 q 226 725 226 794 q 226 582 226 656 q 263 618 244 601 q 294 648 278 633 q 321 674 310 663 q 349 683 333 679 q 389 686 365 686 q 433 678 410 686 q 477 650 457 671 q 510 593 497 629 q 524 500 524 557 q 519 453 524 469 l 413 388 q 496 351 469 382 q 522 274 522 321 l 522 85 q 524 0 522 39 l 347 0 l 347 67 q 348 131 347 96 q 349 200 349 167 q 324 263 349 239 q 258 286 300 286 q 242 285 251 286 q 226 281 233 283 q 226 181 226 231 q 228 90 226 131 q 229 0 228 43 l 49 0 q 50 156 49 74 q 52 315 51 226 q 53 500 53 404 q 52 672 53 588 q 50 824 51 757 q 49 972 49 901 l 229 972 m 226 331 l 314 381 q 338 408 333 392 q 343 447 343 424 q 325 500 343 479 q 267 521 307 521 q 247 519 258 521 q 226 515 236 518 l 226 331 z "},"l":{"ha":281,"x_min":49,"x_max":232,"o":"m 232 972 q 229 804 231 890 q 228 646 228 731 q 228 486 228 561 q 228 294 228 382 q 229 140 228 207 q 232 0 231 64 l 49 0 q 50 143 49 67 q 52 297 51 210 q 53 486 53 385 q 52 651 53 565 q 50 808 51 736 q 49 972 49 892 l 232 972 z "},"m":{"ha":822,"x_min":49,"x_max":781,"o":"m 229 672 q 228 644 228 660 l 228 585 l 293 650 q 328 674 310 668 q 381 681 347 681 q 417 675 397 681 q 456 657 438 669 q 487 624 474 644 q 503 575 500 604 q 531 604 517 590 q 553 628 542 615 q 575 650 565 640 q 606 672 589 664 q 651 681 624 681 q 697 672 674 681 q 738 645 719 664 q 769 597 757 626 q 781 526 781 568 q 780 466 781 493 q 779 413 779 439 q 778 357 779 386 q 778 292 778 328 q 778 187 778 239 q 779 93 778 135 q 781 0 779 44 l 607 0 q 608 114 607 50 q 609 244 608 168 q 610 417 610 321 q 594 488 610 463 q 538 513 578 513 q 506 507 518 513 q 504 458 504 486 l 504 319 q 504 213 504 268 q 506 110 504 157 q 507 0 506 54 l 329 0 q 331 104 329 43 q 331 235 331 157 q 332 417 332 313 q 258 513 332 513 q 228 507 239 513 q 226 458 226 486 q 225 399 225 435 q 225 319 225 364 q 225 213 225 268 q 226 110 225 157 q 228 0 226 54 l 49 0 q 50 104 49 49 q 51 215 50 153 q 51 347 51 276 q 51 458 51 400 q 50 564 50 515 q 49 672 49 619 l 229 672 z "},"n":{"ha":563,"x_min":49,"x_max":521,"o":"m 228 672 l 228 568 q 271 620 254 599 q 302 655 288 642 q 334 674 317 668 q 381 681 351 681 q 479 640 439 681 q 519 533 519 599 q 519 474 519 501 q 518 417 518 446 q 517 354 518 388 q 517 278 517 321 q 517 184 517 233 q 518 94 517 135 q 521 0 519 46 l 344 0 q 346 161 344 85 q 346 228 346 194 q 347 294 346 263 q 347 354 347 326 q 347 403 347 382 q 341 458 347 436 q 324 494 335 481 q 298 512 313 507 q 268 517 283 517 q 250 515 257 517 q 238 513 243 514 q 228 508 232 510 q 225 422 226 468 q 224 336 224 383 q 224 242 224 289 q 224 151 224 194 q 225 74 224 107 q 228 0 226 35 l 49 0 q 50 85 49 36 q 52 186 51 126 q 53 325 53 246 q 52 467 53 403 q 50 576 51 531 q 49 672 49 631 l 228 672 z "},"o":{"ha":553,"x_min":35,"x_max":525,"o":"m 56 557 q 78 575 57 557 q 157 629 100 593 q 204 657 185 647 q 235 674 224 667 q 257 683 249 679 q 265 685 260 683 q 275 685 269 685 q 288 686 281 686 q 339 683 311 686 q 394 668 367 679 q 448 635 422 657 q 492 578 474 614 q 519 473 514 535 q 525 346 525 411 q 523 271 525 307 q 518 206 521 235 q 513 158 515 176 q 508 135 510 139 q 496 122 507 132 q 469 99 485 111 q 438 73 454 86 q 408 51 421 60 q 352 13 383 33 q 301 -14 321 -7 q 285 -16 294 -15 q 265 -17 276 -17 q 218 -14 246 -17 q 161 1 190 -11 q 105 35 132 13 q 61 97 78 57 q 40 183 46 132 q 35 289 35 233 q 38 385 35 338 q 44 472 40 433 q 52 533 49 510 q 56 557 56 557 m 219 517 q 213 471 215 496 q 208 417 210 449 q 207 349 207 386 q 209 278 207 315 q 220 212 211 242 q 249 163 229 182 q 307 143 269 143 q 338 149 326 143 q 343 174 340 157 q 348 215 346 192 q 351 265 350 238 q 353 321 353 293 q 349 391 353 356 q 334 456 346 426 q 302 503 322 485 q 249 521 282 521 q 219 517 229 521 z "},"p":{"ha":563,"x_min":49,"x_max":526,"o":"m 232 672 l 229 583 q 263 619 247 603 q 291 649 276 635 q 314 669 306 663 q 340 683 325 679 q 369 686 354 686 q 415 680 393 686 q 449 665 436 674 q 473 647 460 658 q 498 614 486 635 q 518 563 510 593 q 526 489 526 532 q 524 390 526 446 q 518 281 521 333 q 511 188 515 229 q 506 135 507 147 q 469 95 489 115 q 426 56 449 75 q 381 21 403 38 q 338 -8 358 4 q 316 -11 328 -11 q 297 -11 304 -11 q 270 -10 282 -11 q 249 -6 258 -8 q 229 0 238 -3 q 229 -160 229 -100 q 231 -251 229 -219 q 232 -304 231 -289 l 49 -304 q 50 -151 49 -232 q 52 3 51 -82 q 53 179 53 89 q 52 356 53 268 q 50 515 51 444 q 49 672 49 597 l 232 672 m 350 410 q 341 464 350 443 q 318 495 332 485 q 288 509 304 506 q 257 513 271 513 q 244 512 250 513 q 236 511 239 511 q 229 510 231 510 l 229 146 q 267 128 246 133 q 310 124 289 124 q 326 124 318 124 q 346 126 335 124 q 347 217 346 169 q 349 308 349 257 q 350 410 350 358 z "},"q":{"ha":572,"x_min":47,"x_max":524,"o":"m 524 681 q 521 522 522 603 q 519 370 519 453 q 519 208 519 288 q 519 12 519 104 q 521 -151 519 -81 q 524 -304 522 -235 l 342 -304 q 343 -187 342 -251 q 344 -63 343 -135 q 344 89 344 8 q 311 54 326 69 q 283 26 297 40 q 263 6 269 13 q 185 -7 233 -7 q 138 0 163 -7 q 94 33 114 7 q 60 110 74 60 q 47 249 47 161 q 49 342 47 301 q 53 416 50 382 q 61 483 57 450 q 72 553 65 515 q 115 588 89 568 q 166 625 140 607 q 216 658 192 643 q 256 681 240 674 q 279 683 267 682 q 303 685 290 685 q 331 686 317 686 q 381 683 357 686 q 422 675 404 679 q 460 665 443 669 l 524 681 m 344 531 q 281 547 319 547 q 235 539 256 547 q 228 486 231 517 q 223 420 225 460 q 221 329 221 381 q 224 262 221 296 q 235 201 226 228 q 261 158 244 175 q 306 142 278 142 q 324 143 314 142 q 344 150 333 144 l 344 531 z "},"r":{"ha":403,"x_min":49,"x_max":396,"o":"m 228 672 l 225 546 q 243 578 233 561 q 262 611 251 593 q 283 649 272 629 q 313 674 293 667 q 354 681 332 681 q 385 675 371 681 q 396 671 390 672 l 358 444 q 289 468 332 468 q 256 463 272 468 q 225 447 239 458 q 225 303 225 381 q 226 158 225 226 q 229 0 228 79 l 49 0 q 50 101 49 46 q 51 210 50 149 q 51 340 51 271 q 51 456 51 397 q 50 563 50 514 q 49 672 49 618 l 228 672 z "},"s":{"ha":439,"x_min":28,"x_max":411,"o":"m 261 450 q 243 489 253 472 q 221 516 233 504 q 192 531 208 528 q 186 494 186 513 q 204 444 186 464 q 263 421 222 424 q 376 374 342 414 q 411 251 411 335 q 408 195 411 224 q 399 143 406 167 q 363 99 386 124 q 312 51 339 74 q 258 10 285 28 q 211 -11 232 -7 q 199 -12 204 -12 q 186 -12 193 -12 q 122 0 149 -12 q 76 32 94 13 q 48 75 58 51 q 32 122 38 99 l 179 218 q 192 178 182 194 q 213 151 199 163 q 251 139 228 139 q 253 159 253 150 q 253 176 253 168 q 238 235 253 219 q 179 253 222 250 q 69 294 111 256 q 28 410 28 332 q 33 472 28 442 q 50 531 39 503 q 85 567 63 544 q 135 613 108 590 q 191 653 163 635 q 242 681 219 672 q 319 667 289 681 q 369 633 350 653 q 395 589 388 613 q 404 546 403 565 l 261 450 l 261 450 z "},"t":{"ha":353,"x_min":-14,"x_max":364,"o":"m 235 811 q 232 756 233 783 q 231 703 231 732 q 231 646 231 674 l 319 646 q 364 647 342 646 l 269 542 l 231 542 q 229 393 229 461 l 229 204 q 272 149 229 149 q 298 153 289 149 q 314 163 307 157 q 325 151 322 160 q 306 122 321 144 q 274 75 292 100 q 240 28 256 50 q 218 0 224 6 q 199 -8 213 -6 q 171 -11 186 -11 q 94 16 126 -11 q 63 97 63 43 q 63 131 63 107 q 63 189 63 156 q 63 261 63 222 q 64 339 64 300 q 67 542 65 431 q 37 541 51 542 q 11 540 22 540 l -14 540 l 67 646 q 66 699 67 674 q 65 743 65 724 l 65 785 l 235 811 l 235 811 z "},"u":{"ha":564,"x_min":49,"x_max":515,"o":"m 225 672 q 224 532 224 604 q 222 394 222 469 q 222 246 222 319 q 243 162 222 185 q 299 139 264 139 q 328 142 317 139 q 336 144 333 143 l 336 333 q 335 433 336 375 q 335 544 335 492 q 333 672 333 607 l 515 672 q 514 563 514 618 q 513 454 513 514 q 513 336 513 394 q 513 208 513 269 q 514 101 513 147 q 515 0 514 46 l 335 0 l 335 25 q 335 52 335 36 q 336 88 336 68 q 313 60 325 75 q 260 3 292 35 q 237 -7 253 -3 q 193 -11 221 -11 q 120 6 149 -11 q 76 51 92 22 q 54 119 60 81 q 49 201 49 157 q 49 302 49 243 q 50 417 50 361 q 49 513 50 467 q 49 594 49 558 l 49 672 l 225 672 z "},"v":{"ha":558,"x_min":49,"x_max":515,"o":"m 231 672 q 229 599 229 636 l 229 444 q 229 337 229 383 q 231 268 229 290 q 252 197 233 225 q 310 169 271 169 q 336 174 325 169 l 336 224 q 337 272 336 246 q 338 326 338 299 q 337 387 338 361 q 336 440 336 413 q 322 494 336 476 q 271 513 307 513 q 263 512 267 513 q 257 511 260 511 q 251 510 253 510 l 389 681 l 397 681 q 456 667 433 681 q 492 632 479 654 q 510 581 506 610 q 515 522 515 553 q 515 331 515 406 q 514 199 514 257 q 463 144 493 174 q 402 85 433 114 q 340 30 371 56 q 289 -11 310 4 q 249 -7 269 -11 q 209 1 231 -4 q 165 18 188 7 q 72 115 94 54 q 49 254 49 175 q 49 328 49 279 q 50 444 50 378 q 49 524 50 483 q 49 597 49 564 l 49 672 l 231 672 z "},"w":{"ha":825,"x_min":49,"x_max":783,"o":"m 226 672 q 224 531 225 601 q 222 400 222 469 q 221 269 221 331 q 245 199 221 228 q 314 171 269 171 q 324 171 318 171 q 336 174 331 171 l 336 218 q 337 267 336 239 q 338 331 338 296 q 337 385 338 364 q 336 421 336 407 l 336 444 q 282 513 336 513 q 250 508 267 513 l 393 681 q 429 674 410 681 q 465 652 449 667 q 493 615 482 638 q 504 558 504 592 l 504 269 q 531 191 504 217 q 599 165 557 165 q 608 165 603 165 q 619 168 614 165 l 619 215 q 620 267 619 238 q 621 333 621 297 q 620 387 621 365 q 619 421 619 408 l 619 444 q 603 497 619 481 q 561 513 586 513 q 533 508 547 513 l 674 681 q 700 676 682 681 q 737 659 718 672 q 769 622 756 646 q 783 557 783 597 q 782 499 782 526 l 782 403 q 783 303 782 349 q 783 225 783 257 q 737 175 769 208 q 666 106 704 142 q 592 36 628 69 q 538 -11 557 3 q 467 1 499 -11 q 413 31 436 14 q 374 69 390 49 q 349 104 358 89 q 321 77 338 93 q 285 44 304 61 q 249 13 267 28 q 219 -11 232 -1 q 166 8 193 -4 q 106 53 139 21 q 61 116 74 82 q 49 201 49 150 q 49 234 49 211 q 49 288 49 257 q 50 356 50 319 q 50 431 50 393 q 49 519 50 475 q 49 597 49 563 l 49 672 l 226 672 z "},"x":{"ha":501,"x_min":7,"x_max":494,"o":"m 310 513 q 330 573 319 543 q 355 626 340 603 q 391 665 369 650 q 443 681 413 681 q 466 679 454 681 q 490 672 478 678 l 458 478 q 437 482 447 481 q 417 483 426 483 q 360 467 382 483 q 322 413 338 451 l 329 329 q 357 213 336 249 q 422 176 378 176 q 458 181 442 176 q 494 197 475 185 l 374 0 q 353 -8 363 -6 q 328 -11 343 -11 q 235 35 275 -11 q 182 158 194 82 q 131 31 164 74 q 56 -11 97 -11 q 32 -9 44 -11 q 7 0 19 -7 l 39 193 q 57 190 49 190 q 74 189 65 189 q 134 205 111 189 q 172 251 157 221 l 163 363 q 135 468 156 438 q 74 499 115 499 q 8 476 39 499 l 121 672 q 143 679 132 678 q 165 681 154 681 q 220 666 196 681 q 263 628 244 651 q 294 574 282 604 q 310 513 306 543 z "},"y":{"ha":557,"x_min":50,"x_max":508,"o":"m 229 672 q 228 535 228 607 q 226 393 226 472 q 226 229 226 314 q 247 165 226 185 q 294 146 268 146 q 335 158 315 146 q 334 363 335 269 q 333 526 333 457 q 332 672 332 607 l 508 672 q 507 565 507 621 l 507 326 l 507 21 q 508 -122 507 -54 q 471 -167 494 -142 q 420 -218 447 -193 q 367 -265 393 -243 q 322 -299 340 -287 q 298 -303 311 -301 q 274 -304 285 -304 q 147 -272 203 -304 q 58 -196 90 -240 l 194 -64 q 214 -90 200 -76 q 246 -116 228 -104 q 286 -136 264 -128 q 332 -144 308 -144 l 332 89 q 306 64 318 76 q 283 40 294 53 q 260 18 271 28 q 181 -11 228 -11 q 137 -4 158 -11 q 99 18 115 3 q 58 91 65 49 q 50 164 50 133 q 51 200 50 181 q 51 246 51 219 q 52 307 51 272 q 53 389 53 342 q 52 489 53 438 q 51 581 51 540 q 50 672 50 628 l 229 672 z "},"z":{"ha":411,"x_min":18,"x_max":393,"o":"m 75 672 l 393 672 q 363 596 378 636 q 332 518 349 561 q 299 431 315 475 q 263 335 279 382 q 233 250 247 288 q 204 167 218 206 q 274 167 240 167 q 333 168 307 167 q 392 171 364 169 l 361 0 l 18 0 q 51 82 33 38 q 86 169 67 119 q 126 278 106 219 q 158 368 143 325 q 183 443 172 411 q 207 513 196 481 q 136 512 169 513 q 79 510 103 511 q 28 508 51 508 l 75 672 z "},"{":{"ha":413,"x_min":28,"x_max":399,"o":"m 399 -119 q 386 -129 393 -125 q 344 -139 371 -139 q 317 -137 329 -139 q 297 -133 306 -136 q 279 -126 288 -131 q 187 -42 233 -94 q 108 64 140 11 q 110 128 108 90 q 112 209 111 160 q 113 328 113 258 q 94 400 113 376 q 28 426 76 424 l 69 565 q 101 567 94 565 q 111 569 107 568 q 113 608 113 593 q 113 647 113 624 q 112 753 113 706 q 110 836 111 801 q 108 908 108 876 q 187 1014 140 961 q 279 1099 233 1067 q 297 1104 288 1101 q 317 1109 306 1107 q 344 1111 329 1111 q 369 1108 360 1111 q 386 1101 379 1104 q 399 1092 393 1096 l 361 913 q 315 935 338 931 q 281 939 293 939 l 275 939 q 272 832 274 889 q 271 717 271 783 q 271 576 271 651 q 245 528 263 549 q 208 493 228 508 q 271 374 271 457 q 271 236 271 299 q 272 129 271 174 q 275 33 274 75 l 281 33 q 315 38 293 33 q 361 60 338 42 l 399 -119 z "},"|":{"ha":256,"x_min":56,"x_max":200,"o":"m 200 1042 q 199 864 199 957 q 197 684 197 785 q 197 479 197 583 q 197 265 197 369 q 199 78 197 161 q 200 -104 199 -19 l 56 -104 q 57 78 56 -19 q 58 265 57 161 q 58 479 58 369 q 58 684 58 583 q 57 864 57 785 q 56 1042 56 957 l 200 1042 z "},"}":{"ha":413,"x_min":14,"x_max":385,"o":"m 14 1092 q 26 1101 19 1096 q 43 1108 33 1104 q 68 1111 53 1111 q 95 1109 83 1111 q 115 1104 107 1107 q 133 1099 125 1101 q 226 1014 179 1067 q 304 908 272 961 q 301 851 303 888 q 300 774 300 821 q 300 658 300 726 q 318 584 300 606 q 385 560 336 563 l 343 421 q 324 419 332 421 q 311 417 317 418 q 301 414 306 415 q 300 376 300 390 q 300 339 300 363 q 300 230 300 281 q 301 143 300 179 q 304 64 303 99 q 226 -42 272 11 q 133 -126 179 -94 q 115 -133 125 -131 q 95 -137 107 -136 q 68 -139 83 -139 q 26 -129 40 -139 q 14 -119 19 -125 l 51 60 q 97 38 75 42 q 132 33 119 33 l 138 33 q 139 147 138 86 q 141 267 140 200 q 142 410 142 335 q 167 458 150 438 q 204 493 185 478 q 142 613 142 529 q 141 747 142 688 q 139 850 140 807 q 138 939 138 900 l 132 939 q 97 935 119 939 q 51 913 75 931 l 14 1092 z "},"~":{"ha":683,"x_min":42,"x_max":642,"o":"m 88 643 q 133 681 101 681 q 163 676 146 681 l 551 574 q 569 569 561 571 q 585 568 578 568 q 642 606 621 568 l 596 475 q 550 438 582 438 q 521 442 538 438 l 132 544 q 114 549 122 547 q 99 550 106 550 q 42 513 63 550 l 88 643 z "},"":{"ha":353,"x_min":56,"x_max":297,"o":"m 88 -311 q 89 -212 88 -267 q 91 -103 90 -167 q 92 36 92 -40 q 91 175 92 111 q 89 285 90 239 q 88 383 88 339 l 260 397 q 257 299 258 353 q 256 189 256 253 q 256 50 256 125 q 256 -90 256 -26 q 257 -199 256 -153 q 260 -297 258 -253 l 88 -311 m 167 443 q 103 501 135 465 q 56 574 72 538 l 186 685 q 233 613 201 650 q 297 554 265 576 l 167 443 z "},"":{"ha":449,"x_min":38,"x_max":428,"o":"m 319 979 q 318 936 318 961 q 317 887 317 915 q 317 824 317 858 q 383 795 354 814 q 428 754 413 776 l 349 600 q 317 635 332 621 l 317 310 q 349 320 336 313 q 369 338 361 328 q 386 361 379 349 q 410 350 403 361 q 395 309 404 333 q 376 260 386 285 q 354 211 365 235 q 335 174 343 188 q 331 169 333 171 q 324 166 328 167 q 318 163 321 165 l 318 54 q 319 14 318 31 l 242 -7 l 242 33 q 242 80 242 53 q 243 140 243 107 q 206 136 224 136 q 75 203 113 136 q 38 383 38 271 q 40 492 38 438 q 47 592 43 547 q 58 692 53 643 q 134 765 86 726 q 243 826 182 803 q 242 879 243 856 q 242 921 242 903 l 242 958 l 319 979 m 200 475 q 206 373 200 411 q 244 321 213 335 l 244 661 q 239 663 242 661 q 233 663 236 663 q 226 664 231 664 q 219 663 221 664 q 214 663 217 663 q 210 661 211 661 q 204 603 207 633 q 201 543 201 576 q 200 475 200 510 z "},"":{"ha":683,"x_min":21,"x_max":663,"o":"m 68 614 q 99 613 82 613 q 131 612 113 613 q 172 611 150 611 q 172 744 172 694 q 171 806 171 793 q 188 822 174 810 q 221 848 201 833 q 264 879 240 863 q 311 911 288 896 q 392 957 358 940 q 446 979 426 974 q 603 935 544 979 q 663 790 663 892 l 474 694 q 475 706 475 701 q 475 718 475 711 q 465 772 475 751 q 441 804 456 793 q 411 819 426 815 q 383 824 396 824 q 373 823 376 824 q 367 822 369 822 q 361 821 363 821 q 360 761 360 794 q 358 694 358 733 q 358 611 358 656 q 415 611 388 611 q 465 613 443 611 q 513 614 490 613 l 467 469 l 435 469 q 400 470 419 469 q 358 471 381 471 q 359 328 358 382 q 360 244 360 275 q 362 201 361 214 q 363 181 363 188 q 352 167 361 176 q 328 146 343 158 l 428 146 q 508 148 469 146 q 579 153 547 150 q 649 160 615 156 l 540 0 l 21 0 l 67 146 q 133 151 111 146 q 171 169 156 157 q 172 303 172 226 q 172 472 172 381 q 115 471 142 471 q 68 471 89 471 q 22 469 43 471 l 68 614 z "},"":{"ha":560,"x_min":29,"x_max":531,"o":"m 72 465 q 83 551 72 514 q 103 606 94 589 q 74 634 86 621 q 51 656 61 647 q 33 674 40 665 l 131 724 q 144 707 138 715 q 160 689 151 700 q 182 665 169 678 l 189 669 q 226 690 211 682 q 251 704 242 699 q 269 713 263 710 q 418 667 364 713 q 445 692 433 681 q 465 711 457 703 q 483 728 475 721 l 531 632 q 515 618 524 625 q 497 602 508 611 q 474 582 486 593 q 486 500 486 544 q 474 412 486 447 q 460 369 463 376 q 436 343 454 360 q 489 294 471 310 q 508 278 500 285 l 411 226 q 397 242 406 233 q 380 259 390 249 q 358 282 369 269 q 319 260 339 271 q 286 249 299 250 q 274 247 279 247 q 267 247 269 247 q 201 256 231 247 q 150 281 172 265 q 120 252 133 265 q 97 231 107 239 q 78 213 86 219 l 29 308 q 46 322 36 314 q 65 339 54 329 q 90 361 75 349 q 72 465 72 406 m 235 585 q 222 561 228 575 q 215 533 218 550 q 211 497 211 517 q 234 412 211 450 q 306 374 257 374 q 313 374 311 374 q 322 375 315 374 q 338 413 331 389 q 344 467 344 438 q 339 510 344 489 q 322 549 333 532 q 292 576 310 565 q 250 586 275 586 l 246 586 q 240 585 243 586 q 235 585 238 585 z "},"":{"ha":546,"x_min":19,"x_max":525,"o":"m 72 372 q 106 371 88 371 q 141 370 121 371 q 185 369 161 369 l 174 411 q 117 410 143 410 q 71 410 90 410 q 26 408 47 410 l 72 553 q 90 551 81 551 l 135 551 l 19 972 l 222 972 l 306 629 l 379 972 l 525 972 l 408 550 q 451 551 432 550 q 485 551 469 551 q 517 553 501 551 l 471 408 l 442 408 q 410 409 428 408 q 371 410 392 410 l 371 369 q 426 369 400 369 q 472 371 453 369 q 517 372 496 371 l 471 228 l 442 228 q 410 228 428 228 q 371 229 392 229 q 372 135 371 176 q 374 63 372 93 q 375 0 375 26 l 181 0 q 182 67 181 31 q 183 140 183 99 q 185 231 183 182 q 124 229 153 229 q 74 229 96 229 q 26 228 49 229 l 72 372 z "},"":{"ha":256,"x_min":56,"x_max":200,"o":"m 56 -104 q 57 47 56 -36 q 58 213 57 118 q 58 417 58 307 l 197 417 q 197 213 197 307 q 199 47 197 118 q 200 -104 199 -36 l 56 -104 m 200 1042 q 199 896 199 975 q 197 737 197 828 q 197 542 197 646 l 58 542 q 57 737 57 646 q 57 896 57 828 q 56 1042 57 975 l 200 1042 z "},"":{"ha":668,"x_min":42,"x_max":626,"o":"m 203 649 q 215 749 204 697 q 249 853 225 800 l 422 979 q 485 973 451 979 q 547 947 518 967 q 595 891 575 928 q 618 793 615 854 l 439 704 q 431 753 436 731 q 414 788 425 772 q 383 806 403 803 q 375 688 375 747 q 388 626 375 644 q 426 596 401 608 q 477 570 447 585 q 525 544 507 556 q 602 462 578 513 q 626 340 626 411 q 620 259 626 297 q 607 192 614 221 q 589 126 599 157 l 463 14 q 443 -110 456 -60 q 428 -161 436 -137 l 271 -301 q 246 -304 256 -304 q 226 -304 236 -304 q 156 -296 189 -304 q 99 -265 124 -287 q 58 -203 74 -243 q 42 -101 43 -164 l 222 -29 q 231 -79 225 -57 q 247 -115 236 -99 q 278 -133 258 -131 q 290 -83 286 -110 q 294 -29 294 -56 q 287 29 294 6 q 264 69 279 53 q 227 98 249 86 q 176 122 206 110 q 118 154 143 136 q 76 199 93 172 q 51 263 60 226 q 42 351 42 300 q 53 456 42 401 q 88 565 64 511 l 203 649 m 338 410 q 272 449 303 425 q 222 517 240 472 q 214 400 214 458 q 227 339 214 357 q 265 308 240 321 q 316 283 286 297 q 364 257 346 268 q 443 169 418 225 q 452 216 450 192 q 454 268 454 240 q 446 321 454 299 q 422 359 438 343 q 384 387 406 375 q 338 410 363 399 z "},"":{"ha":607,"x_min":42,"x_max":565,"o":"m 314 821 q 333 843 324 831 q 353 866 342 854 q 375 892 364 878 l 425 953 l 444 943 q 464 933 453 939 q 489 921 475 928 q 516 908 503 914 q 540 896 529 901 q 565 885 553 890 q 547 865 557 875 q 528 844 539 856 q 507 821 518 833 q 486 798 496 810 q 468 776 476 786 q 450 756 458 765 q 429 765 440 760 q 407 776 419 769 q 382 789 394 782 q 358 801 369 794 q 336 811 346 807 q 314 821 325 817 m 42 821 q 61 843 51 831 q 81 866 69 854 q 103 892 92 878 l 153 953 l 172 943 q 192 933 181 939 q 217 921 203 928 q 244 908 231 914 q 268 896 257 901 q 293 885 281 890 q 275 865 285 875 q 256 844 267 856 q 235 821 246 833 q 214 798 224 810 q 196 776 204 786 q 178 756 186 765 q 157 765 168 760 q 135 776 147 769 q 110 789 122 782 q 85 801 97 794 q 64 811 74 807 q 42 821 53 817 z "},"":{"ha":1028,"x_min":28,"x_max":1000,"o":"m 28 486 q 66 675 28 586 q 170 830 104 764 q 325 934 236 896 q 514 972 414 972 q 703 934 614 972 q 858 830 792 896 q 962 675 924 764 q 1000 486 1000 586 q 962 297 1000 386 q 858 142 924 208 q 703 38 792 76 q 514 0 614 0 q 325 38 414 0 q 170 142 236 76 q 66 297 104 208 q 28 486 28 386 m 97 486 q 130 324 97 400 q 219 192 163 249 q 352 102 276 135 q 514 69 428 69 q 676 102 600 69 q 808 192 751 135 q 898 324 865 249 q 931 486 931 400 q 898 648 931 572 q 808 781 865 724 q 676 870 751 838 q 514 903 600 903 q 352 870 428 903 q 219 781 276 838 q 130 648 163 724 q 97 486 97 572 m 539 604 q 522 648 539 639 q 492 657 504 657 q 488 656 489 657 q 485 656 486 656 l 482 656 q 475 604 478 631 q 470 550 472 581 q 468 486 468 519 q 468 460 468 472 q 469 433 468 447 q 483 369 472 392 q 509 337 494 347 q 539 325 524 326 q 565 324 554 324 q 603 332 589 324 q 626 350 617 340 q 632 347 628 350 q 636 343 636 344 q 630 332 635 340 q 619 312 625 324 q 605 288 613 300 q 590 267 597 276 q 557 240 575 246 q 511 235 539 235 q 410 288 444 235 q 380 365 386 324 q 374 458 374 406 q 376 518 374 488 q 383 576 379 549 q 391 622 388 603 q 396 644 394 640 q 418 667 399 650 q 461 700 438 683 q 532 735 511 735 q 574 730 554 735 q 613 704 594 725 q 631 669 628 688 q 633 644 633 651 l 633 640 l 539 593 l 539 604 z "},"":{"ha":379,"x_min":42,"x_max":338,"o":"m 246 976 q 264 874 254 926 q 282 772 272 828 q 301 663 292 717 q 314 597 308 629 q 325 540 319 565 q 338 486 331 511 l 235 482 q 228 531 232 506 q 220 576 225 551 q 213 621 215 600 l 138 621 q 132 576 135 600 q 126 532 129 551 q 121 486 124 508 l 42 482 q 53 535 47 506 q 65 592 58 560 q 78 663 71 625 q 96 770 86 715 q 113 869 106 825 q 129 972 121 922 l 246 976 m 147 690 l 203 690 l 174 858 l 147 690 z "},"":{"ha":667,"x_min":49,"x_max":611,"o":"m 49 417 q 118 460 85 439 q 184 503 151 482 q 250 548 217 525 q 319 597 283 571 l 319 431 q 167 347 236 392 q 319 264 236 303 l 319 97 q 250 147 283 124 q 184 191 217 169 q 118 234 151 213 q 49 278 85 256 l 49 417 m 340 417 q 410 460 376 439 q 476 503 443 482 q 542 548 508 525 q 611 597 575 571 l 611 431 q 458 347 528 392 q 611 264 528 303 l 611 97 q 542 147 575 124 q 476 191 508 169 q 410 234 443 213 q 340 278 376 256 l 340 417 z "},"":{"ha":621,"x_min":25,"x_max":569,"o":"m 74 518 q 172 517 119 517 q 272 515 217 515 q 386 515 328 515 l 567 515 q 567 396 567 453 q 568 294 567 339 q 569 200 568 243 l 417 200 q 418 250 418 222 q 418 306 418 274 q 419 376 418 339 l 338 376 q 224 376 279 376 q 124 375 168 375 q 25 374 71 374 l 74 518 l 74 518 z "},"":{"ha":1028,"x_min":28,"x_max":1000,"o":"m 28 486 q 66 675 28 586 q 170 830 104 764 q 325 934 236 896 q 514 972 414 972 q 703 934 614 972 q 858 830 792 896 q 962 675 924 764 q 1000 486 1000 586 q 962 297 1000 386 q 858 142 924 208 q 703 38 792 76 q 514 0 614 0 q 325 38 414 0 q 170 142 236 76 q 66 297 104 208 q 28 486 28 386 m 97 486 q 130 324 97 400 q 219 192 163 249 q 352 102 276 135 q 514 69 428 69 q 676 102 600 69 q 808 192 751 135 q 898 324 865 249 q 931 486 931 400 q 898 648 931 572 q 808 781 865 724 q 676 870 751 838 q 514 903 600 903 q 352 870 428 903 q 219 781 276 838 q 130 648 163 724 q 97 486 97 572 m 394 728 q 426 729 408 728 q 463 730 442 729 q 507 731 483 731 q 559 726 536 731 q 597 711 582 722 q 630 676 615 700 q 644 621 644 653 q 622 544 644 575 q 575 500 600 514 q 586 463 581 483 q 599 422 592 444 q 617 372 607 399 q 633 329 624 351 q 650 288 643 307 q 667 244 658 265 l 560 238 l 492 443 l 492 351 l 492 276 q 493 242 492 258 l 394 242 l 394 315 q 395 393 394 349 q 396 486 396 438 q 395 573 396 531 q 394 650 394 615 l 394 728 m 492 500 q 500 501 494 500 q 509 503 504 503 q 521 507 514 504 q 539 530 528 510 q 550 582 550 550 q 533 642 550 629 q 500 654 515 654 q 492 653 494 654 l 492 500 z "},"":{"ha":556,"x_min":35,"x_max":521,"o":"m 81 892 q 144 890 108 890 q 216 889 175 889 q 308 889 257 889 q 394 889 356 889 q 461 890 433 889 q 521 892 494 890 l 475 761 q 413 763 449 761 q 340 763 382 763 q 247 764 299 764 q 161 763 200 764 q 94 763 122 763 q 35 761 61 761 l 81 892 l 81 892 z "},"":{"ha":410,"x_min":31,"x_max":385,"o":"m 47 889 q 68 906 54 894 q 122 940 82 917 q 179 971 161 963 l 196 979 q 285 965 249 979 q 343 924 321 950 q 375 860 365 897 q 385 781 385 824 q 378 706 385 738 q 368 667 371 674 q 357 654 365 663 q 337 636 349 646 q 313 617 325 626 q 292 603 300 608 q 250 575 274 590 q 211 557 226 560 q 200 556 204 556 q 193 556 196 556 q 116 571 147 556 q 66 613 85 586 q 39 676 47 640 q 31 754 31 713 q 38 843 31 804 q 47 889 44 882 m 164 863 q 158 843 161 854 q 154 820 156 833 q 153 789 153 807 q 156 750 153 771 q 167 712 158 729 q 190 683 175 694 q 228 671 204 671 q 243 672 236 671 q 251 706 247 685 q 256 756 256 728 q 252 796 256 776 q 240 831 249 815 q 215 855 231 846 q 178 864 200 864 l 174 864 q 169 863 171 864 q 164 863 167 863 z "},"":{"ha":576,"x_min":39,"x_max":538,"o":"m 89 142 q 154 140 118 140 q 228 139 186 139 q 321 139 269 139 q 408 139 368 139 q 476 140 447 139 q 538 142 511 140 l 488 -3 q 422 -1 458 -3 q 349 -1 390 -1 q 256 0 307 0 q 169 -1 208 0 q 100 -1 129 -1 q 39 -3 65 -3 l 89 142 m 89 508 q 121 507 103 507 q 160 506 136 506 q 215 506 183 506 q 215 567 215 538 q 213 619 214 596 q 211 672 211 646 l 364 672 q 361 619 363 646 q 360 567 360 596 q 360 506 360 538 q 433 506 400 506 q 489 507 465 506 q 538 508 515 507 l 488 364 q 456 365 474 365 q 416 365 440 365 q 360 367 392 365 q 360 305 360 335 q 361 251 360 275 q 364 200 363 224 l 211 200 q 213 251 211 224 q 215 305 214 275 q 215 367 215 335 q 142 365 175 365 q 86 365 110 365 q 39 364 60 365 l 89 508 z "},"":{"ha":306,"x_min":42,"x_max":268,"o":"m 42 886 q 58 911 50 899 q 72 932 65 922 q 85 949 79 942 q 112 970 96 961 q 156 979 128 979 q 207 967 182 979 q 243 919 232 956 q 256 854 254 888 q 258 789 258 821 q 253 717 258 749 q 240 657 247 685 q 197 608 221 632 q 150 564 174 585 l 171 564 q 190 564 179 564 q 210 565 200 564 q 231 568 221 565 q 250 574 242 571 q 268 581 260 578 l 253 486 l 49 486 l 54 561 q 117 597 85 568 q 156 676 149 626 q 159 714 158 699 q 160 746 160 729 q 156 822 160 786 q 134 881 151 867 q 96 896 117 896 q 70 891 81 896 q 51 878 60 886 q 42 886 42 878 z "},"":{"ha":283,"x_min":43,"x_max":254,"o":"m 51 894 q 69 919 61 908 q 84 938 76 929 q 96 953 92 947 q 125 974 108 968 q 161 979 142 979 q 188 976 174 979 q 215 963 203 972 q 235 937 228 954 q 243 890 243 919 q 236 853 243 869 q 219 825 229 838 q 197 804 208 813 q 175 790 185 796 q 216 772 194 786 q 246 732 238 758 q 253 703 251 717 q 254 668 254 689 q 250 608 254 638 q 240 563 246 579 q 194 525 224 546 q 146 490 165 504 q 100 479 125 479 q 69 483 85 479 q 47 496 54 488 l 56 575 q 121 554 85 554 q 140 556 131 554 q 157 563 150 558 q 161 590 160 574 q 163 624 163 607 q 149 686 163 661 q 94 711 136 711 q 53 701 74 711 q 47 706 50 701 q 43 713 43 710 q 65 740 54 726 q 85 764 75 751 q 101 783 94 776 q 125 792 111 789 l 139 794 q 145 817 143 806 q 147 849 147 829 q 134 888 147 876 q 101 900 121 900 q 76 894 85 900 q 63 883 68 889 q 55 888 58 883 q 51 894 51 892 z "},"":{"ha":390,"x_min":35,"x_max":356,"o":"m 79 904 q 117 913 96 907 q 159 923 135 917 q 214 938 183 929 q 270 953 244 946 q 315 967 296 960 q 356 979 338 972 l 311 825 q 281 817 299 822 q 242 807 265 813 q 189 793 219 801 q 82 763 125 775 q 35 749 57 756 l 79 904 z "},"":{"ha":567,"x_min":49,"x_max":518,"o":"m 228 672 q 226 561 226 625 q 225 427 225 507 q 225 243 225 347 q 234 188 225 208 q 256 157 243 168 q 283 142 268 146 q 311 139 299 139 q 332 142 324 139 q 339 144 336 143 l 339 243 q 338 427 339 347 q 338 561 338 507 q 336 672 336 625 l 518 672 q 517 563 517 618 q 515 454 515 514 q 515 336 515 394 q 515 208 515 269 q 517 101 515 147 q 518 0 517 46 l 338 0 l 338 24 q 338 49 338 35 q 339 83 339 64 q 272 13 296 31 q 232 -6 249 -6 q 194 10 214 -6 q 164 42 174 25 q 183 -4 172 15 q 204 -39 194 -24 q 220 -67 214 -54 q 226 -90 226 -79 q 226 -150 226 -112 q 228 -224 226 -187 q 229 -312 228 -267 l 49 -312 q 50 -153 49 -237 q 51 11 50 -81 q 51 201 51 103 q 51 390 51 304 q 50 539 50 476 q 49 672 49 613 l 228 672 z "},"":{"ha":751,"x_min":35,"x_max":744,"o":"m 511 -304 q 513 -90 511 -200 q 513 117 513 4 q 514 333 514 229 q 514 465 514 397 q 513 599 514 533 q 513 724 513 664 q 513 833 513 785 l 468 833 q 467 724 468 785 q 467 599 467 664 q 467 465 467 533 q 467 333 467 397 q 467 117 467 229 q 468 -90 467 4 q 469 -304 468 -200 l 325 -304 q 326 -90 325 -200 q 327 117 326 4 q 328 333 328 229 l 328 492 q 297 458 313 474 q 270 431 285 444 q 246 410 256 417 q 214 399 233 403 q 175 394 194 394 q 121 403 146 394 q 76 435 96 411 q 46 504 57 460 q 35 621 35 549 q 41 752 35 696 q 50 826 47 808 q 91 863 65 842 q 146 907 117 883 q 194 942 176 931 q 238 969 211 954 q 277 972 257 972 q 319 972 297 972 l 744 972 l 714 831 q 694 832 704 831 q 676 833 686 832 q 654 833 665 833 q 653 597 653 724 q 653 333 653 469 q 653 117 653 229 q 654 -90 653 4 q 656 -304 654 -200 l 511 -304 m 329 833 q 272 833 294 833 q 236 831 250 832 q 210 829 221 829 q 199 767 204 813 q 193 675 193 721 q 196 625 193 650 q 207 580 199 600 q 230 547 215 560 q 268 533 244 533 q 295 537 281 533 q 328 550 310 540 l 329 833 z "},"":{"ha":325,"x_min":42,"x_max":283,"o":"m 153 365 q 90 424 121 388 q 42 496 58 460 l 172 607 q 219 535 188 572 q 283 476 251 499 l 153 365 z "},"":{"ha":253,"x_min":28,"x_max":228,"o":"m 150 -62 q 206 -90 183 -65 q 228 -158 228 -114 q 215 -217 228 -186 q 172 -256 197 -233 q 132 -290 146 -279 q 88 -300 113 -300 q 57 -296 72 -300 q 35 -283 42 -292 l 43 -210 q 71 -226 57 -221 q 107 -231 85 -231 q 149 -221 132 -231 q 150 -204 150 -215 q 133 -160 150 -179 q 82 -140 117 -140 q 58 -143 68 -140 q 35 -151 49 -146 q 28 -142 28 -149 q 38 -122 31 -136 q 53 -89 44 -107 q 69 -53 61 -71 q 83 -22 78 -35 q 97 9 89 -8 q 111 43 104 26 q 126 82 118 61 l 215 89 q 203 61 208 76 q 190 34 197 49 q 178 6 183 19 q 165 -24 172 -6 q 150 -62 157 -43 z "},"":{"ha":242,"x_min":69,"x_max":172,"o":"m 172 979 q 171 906 171 944 q 169 830 169 872 q 169 744 169 788 q 169 649 169 696 q 171 567 169 603 q 172 486 171 524 l 69 486 q 71 567 69 524 q 72 649 71 603 q 72 744 72 696 q 72 827 72 786 q 71 900 71 868 q 69 972 69 938 l 172 979 l 172 979 z "},"":{"ha":379,"x_min":42,"x_max":338,"o":"m 65 894 q 83 910 74 901 q 102 925 92 917 q 124 942 113 933 q 144 956 135 949 q 160 967 153 963 q 175 975 168 972 q 200 978 189 978 q 289 939 251 978 q 323 880 308 917 q 338 776 338 843 q 333 690 338 728 q 325 624 329 651 q 313 567 319 592 q 292 544 306 557 q 263 519 278 532 q 233 496 247 507 q 210 481 218 485 q 186 479 204 479 q 117 497 144 479 q 72 542 89 514 q 49 608 56 571 q 42 686 42 646 q 45 760 42 724 q 53 828 49 797 q 65 894 58 863 m 151 888 q 144 843 147 868 q 140 789 142 821 q 138 713 138 757 q 158 605 138 639 q 213 571 179 571 q 222 572 218 571 q 229 574 225 572 q 235 617 232 593 q 240 664 238 636 q 242 724 242 692 q 239 784 242 754 q 226 837 236 814 q 199 874 217 860 q 151 888 182 888 z "},"":{"ha":667,"x_min":56,"x_max":618,"o":"m 618 278 q 549 234 582 256 q 483 191 515 213 q 417 147 450 169 q 347 97 383 124 l 347 264 q 500 347 431 303 q 347 431 431 392 l 347 597 q 417 548 383 571 q 483 503 450 525 q 549 460 515 482 q 618 417 582 439 l 618 278 m 326 278 q 257 234 290 256 q 191 191 224 213 q 125 147 158 169 q 56 97 92 124 l 56 264 q 208 347 139 303 q 56 431 139 392 l 56 597 q 125 548 92 571 q 191 503 158 525 q 257 460 224 482 q 326 417 290 439 l 326 278 z "},"":{"ha":858,"x_min":99,"x_max":793,"o":"m 678 1049 q 608 889 644 975 q 537 720 576 815 q 453 521 497 625 q 366 311 408 417 q 290 121 324 206 q 215 -69 251 22 l 104 -76 q 190 118 146 17 q 272 310 228 204 q 360 521 317 417 q 440 719 401 625 q 507 885 478 813 q 569 1042 542 969 l 678 1049 m 201 979 q 200 906 200 944 q 199 830 199 872 q 199 744 199 788 q 199 649 199 696 q 200 567 199 603 q 201 486 200 524 l 99 486 q 100 567 99 524 q 101 649 100 603 q 101 744 101 696 q 101 827 101 786 q 100 900 100 868 q 99 972 99 938 l 201 979 m 515 224 q 533 261 524 240 q 552 300 542 278 q 574 346 563 322 q 596 395 585 371 q 615 439 607 419 q 633 482 625 461 l 733 486 q 732 403 732 446 l 732 232 l 774 232 q 793 233 783 232 l 767 149 l 732 149 l 732 44 q 733 0 732 19 l 632 0 l 632 44 q 633 92 632 65 q 633 149 633 118 l 515 149 l 515 224 m 564 233 q 582 232 571 232 l 633 232 l 633 253 q 634 274 633 263 q 635 299 635 285 q 634 330 635 314 q 633 358 633 346 l 633 386 l 564 233 z "},"":{"ha":856,"x_min":99,"x_max":772,"o":"m 678 1049 q 608 889 644 975 q 537 720 576 815 q 453 521 497 625 q 366 311 408 417 q 290 121 324 206 q 215 -69 251 22 l 104 -76 q 190 118 146 17 q 272 310 228 204 q 360 521 317 417 q 440 719 401 625 q 507 885 478 813 q 569 1042 542 969 l 678 1049 m 201 979 q 200 906 200 944 q 199 830 199 872 q 199 744 199 788 q 199 649 199 696 q 200 567 199 603 q 201 486 200 524 l 99 486 q 100 567 99 524 q 101 649 100 603 q 101 744 101 696 q 101 827 101 786 q 100 900 100 868 q 99 972 99 938 l 201 979 m 546 400 q 563 425 554 413 q 576 446 569 436 q 589 463 583 456 q 616 484 600 475 q 660 493 632 493 q 711 481 686 493 q 747 433 736 469 q 760 368 758 401 q 763 303 763 335 q 757 231 763 263 q 744 171 751 199 q 701 122 725 146 q 654 78 678 99 l 675 78 q 694 78 683 78 q 714 79 704 78 q 735 82 725 79 q 754 88 746 85 q 772 94 764 92 l 757 0 l 553 0 l 558 75 q 621 111 589 82 q 660 190 653 140 q 663 228 663 213 q 664 260 664 243 q 660 336 664 300 q 638 395 656 381 q 600 410 621 410 q 574 405 585 410 q 556 392 564 400 q 546 400 546 392 z "},"":{"ha":942,"x_min":101,"x_max":878,"o":"m 761 1049 q 692 889 728 975 q 620 720 660 815 q 536 521 581 625 q 449 311 492 417 q 374 121 407 206 q 299 -69 335 22 l 188 -76 q 274 118 229 17 q 356 310 311 204 q 443 521 400 417 q 523 719 485 625 q 590 885 561 813 q 653 1042 625 969 l 761 1049 m 600 224 q 618 261 608 240 q 637 300 626 278 q 658 346 647 322 q 681 395 669 371 q 700 439 692 419 q 718 482 710 461 l 818 486 q 817 403 817 446 l 817 232 l 858 232 q 878 233 868 232 l 851 149 l 817 149 l 817 44 q 818 0 817 19 l 717 0 l 717 44 q 717 92 717 65 q 718 149 718 118 l 600 149 l 600 224 m 649 233 q 667 232 656 232 l 718 232 l 718 253 q 719 274 718 263 q 719 299 719 285 q 719 330 719 314 q 718 358 718 346 l 718 386 l 649 233 m 110 894 q 128 919 119 908 q 142 938 135 929 q 154 953 150 947 q 183 974 167 968 q 219 979 200 979 q 247 976 232 979 q 274 963 261 972 q 294 937 286 954 q 301 890 301 919 q 294 853 301 869 q 277 825 288 838 q 255 804 267 813 q 233 790 243 796 q 274 772 253 786 q 304 732 296 758 q 311 703 310 717 q 313 668 313 689 q 308 608 313 638 q 299 563 304 579 q 253 525 282 546 q 204 490 224 504 q 158 479 183 479 q 128 483 143 479 q 106 496 113 488 l 114 575 q 179 554 143 554 q 199 556 189 554 q 215 563 208 558 q 219 590 218 574 q 221 624 221 607 q 208 686 221 661 q 153 711 194 711 q 111 701 132 711 q 105 706 108 701 q 101 713 101 710 q 124 740 113 726 q 143 764 133 751 q 160 783 153 776 q 183 792 169 789 l 197 794 q 203 817 201 806 q 206 849 206 829 q 192 888 206 876 q 160 900 179 900 q 135 894 143 900 q 121 883 126 889 q 113 888 117 883 q 110 894 110 892 z "},"":{"ha":503,"x_min":50,"x_max":454,"o":"m 324 450 q 260 508 292 472 q 213 581 229 544 l 343 692 q 390 620 358 657 q 454 561 422 583 l 324 450 m 63 -181 q 53 -120 56 -153 q 50 -51 50 -87 q 57 67 50 10 q 74 157 64 124 q 111 194 90 174 q 154 233 132 214 q 198 271 176 253 q 239 303 219 289 q 257 313 246 308 q 256 343 256 329 q 256 368 256 357 q 254 390 256 381 l 424 404 q 421 314 422 360 q 419 229 419 275 q 419 144 419 183 q 338 176 375 169 q 281 183 301 183 q 215 168 242 183 q 208 122 211 150 q 204 36 204 94 q 238 -98 204 -51 q 343 -144 272 -144 q 393 -137 372 -144 q 438 -118 414 -131 q 453 -135 451 -124 q 403 -194 426 -167 q 361 -244 382 -218 q 325 -285 340 -269 q 283 -300 308 -296 q 235 -304 257 -304 q 124 -269 171 -304 q 63 -181 76 -235 z "},"":{"ha":600,"x_min":7,"x_max":593,"o":"m 415 979 q 450 774 432 879 q 485 573 465 682 q 524 357 504 464 q 548 228 536 290 q 571 117 560 165 q 593 7 582 60 l 394 -7 q 379 92 386 42 q 365 184 372 135 q 350 275 357 233 l 197 275 q 185 186 190 233 q 174 99 179 139 q 163 7 168 53 l 7 -7 q 29 101 17 43 q 52 217 40 151 q 78 357 64 282 q 114 569 96 461 q 147 768 132 678 q 181 972 164 874 l 415 979 m 271 747 l 218 414 l 331 414 l 271 747 m 438 1021 q 390 1035 415 1028 q 341 1049 368 1042 q 283 1065 314 1057 q 230 1079 253 1074 q 192 1089 207 1085 q 161 1097 174 1094 l 117 1251 q 157 1239 135 1244 q 202 1225 176 1232 q 258 1210 228 1218 q 313 1195 289 1201 q 356 1185 338 1189 q 393 1176 376 1179 l 438 1021 z "},"":{"ha":600,"x_min":7,"x_max":593,"o":"m 415 979 q 450 774 432 879 q 485 573 465 682 q 524 357 504 464 q 548 228 536 290 q 571 117 560 165 q 593 7 582 60 l 394 -7 q 379 92 386 42 q 365 184 372 135 q 350 275 357 233 l 197 275 q 185 186 190 233 q 174 99 179 139 q 163 7 168 53 l 7 -7 q 29 101 17 43 q 52 217 40 151 q 78 357 64 282 q 114 569 96 461 q 147 768 132 678 q 181 972 164 874 l 415 979 m 271 747 l 218 414 l 331 414 l 271 747 m 194 1176 q 232 1185 211 1179 q 274 1195 250 1189 q 329 1210 299 1201 q 385 1225 360 1218 q 431 1239 411 1232 q 471 1251 453 1244 l 426 1097 q 396 1089 414 1094 q 358 1079 381 1085 q 304 1065 335 1074 q 197 1035 240 1047 q 150 1021 172 1028 l 194 1176 z "},"":{"ha":600,"x_min":7,"x_max":593,"o":"m 415 979 q 450 774 432 879 q 485 573 465 682 q 524 357 504 464 q 548 228 536 290 q 571 117 560 165 q 593 7 582 60 l 394 -7 q 379 92 386 42 q 365 184 372 135 q 350 275 357 233 l 197 275 q 185 186 190 233 q 174 99 179 139 q 163 7 168 53 l 7 -7 q 29 101 17 43 q 52 217 40 151 q 78 357 64 282 q 114 569 96 461 q 147 768 132 678 q 181 972 164 874 l 415 979 m 271 747 l 218 414 l 331 414 l 271 747 m 372 1021 q 323 1106 347 1067 q 275 1181 299 1146 q 229 1107 249 1142 q 188 1028 210 1072 l 61 1021 q 132 1126 100 1076 q 200 1236 164 1176 l 408 1236 q 473 1135 442 1182 q 547 1028 504 1088 l 372 1021 z "},"":{"ha":600,"x_min":7,"x_max":593,"o":"m 415 979 q 450 774 432 879 q 485 573 465 682 q 524 357 504 464 q 548 228 536 290 q 571 117 560 165 q 593 7 582 60 l 394 -7 q 379 92 386 42 q 365 184 372 135 q 350 275 357 233 l 197 275 q 185 186 190 233 q 174 99 179 139 q 163 7 168 53 l 7 -7 q 29 101 17 43 q 52 217 40 151 q 78 357 64 282 q 114 569 96 461 q 147 768 132 678 q 181 972 164 874 l 415 979 m 271 747 l 218 414 l 331 414 l 271 747 m 114 1192 q 160 1229 128 1229 q 189 1225 172 1229 l 446 1157 q 464 1153 456 1154 q 479 1151 472 1151 q 536 1189 515 1151 l 490 1058 q 444 1021 476 1021 q 415 1025 432 1021 l 158 1093 q 142 1097 150 1096 q 125 1099 133 1099 q 68 1061 89 1099 l 114 1192 z "},"":{"ha":600,"x_min":7,"x_max":593,"o":"m 415 979 q 450 774 432 879 q 485 573 465 682 q 524 357 504 464 q 548 228 536 290 q 571 117 560 165 q 593 7 582 60 l 394 -7 q 379 92 386 42 q 365 184 372 135 q 350 275 357 233 l 197 275 q 185 186 190 233 q 174 99 179 139 q 163 7 168 53 l 7 -7 q 29 101 17 43 q 52 217 40 151 q 78 357 64 282 q 114 569 96 461 q 147 768 132 678 q 181 972 164 874 l 415 979 m 271 747 l 218 414 l 331 414 l 271 747 m 307 1086 q 326 1108 317 1096 q 346 1131 335 1119 q 368 1157 357 1143 l 418 1218 l 438 1208 q 457 1199 446 1204 q 482 1186 468 1193 q 509 1173 496 1179 q 533 1161 522 1167 q 558 1150 546 1156 q 540 1131 550 1140 q 522 1110 532 1121 q 500 1086 511 1099 q 479 1063 489 1075 q 461 1042 469 1051 q 443 1021 451 1031 q 422 1031 433 1025 q 400 1041 413 1035 q 375 1054 388 1047 q 351 1066 363 1060 q 329 1076 339 1072 q 307 1086 318 1082 m 35 1086 q 54 1108 44 1096 q 74 1131 63 1119 q 96 1157 85 1143 l 146 1218 l 165 1208 q 185 1199 174 1204 q 210 1186 196 1193 q 237 1173 224 1179 q 261 1161 250 1167 q 286 1150 274 1156 q 268 1131 278 1140 q 249 1110 260 1121 q 228 1086 239 1099 q 207 1063 217 1075 q 189 1042 197 1051 q 171 1021 179 1031 q 150 1031 161 1025 q 128 1041 140 1035 q 103 1054 115 1047 q 78 1066 90 1060 q 57 1076 67 1072 q 35 1086 46 1082 z "},"":{"ha":600,"x_min":7,"x_max":593,"o":"m 415 979 q 450 774 432 879 q 485 573 465 682 q 524 357 504 464 q 548 228 536 290 q 571 117 560 165 q 593 7 582 60 l 394 -7 q 379 92 386 42 q 365 184 372 135 q 350 275 357 233 l 197 275 q 185 186 190 233 q 174 99 179 139 q 163 7 168 53 l 7 -7 q 29 101 17 43 q 52 217 40 151 q 78 357 64 282 q 114 569 96 461 q 147 768 132 678 q 181 972 164 874 l 415 979 m 271 747 l 218 414 l 331 414 l 271 747 m 188 1126 q 265 1242 188 1201 q 296 1250 279 1250 q 356 1229 331 1250 q 394 1146 394 1194 q 378 1085 394 1111 q 329 1035 361 1058 q 286 1021 308 1021 q 217 1051 246 1021 q 188 1126 188 1081 m 306 1074 q 331 1078 328 1074 q 339 1097 335 1085 q 343 1125 343 1110 q 322 1181 343 1160 q 272 1201 300 1201 q 256 1197 260 1201 q 245 1178 249 1190 q 242 1150 242 1165 q 259 1094 242 1115 q 306 1074 276 1074 z "},"":{"ha":704,"x_min":7,"x_max":690,"o":"m 682 972 l 592 824 q 550 825 572 824 q 507 826 531 825 q 456 826 483 826 l 456 569 q 531 569 494 569 q 597 571 568 569 q 661 572 632 571 l 585 428 q 546 429 567 428 q 505 430 528 429 q 456 431 482 431 l 456 146 q 542 146 500 146 q 617 147 583 146 q 690 149 656 147 l 613 0 l 269 0 q 271 79 271 35 q 271 167 271 117 q 272 275 271 217 l 197 275 q 185 185 190 233 q 174 97 179 138 q 163 4 168 50 l 7 -7 q 29 101 17 43 q 52 217 40 151 q 78 357 64 282 q 114 569 96 461 q 147 768 132 678 q 181 972 164 874 l 682 972 m 274 486 q 274 626 274 557 q 272 754 274 694 l 218 414 l 274 414 l 274 486 z "},"":{"ha":585,"x_min":42,"x_max":564,"o":"m 349 -62 q 404 -90 382 -65 q 426 -158 426 -114 q 414 -217 426 -186 q 370 -256 396 -233 q 331 -290 344 -279 q 286 -300 311 -300 q 256 -296 271 -300 q 233 -283 240 -292 l 242 -210 q 269 -226 256 -221 q 306 -231 283 -231 q 347 -221 331 -231 q 349 -204 349 -215 q 332 -160 349 -179 q 281 -140 315 -140 q 257 -143 267 -140 q 233 -151 247 -146 q 226 -142 226 -149 q 236 -122 229 -136 q 252 -88 243 -107 q 269 -49 261 -69 q 285 -14 278 -29 q 186 19 231 -7 q 114 89 142 44 q 55 242 68 160 q 42 429 42 325 q 47 548 42 486 q 60 663 53 610 q 76 753 68 717 q 86 799 83 790 q 99 816 88 804 q 129 843 111 828 q 169 876 147 858 q 215 911 192 894 q 299 962 263 944 q 357 979 336 979 q 441 969 400 979 q 518 918 482 960 q 540 883 532 901 q 553 849 549 865 q 558 819 557 832 q 558 799 558 806 l 558 790 l 369 696 q 371 709 371 703 q 371 719 371 715 q 360 775 371 754 q 335 806 350 796 q 305 820 321 817 q 276 824 289 824 q 269 823 272 824 q 263 822 265 822 l 258 822 q 243 721 249 776 q 233 613 238 674 q 229 483 229 551 q 229 431 229 457 q 232 379 229 406 q 260 253 238 297 q 313 188 283 208 q 372 165 342 168 q 424 161 403 161 q 497 177 468 161 q 544 213 525 193 q 555 208 546 214 q 563 200 564 203 q 551 178 560 196 q 528 138 542 161 q 501 90 515 115 q 472 47 486 65 q 425 3 450 17 q 368 -14 400 -10 q 357 -38 363 -25 q 349 -62 351 -51 z "},"":{"ha":490,"x_min":56,"x_max":476,"o":"m 468 972 l 378 824 q 338 825 360 824 q 294 826 318 825 q 243 826 271 826 l 243 569 q 318 569 282 569 q 383 571 354 569 q 447 572 417 571 l 371 428 q 333 429 354 428 q 292 430 315 429 q 243 431 269 431 l 243 146 q 328 146 288 146 q 403 147 369 146 q 476 149 440 147 l 399 0 l 56 0 q 57 153 56 72 q 59 308 58 222 q 60 486 60 394 q 59 665 60 578 q 57 821 58 753 q 56 972 56 900 l 468 972 m 396 1021 q 349 1035 374 1028 q 299 1049 326 1042 q 242 1065 272 1057 q 188 1079 211 1074 q 150 1089 165 1085 q 119 1097 132 1094 l 75 1251 q 115 1239 93 1244 q 160 1225 135 1232 q 217 1210 186 1218 q 272 1195 247 1201 q 314 1185 296 1189 q 351 1176 335 1179 l 396 1021 z "},"":{"ha":490,"x_min":56,"x_max":476,"o":"m 468 972 l 378 824 q 338 825 360 824 q 294 826 318 825 q 243 826 271 826 l 243 569 q 318 569 282 569 q 383 571 354 569 q 447 572 417 571 l 371 428 q 333 429 354 428 q 292 430 315 429 q 243 431 269 431 l 243 146 q 328 146 288 146 q 403 147 369 146 q 476 149 440 147 l 399 0 l 56 0 q 57 153 56 72 q 59 308 58 222 q 60 486 60 394 q 59 665 60 578 q 57 821 58 753 q 56 972 56 900 l 468 972 m 150 1176 q 188 1185 167 1179 q 230 1195 206 1189 q 285 1210 254 1201 q 341 1225 315 1218 q 386 1239 367 1232 q 426 1251 408 1244 l 382 1097 q 351 1089 369 1094 q 313 1079 336 1085 q 260 1065 290 1074 q 153 1035 196 1047 q 106 1021 128 1028 l 150 1176 z "},"":{"ha":490,"x_min":7,"x_max":493,"o":"m 318 1021 q 269 1106 293 1067 q 221 1181 244 1146 q 175 1107 194 1142 q 133 1028 156 1072 l 7 1021 q 78 1126 46 1076 q 146 1236 110 1176 l 354 1236 q 419 1135 388 1182 q 493 1028 450 1088 l 318 1021 m 468 972 l 378 824 q 338 825 360 824 q 294 826 318 825 q 243 826 271 826 l 243 569 q 318 569 282 569 q 383 571 354 569 q 447 572 417 571 l 371 428 q 333 429 354 428 q 292 430 315 429 q 243 431 269 431 l 243 146 q 328 146 288 146 q 403 147 369 146 q 476 149 440 147 l 399 0 l 56 0 q 57 153 56 72 q 59 308 58 222 q 60 486 60 394 q 59 665 60 578 q 57 821 58 753 q 56 972 56 900 l 468 972 z "},"":{"ha":490,"x_min":-21,"x_max":503,"o":"m 251 1086 q 271 1108 261 1096 q 290 1131 279 1119 q 313 1157 301 1143 l 363 1218 l 382 1208 q 401 1199 390 1204 q 426 1186 413 1193 q 453 1173 440 1179 q 478 1161 467 1167 q 503 1150 490 1156 q 485 1131 494 1140 q 466 1110 476 1121 q 444 1086 456 1099 q 424 1063 433 1075 q 406 1042 414 1051 q 388 1021 396 1031 q 367 1031 378 1025 q 344 1041 357 1035 q 319 1054 332 1047 q 295 1066 307 1060 q 274 1076 283 1072 q 251 1086 263 1082 m -21 1086 q -1 1108 -11 1096 q 18 1131 7 1119 q 40 1157 29 1143 l 90 1218 l 110 1208 q 129 1199 118 1204 q 154 1186 140 1193 q 181 1173 168 1179 q 206 1161 194 1167 q 231 1150 218 1156 q 213 1131 222 1140 q 194 1110 204 1121 q 172 1086 183 1099 q 151 1063 161 1075 q 133 1042 142 1051 q 115 1021 124 1031 q 94 1031 106 1025 q 72 1041 85 1035 q 47 1054 60 1047 q 23 1066 35 1060 q 1 1076 11 1072 q -21 1086 -10 1082 m 468 972 l 378 824 q 338 825 360 824 q 294 826 318 825 q 243 826 271 826 l 243 569 q 318 569 282 569 q 383 571 354 569 q 447 572 417 571 l 371 428 q 333 429 354 428 q 292 430 315 429 q 243 431 269 431 l 243 146 q 328 146 288 146 q 403 147 369 146 q 476 149 440 147 l 399 0 l 56 0 q 57 153 56 72 q 59 308 58 222 q 60 486 60 394 q 59 665 60 578 q 57 821 58 753 q 56 972 56 900 l 468 972 z "},"":{"ha":303,"x_min":-26,"x_max":294,"o":"m 294 1049 q 247 1063 272 1056 q 198 1077 225 1069 q 140 1093 171 1085 q 87 1107 110 1101 q 49 1117 64 1113 q 18 1125 31 1122 l -26 1279 q 14 1267 -8 1272 q 59 1253 33 1260 q 115 1238 85 1246 q 170 1223 146 1229 q 213 1213 194 1217 q 250 1204 233 1207 l 294 1049 m 247 972 q 244 832 246 907 q 243 685 243 768 q 243 514 243 603 q 243 322 243 414 q 244 158 243 231 q 247 0 246 74 l 56 0 q 57 158 56 74 q 59 322 58 231 q 60 514 60 414 q 59 685 60 603 q 57 832 58 768 q 56 972 56 907 l 247 972 z "},"":{"ha":303,"x_min":-7,"x_max":314,"o":"m 38 1176 q 75 1185 54 1179 q 117 1195 93 1189 q 172 1210 142 1201 q 228 1225 203 1218 q 274 1239 254 1232 q 314 1251 296 1244 l 269 1097 q 239 1089 257 1094 q 201 1079 224 1085 q 147 1065 178 1074 q 40 1035 83 1047 q -7 1021 15 1028 l 38 1176 m 247 972 q 244 832 246 907 q 243 685 243 768 q 243 514 243 603 q 243 322 243 414 q 244 158 243 231 q 247 0 246 74 l 56 0 q 57 158 56 74 q 59 322 58 231 q 60 514 60 414 q 59 685 60 603 q 57 832 58 768 q 56 972 56 907 l 247 972 z "},"":{"ha":303,"x_min":-81,"x_max":406,"o":"m 231 1021 q 181 1106 206 1067 q 133 1181 157 1146 q 88 1107 107 1142 q 46 1028 68 1072 l -81 1021 q -10 1126 -42 1076 q 58 1236 22 1176 l 267 1236 q 331 1135 300 1182 q 406 1028 363 1088 l 231 1021 m 247 972 q 244 832 246 907 q 243 685 243 768 q 243 514 243 603 q 243 322 243 414 q 244 158 243 231 q 247 0 246 74 l 56 0 q 57 158 56 74 q 59 322 58 231 q 60 514 60 414 q 59 685 60 603 q 57 832 58 768 q 56 972 56 907 l 247 972 z "},"":{"ha":303,"x_min":-107,"x_max":417,"o":"m 165 1086 q 185 1108 175 1096 q 204 1131 193 1119 q 226 1157 215 1143 l 276 1218 l 296 1208 q 315 1199 304 1204 q 340 1186 326 1193 q 367 1173 354 1179 q 392 1161 381 1167 q 417 1150 404 1156 q 399 1131 408 1140 q 380 1110 390 1121 q 358 1086 369 1099 q 338 1063 347 1075 q 319 1042 328 1051 q 301 1021 310 1031 q 281 1031 292 1025 q 258 1041 271 1035 q 233 1054 246 1047 q 209 1066 221 1060 q 188 1076 197 1072 q 165 1086 176 1082 m -107 1086 q -87 1108 -97 1096 q -68 1131 -79 1119 q -46 1157 -57 1143 l 4 1218 l 24 1208 q 43 1199 32 1204 q 68 1186 54 1193 q 95 1173 82 1179 q 119 1161 108 1167 q 144 1150 132 1156 q 126 1131 136 1140 q 108 1110 118 1121 q 86 1086 97 1099 q 65 1063 75 1075 q 47 1042 56 1051 q 29 1021 38 1031 q 8 1031 19 1025 q -14 1041 -1 1035 q -39 1054 -26 1047 q -63 1066 -51 1060 q -85 1076 -75 1072 q -107 1086 -96 1082 m 247 972 q 244 832 246 907 q 243 685 243 768 q 243 514 243 603 q 243 322 243 414 q 244 158 243 231 q 247 0 246 74 l 56 0 q 57 158 56 74 q 59 322 58 231 q 60 514 60 414 q 59 685 60 603 q 57 832 58 768 q 56 972 56 907 l 247 972 z "},"":{"ha":675,"x_min":-21,"x_max":626,"o":"m 89 972 q 108 974 89 972 q 158 976 126 975 q 228 978 189 976 q 308 979 268 979 q 390 975 351 979 q 461 958 428 971 q 522 921 494 944 q 571 858 550 897 q 598 790 588 829 q 615 708 608 751 q 624 617 621 664 q 626 522 626 569 q 623 427 626 479 q 615 327 619 375 q 604 242 610 279 q 594 189 599 204 q 578 169 593 186 q 542 130 564 153 q 493 82 519 107 q 442 38 467 57 q 418 21 429 28 q 395 9 407 14 q 367 2 383 4 q 329 0 351 0 l 88 0 q 89 133 88 64 q 90 267 90 193 q 92 417 90 342 q 46 415 67 415 q 10 415 25 415 q -21 414 -7 415 l 25 558 q 43 557 33 557 q 64 556 51 557 q 92 556 76 556 q 90 705 90 631 q 90 839 90 779 q 89 972 90 908 m 279 835 q 278 760 278 803 q 276 672 276 724 q 276 556 276 621 q 320 556 300 556 q 356 557 340 556 q 386 558 372 557 l 340 414 l 322 414 q 303 415 314 414 q 276 415 292 415 q 276 304 276 353 q 278 222 276 256 q 279 156 278 183 q 300 153 289 154 q 323 151 310 151 q 351 150 336 150 q 404 154 385 150 q 424 158 415 156 q 438 298 431 211 q 446 500 446 385 q 440 637 446 575 q 417 742 435 699 q 366 810 399 786 q 279 835 333 835 z "},"":{"ha":688,"x_min":53,"x_max":632,"o":"m 632 972 q 629 819 631 899 q 628 667 628 751 q 628 500 628 583 q 628 313 628 401 q 629 156 628 224 q 632 7 631 76 l 418 -7 q 379 111 400 49 q 340 231 361 164 q 296 367 318 297 q 256 488 275 429 q 222 590 238 546 q 189 690 206 643 q 190 440 189 563 q 193 218 190 317 q 197 0 194 103 l 56 0 q 58 308 57 149 q 59 453 58 376 q 60 613 60 531 q 62 778 61 694 q 63 944 63 863 l 53 972 l 286 972 q 318 874 301 926 q 351 772 333 829 q 389 656 369 715 q 429 534 408 593 q 465 428 450 475 q 501 324 483 372 q 500 573 501 456 q 497 779 499 690 q 493 972 494 883 l 632 972 m 165 1192 q 211 1229 179 1229 q 240 1225 224 1229 l 497 1157 q 515 1153 507 1154 q 531 1151 524 1151 q 588 1189 567 1151 l 542 1058 q 496 1021 528 1021 q 467 1025 483 1021 l 210 1093 q 193 1097 201 1096 q 176 1099 185 1099 q 119 1061 140 1099 l 165 1192 z "},"":{"ha":674,"x_min":42,"x_max":632,"o":"m 88 813 q 124 843 104 828 q 161 874 140 857 q 204 907 182 890 q 278 957 249 940 q 308 975 294 967 q 357 979 329 979 q 452 960 406 979 q 535 901 499 942 q 572 852 554 881 q 603 785 589 824 q 624 695 617 746 q 632 578 632 644 q 624 403 632 481 q 607 271 617 325 q 582 158 596 207 q 540 113 567 139 q 483 63 513 88 q 424 17 453 38 q 378 -12 394 -4 q 331 -17 358 -17 q 192 17 247 -17 q 103 109 136 51 q 56 241 69 167 q 42 396 42 315 q 49 545 42 471 q 64 679 56 619 q 88 813 74 749 m 260 801 q 246 713 251 764 q 236 602 240 668 q 232 449 232 536 q 274 235 232 303 q 383 167 317 167 q 401 167 394 167 q 415 171 408 168 q 428 258 422 211 q 438 353 433 299 q 442 472 442 408 q 436 594 442 535 q 411 699 431 653 q 356 774 392 746 q 260 801 319 801 m 485 1021 q 438 1035 463 1028 q 388 1049 415 1042 q 331 1065 361 1057 q 277 1079 300 1074 q 239 1089 254 1085 q 208 1097 221 1094 l 164 1251 q 204 1239 182 1244 q 249 1225 224 1232 q 306 1210 275 1218 q 360 1195 336 1201 q 403 1185 385 1189 q 440 1176 424 1179 l 485 1021 z "},"":{"ha":674,"x_min":42,"x_max":632,"o":"m 88 813 q 124 843 104 828 q 161 874 140 857 q 204 907 182 890 q 278 957 249 940 q 308 975 294 967 q 357 979 329 979 q 452 960 406 979 q 535 901 499 942 q 572 852 554 881 q 603 785 589 824 q 624 695 617 746 q 632 578 632 644 q 624 403 632 481 q 607 271 617 325 q 582 158 596 207 q 540 113 567 139 q 483 63 513 88 q 424 17 453 38 q 378 -12 394 -4 q 331 -17 358 -17 q 192 17 247 -17 q 103 109 136 51 q 56 241 69 167 q 42 396 42 315 q 49 545 42 471 q 64 679 56 619 q 88 813 74 749 m 260 801 q 246 713 251 764 q 236 602 240 668 q 232 449 232 536 q 274 235 232 303 q 383 167 317 167 q 401 167 394 167 q 415 171 408 168 q 428 258 422 211 q 438 353 433 299 q 442 472 442 408 q 436 594 442 535 q 411 699 431 653 q 356 774 392 746 q 260 801 319 801 m 215 1176 q 253 1185 232 1179 q 295 1195 271 1189 q 350 1210 319 1201 q 406 1225 381 1218 q 451 1239 432 1232 q 492 1251 474 1244 l 447 1097 q 417 1089 435 1094 q 378 1079 401 1085 q 325 1065 356 1074 q 218 1035 261 1047 q 171 1021 193 1028 l 215 1176 z "},"":{"ha":674,"x_min":42,"x_max":632,"o":"m 88 813 q 124 843 104 828 q 161 874 140 857 q 204 907 182 890 q 278 957 249 940 q 308 975 294 967 q 357 979 329 979 q 452 960 406 979 q 535 901 499 942 q 572 852 554 881 q 603 785 589 824 q 624 695 617 746 q 632 578 632 644 q 624 403 632 481 q 607 271 617 325 q 582 158 596 207 q 540 113 567 139 q 483 63 513 88 q 424 17 453 38 q 378 -12 394 -4 q 331 -17 358 -17 q 192 17 247 -17 q 103 109 136 51 q 56 241 69 167 q 42 396 42 315 q 49 545 42 471 q 64 679 56 619 q 88 813 74 749 m 260 801 q 246 713 251 764 q 236 602 240 668 q 232 449 232 536 q 274 235 232 303 q 383 167 317 167 q 401 167 394 167 q 415 171 408 168 q 428 258 422 211 q 438 353 433 299 q 442 472 442 408 q 436 594 442 535 q 411 699 431 653 q 356 774 392 746 q 260 801 319 801 m 407 1021 q 358 1106 382 1067 q 310 1181 333 1146 q 264 1107 283 1142 q 222 1028 244 1072 l 96 1021 q 167 1126 135 1076 q 235 1236 199 1176 l 443 1236 q 508 1135 476 1182 q 582 1028 539 1088 l 407 1021 z "},"":{"ha":674,"x_min":42,"x_max":632,"o":"m 88 813 q 124 843 104 828 q 161 874 140 857 q 204 907 182 890 q 278 957 249 940 q 308 975 294 967 q 357 979 329 979 q 452 960 406 979 q 535 901 499 942 q 572 852 554 881 q 603 785 589 824 q 624 695 617 746 q 632 578 632 644 q 624 403 632 481 q 607 271 617 325 q 582 158 596 207 q 540 113 567 139 q 483 63 513 88 q 424 17 453 38 q 378 -12 394 -4 q 331 -17 358 -17 q 192 17 247 -17 q 103 109 136 51 q 56 241 69 167 q 42 396 42 315 q 49 545 42 471 q 64 679 56 619 q 88 813 74 749 m 260 801 q 246 713 251 764 q 236 602 240 668 q 232 449 232 536 q 274 235 232 303 q 383 167 317 167 q 401 167 394 167 q 415 171 408 168 q 428 258 422 211 q 438 353 433 299 q 442 472 442 408 q 436 594 442 535 q 411 699 431 653 q 356 774 392 746 q 260 801 319 801 m 157 1192 q 203 1229 171 1229 q 232 1225 215 1229 l 489 1157 q 507 1153 499 1154 q 522 1151 515 1151 q 579 1189 558 1151 l 533 1058 q 488 1021 519 1021 q 458 1025 475 1021 l 201 1093 q 185 1097 193 1096 q 168 1099 176 1099 q 111 1061 132 1099 l 157 1192 z "},"":{"ha":674,"x_min":42,"x_max":632,"o":"m 88 813 q 124 843 104 828 q 161 874 140 857 q 204 907 182 890 q 278 957 249 940 q 308 975 294 967 q 357 979 329 979 q 452 960 406 979 q 535 901 499 942 q 572 852 554 881 q 603 785 589 824 q 624 695 617 746 q 632 578 632 644 q 624 403 632 481 q 607 271 617 325 q 582 158 596 207 q 540 113 567 139 q 483 63 513 88 q 424 17 453 38 q 378 -12 394 -4 q 331 -17 358 -17 q 192 17 247 -17 q 103 109 136 51 q 56 241 69 167 q 42 396 42 315 q 49 545 42 471 q 64 679 56 619 q 88 813 74 749 m 260 801 q 246 713 251 764 q 236 602 240 668 q 232 449 232 536 q 274 235 232 303 q 383 167 317 167 q 401 167 394 167 q 415 171 408 168 q 428 258 422 211 q 438 353 433 299 q 442 472 442 408 q 436 594 442 535 q 411 699 431 653 q 356 774 392 746 q 260 801 319 801 m 354 1086 q 374 1108 364 1096 q 393 1131 382 1119 q 415 1157 404 1143 l 465 1218 l 485 1208 q 504 1199 493 1204 q 529 1186 515 1193 q 556 1173 543 1179 q 581 1161 569 1167 q 606 1150 593 1156 q 588 1131 597 1140 q 569 1110 579 1121 q 547 1086 558 1099 q 526 1063 536 1075 q 508 1042 517 1051 q 490 1021 499 1031 q 469 1031 481 1025 q 447 1041 460 1035 q 422 1054 435 1047 q 398 1066 410 1060 q 376 1076 386 1072 q 354 1086 365 1082 m 82 1086 q 101 1108 92 1096 q 121 1131 110 1119 q 143 1157 132 1143 l 193 1218 l 213 1208 q 232 1199 221 1204 q 257 1186 243 1193 q 284 1173 271 1179 q 308 1161 297 1167 q 333 1150 321 1156 q 315 1131 325 1140 q 297 1110 307 1121 q 275 1086 286 1099 q 254 1063 264 1075 q 236 1042 244 1051 q 218 1021 226 1031 q 197 1031 208 1025 q 175 1041 188 1035 q 150 1054 163 1047 q 126 1066 138 1060 q 104 1076 114 1072 q 82 1086 93 1082 z "},"":{"ha":575,"x_min":69,"x_max":506,"o":"m 506 551 q 467 515 488 533 q 427 478 449 499 q 383 436 406 458 q 427 393 406 414 q 467 357 449 372 q 506 321 488 338 l 403 218 q 367 257 385 236 q 330 297 350 275 q 288 340 310 318 q 244 297 265 318 q 208 257 224 275 q 172 218 189 236 l 69 321 q 108 357 88 338 q 148 393 126 372 q 192 436 169 414 q 147 478 168 458 q 108 515 126 499 q 69 551 88 533 l 172 654 q 208 615 189 636 q 244 576 224 597 q 288 532 265 554 q 330 576 310 554 q 367 615 350 597 q 403 654 385 636 l 506 551 l 506 551 z "},"":{"ha":674,"x_min":22,"x_max":651,"o":"m 651 1043 q 629 992 642 1021 q 603 932 618 967 q 569 854 588 897 q 615 745 597 811 q 632 578 632 679 q 624 403 632 481 q 607 271 617 325 q 582 158 596 207 q 540 113 567 139 q 483 63 513 88 q 424 17 453 38 q 378 -12 394 -4 q 331 -17 358 -17 q 271 -11 299 -17 q 219 4 243 -6 q 207 -28 213 -14 q 197 -53 201 -42 q 189 -75 192 -65 l 22 -82 q 46 -29 32 -58 q 72 30 57 -4 q 106 106 86 64 q 56 238 71 164 q 42 396 42 313 q 49 545 42 471 q 64 679 56 619 q 88 813 74 749 q 124 843 104 828 q 161 874 140 857 q 204 907 182 890 q 278 957 249 940 q 308 975 294 967 q 357 979 329 979 q 457 958 408 979 q 469 990 464 976 q 479 1015 475 1004 l 488 1036 l 651 1043 m 260 801 q 246 713 251 764 q 236 602 240 668 q 232 449 232 536 l 232 404 q 302 572 265 483 q 375 756 339 660 q 260 801 333 801 m 442 472 q 441 510 442 492 q 439 547 440 528 l 426 515 q 360 356 393 436 q 299 203 328 275 q 383 167 333 167 q 401 167 394 167 q 415 171 408 168 q 428 258 422 211 q 438 353 433 299 q 442 472 442 408 z "},"":{"ha":625,"x_min":56,"x_max":569,"o":"m 249 972 q 247 735 247 856 q 246 508 246 631 q 246 269 246 385 q 271 194 246 221 q 335 167 296 167 q 357 168 346 167 q 379 175 368 169 q 378 468 379 325 q 376 724 378 611 q 375 972 375 856 l 569 972 q 567 829 568 904 q 565 686 565 765 q 565 528 565 607 q 565 333 565 426 q 567 164 565 239 q 569 0 568 78 l 376 0 l 376 25 q 377 50 376 36 q 378 79 378 64 q 350 50 364 64 q 326 25 339 38 q 304 4 313 13 q 283 -5 301 1 q 232 -11 265 -11 q 143 7 178 -11 q 89 57 108 25 q 63 133 69 89 q 56 226 56 176 q 57 338 56 257 q 58 528 58 419 q 58 681 58 603 q 57 825 57 760 q 56 972 56 901 l 249 972 m 456 1021 q 408 1035 433 1028 q 359 1049 386 1042 q 301 1065 332 1057 q 248 1079 271 1074 q 210 1089 225 1085 q 179 1097 192 1094 l 135 1251 q 175 1239 153 1244 q 220 1225 194 1232 q 276 1210 246 1218 q 331 1195 307 1201 q 374 1185 356 1189 q 411 1176 394 1179 l 456 1021 z "},"":{"ha":625,"x_min":56,"x_max":569,"o":"m 249 972 q 247 735 247 856 q 246 508 246 631 q 246 269 246 385 q 271 194 246 221 q 335 167 296 167 q 357 168 346 167 q 379 175 368 169 q 378 468 379 325 q 376 724 378 611 q 375 972 375 856 l 569 972 q 567 829 568 904 q 565 686 565 765 q 565 528 565 607 q 565 333 565 426 q 567 164 565 239 q 569 0 568 78 l 376 0 l 376 25 q 377 50 376 36 q 378 79 378 64 q 350 50 364 64 q 326 25 339 38 q 304 4 313 13 q 283 -5 301 1 q 232 -11 265 -11 q 143 7 178 -11 q 89 57 108 25 q 63 133 69 89 q 56 226 56 176 q 57 338 56 257 q 58 528 58 419 q 58 681 58 603 q 57 825 57 760 q 56 972 56 901 l 249 972 m 211 1176 q 249 1185 228 1179 q 291 1195 267 1189 q 346 1210 315 1201 q 402 1225 376 1218 q 447 1239 428 1232 q 488 1251 469 1244 l 443 1097 q 413 1089 431 1094 q 374 1079 397 1085 q 321 1065 351 1074 q 214 1035 257 1047 q 167 1021 189 1028 l 211 1176 z "},"":{"ha":625,"x_min":56,"x_max":569,"o":"m 249 972 q 247 735 247 856 q 246 508 246 631 q 246 269 246 385 q 271 194 246 221 q 335 167 296 167 q 357 168 346 167 q 379 175 368 169 q 378 468 379 325 q 376 724 378 611 q 375 972 375 856 l 569 972 q 567 829 568 904 q 565 686 565 765 q 565 528 565 607 q 565 333 565 426 q 567 164 565 239 q 569 0 568 78 l 376 0 l 376 25 q 377 50 376 36 q 378 79 378 64 q 350 50 364 64 q 326 25 339 38 q 304 4 313 13 q 283 -5 301 1 q 232 -11 265 -11 q 143 7 178 -11 q 89 57 108 25 q 63 133 69 89 q 56 226 56 176 q 57 338 56 257 q 58 528 58 419 q 58 681 58 603 q 57 825 57 760 q 56 972 56 901 l 249 972 m 383 1021 q 334 1106 358 1067 q 286 1181 310 1146 q 240 1107 260 1142 q 199 1028 221 1072 l 72 1021 q 143 1126 111 1076 q 211 1236 175 1176 l 419 1236 q 484 1135 453 1182 q 558 1028 515 1088 l 383 1021 z "},"":{"ha":625,"x_min":51,"x_max":575,"o":"m 324 1081 q 343 1103 333 1090 q 363 1126 351 1114 q 385 1151 374 1138 l 435 1213 l 454 1203 q 474 1193 463 1199 q 499 1181 485 1188 q 526 1167 513 1174 q 550 1156 539 1161 q 575 1144 563 1150 q 557 1125 567 1135 q 538 1104 549 1115 q 517 1081 528 1093 q 496 1058 506 1069 q 478 1036 486 1046 q 460 1015 468 1025 q 439 1025 450 1019 q 417 1035 429 1029 q 392 1049 404 1042 q 367 1060 379 1054 q 346 1071 356 1067 q 324 1081 335 1076 m 51 1081 q 71 1103 61 1090 q 90 1126 79 1114 q 113 1151 101 1138 l 163 1213 l 182 1203 q 201 1193 190 1199 q 226 1181 213 1188 q 253 1167 240 1174 q 278 1156 267 1161 q 303 1144 290 1150 q 285 1125 294 1135 q 266 1104 276 1115 q 244 1081 256 1093 q 224 1058 233 1069 q 206 1036 214 1046 q 188 1015 196 1025 q 167 1025 178 1019 q 144 1035 157 1029 q 119 1049 132 1042 q 95 1060 107 1054 q 74 1071 83 1067 q 51 1081 63 1076 m 249 972 q 247 735 247 856 q 246 508 246 631 q 246 269 246 385 q 271 194 246 221 q 335 167 296 167 q 357 168 346 167 q 379 175 368 169 q 378 468 379 325 q 376 724 378 611 q 375 972 375 856 l 569 972 q 567 829 568 904 q 565 686 565 765 q 565 528 565 607 q 565 333 565 426 q 567 164 565 239 q 569 0 568 78 l 376 0 l 376 25 q 377 50 376 36 q 378 79 378 64 q 350 50 364 64 q 326 25 339 38 q 304 4 313 13 q 283 -5 301 1 q 232 -11 265 -11 q 143 7 178 -11 q 89 57 108 25 q 63 133 69 89 q 56 226 56 176 q 57 338 56 257 q 58 528 58 419 q 58 681 58 603 q 57 825 57 760 q 56 972 56 901 l 249 972 z "},"":{"ha":513,"x_min":7,"x_max":513,"o":"m 168 0 q 169 111 168 51 q 172 228 171 163 q 172 369 172 294 l 7 972 l 210 972 l 293 629 l 367 972 l 513 972 l 360 410 q 360 246 360 321 q 361 117 360 171 q 363 0 361 51 l 168 0 m 181 1176 q 218 1185 197 1179 q 260 1195 236 1189 q 315 1210 285 1201 q 372 1225 346 1218 q 417 1239 397 1232 q 457 1251 439 1244 l 413 1097 q 382 1089 400 1094 q 344 1079 367 1085 q 290 1065 321 1074 q 183 1035 226 1047 q 136 1021 158 1028 l 181 1176 z "},"":{"ha":561,"x_min":56,"x_max":549,"o":"m 243 178 q 244 105 243 138 q 244 49 244 72 q 246 0 244 22 l 56 0 q 57 158 56 74 q 59 322 58 231 q 60 514 60 414 q 59 685 60 603 q 57 832 58 768 q 56 972 56 907 l 246 972 q 244 913 244 943 q 243 855 243 886 q 243 796 243 824 q 360 790 303 796 q 467 747 417 783 q 533 657 518 710 q 549 540 549 604 q 544 466 549 500 q 532 406 539 432 q 515 349 525 375 q 473 302 499 326 q 420 256 447 278 q 367 215 393 233 q 322 186 340 196 q 299 182 311 183 q 243 178 278 178 m 243 328 q 288 324 264 324 q 325 328 313 324 q 339 332 332 329 q 349 379 343 354 q 355 427 351 400 q 358 482 358 454 q 354 540 358 511 q 338 592 350 569 q 308 628 326 614 q 260 642 289 642 q 243 639 249 642 l 243 328 z "},"":{"ha":638,"x_min":-3,"x_max":610,"o":"m 79 542 q 49 541 64 542 q 22 540 33 540 l -3 540 l 79 646 l 79 778 q 154 885 110 836 q 236 963 199 933 q 289 975 257 971 q 344 979 321 979 q 451 963 407 979 q 524 917 496 946 q 566 849 553 888 q 579 768 579 811 q 569 699 579 729 q 545 648 560 669 q 513 612 531 626 q 481 589 496 597 q 549 556 524 578 q 589 503 575 533 q 606 435 603 472 q 610 360 610 399 q 603 255 610 308 q 588 150 597 201 q 517 75 554 115 q 442 7 479 35 q 371 -11 413 -11 q 334 -4 351 -11 q 307 14 317 3 l 325 163 q 359 140 336 149 q 406 132 382 132 q 443 139 429 132 q 450 199 449 169 q 451 281 451 228 q 429 390 451 354 q 354 426 407 426 q 330 423 342 426 q 308 415 318 419 q 300 422 300 415 q 315 481 308 453 q 328 530 322 504 q 339 574 333 556 q 358 583 349 579 q 376 590 368 588 q 394 594 386 593 q 426 645 415 617 q 436 718 436 674 q 404 800 436 774 q 333 826 372 826 q 291 822 308 826 q 258 808 274 818 q 256 717 257 768 q 254 610 254 672 q 254 472 254 549 q 254 276 254 363 q 256 126 254 189 q 258 0 257 54 l 75 0 q 76 176 75 85 q 78 351 78 256 q 79 542 79 446 z "},"":{"ha":563,"x_min":42,"x_max":514,"o":"m 331 0 q 332 24 332 10 q 332 51 332 35 q 333 88 332 67 q 296 47 313 65 q 268 19 281 32 q 254 4 256 6 q 222 -7 242 -3 q 179 -11 203 -11 q 124 -1 149 -11 q 81 35 99 8 q 52 111 63 63 q 42 239 42 160 q 49 449 42 378 q 60 539 57 521 q 97 576 72 554 q 150 618 122 597 q 199 651 175 638 q 250 679 222 665 q 267 682 257 681 q 287 685 275 683 q 314 686 299 686 q 374 681 346 686 q 439 664 403 676 l 514 679 q 513 574 513 629 q 511 467 511 526 q 511 347 511 408 q 511 218 511 281 q 513 107 511 156 q 514 0 513 50 l 331 0 m 339 347 q 338 424 339 390 q 338 481 338 457 q 336 529 336 507 q 321 538 329 533 q 302 544 314 540 q 275 547 290 547 q 253 546 263 547 q 236 542 243 544 q 222 538 228 539 q 214 461 218 510 q 210 336 210 413 q 213 265 210 300 q 224 201 215 229 q 249 156 232 174 q 294 139 265 139 q 314 140 301 139 q 336 146 326 142 q 338 188 336 161 q 338 250 338 211 q 339 347 339 289 m 436 742 q 389 756 414 749 q 340 770 367 763 q 282 786 313 778 q 228 800 251 794 q 190 810 206 806 q 160 818 172 815 l 115 972 q 156 960 133 965 q 201 946 175 953 q 257 931 226 939 q 312 916 288 922 q 354 906 336 910 q 392 897 375 900 l 436 742 z "},"":{"ha":563,"x_min":42,"x_max":514,"o":"m 331 0 q 332 24 332 10 q 332 51 332 35 q 333 88 332 67 q 296 47 313 65 q 268 19 281 32 q 254 4 256 6 q 222 -7 242 -3 q 179 -11 203 -11 q 124 -1 149 -11 q 81 35 99 8 q 52 111 63 63 q 42 239 42 160 q 49 449 42 378 q 60 539 57 521 q 97 576 72 554 q 150 618 122 597 q 199 651 175 638 q 250 679 222 665 q 267 682 257 681 q 287 685 275 683 q 314 686 299 686 q 374 681 346 686 q 439 664 403 676 l 514 679 q 513 574 513 629 q 511 467 511 526 q 511 347 511 408 q 511 218 511 281 q 513 107 511 156 q 514 0 513 50 l 331 0 m 339 347 q 338 424 339 390 q 338 481 338 457 q 336 529 336 507 q 321 538 329 533 q 302 544 314 540 q 275 547 290 547 q 253 546 263 547 q 236 542 243 544 q 222 538 228 539 q 214 461 218 510 q 210 336 210 413 q 213 265 210 300 q 224 201 215 229 q 249 156 232 174 q 294 139 265 139 q 314 140 301 139 q 336 146 326 142 q 338 188 336 161 q 338 250 338 211 q 339 347 339 289 m 192 904 q 229 913 208 907 q 272 923 247 917 q 326 938 296 929 q 383 953 357 946 q 428 967 408 960 q 468 979 450 972 l 424 825 q 393 817 411 822 q 355 807 378 813 q 301 793 332 801 q 194 763 238 775 q 147 749 169 756 l 192 904 z "},"":{"ha":563,"x_min":42,"x_max":556,"o":"m 331 0 q 332 24 332 10 q 332 51 332 35 q 333 88 332 67 q 296 47 313 65 q 268 19 281 32 q 254 4 256 6 q 222 -7 242 -3 q 179 -11 203 -11 q 124 -1 149 -11 q 81 35 99 8 q 52 111 63 63 q 42 239 42 160 q 49 449 42 378 q 60 539 57 521 q 97 576 72 554 q 150 618 122 597 q 199 651 175 638 q 250 679 222 665 q 267 682 257 681 q 287 685 275 683 q 314 686 299 686 q 374 681 346 686 q 439 664 403 676 l 514 679 q 513 574 513 629 q 511 467 511 526 q 511 347 511 408 q 511 218 511 281 q 513 107 511 156 q 514 0 513 50 l 331 0 m 339 347 q 338 424 339 390 q 338 481 338 457 q 336 529 336 507 q 321 538 329 533 q 302 544 314 540 q 275 547 290 547 q 253 546 263 547 q 236 542 243 544 q 222 538 228 539 q 214 461 218 510 q 210 336 210 413 q 213 265 210 300 q 224 201 215 229 q 249 156 232 174 q 294 139 265 139 q 314 140 301 139 q 336 146 326 142 q 338 188 336 161 q 338 250 338 211 q 339 347 339 289 m 381 742 q 331 827 356 788 q 283 901 307 867 q 238 828 257 863 q 196 749 218 793 l 69 742 q 140 847 108 797 q 208 957 172 897 l 417 957 q 481 856 450 903 q 556 749 513 808 l 381 742 z "},"":{"ha":563,"x_min":42,"x_max":543,"o":"m 331 0 q 332 24 332 10 q 332 51 332 35 q 333 88 332 67 q 296 47 313 65 q 268 19 281 32 q 254 4 256 6 q 222 -7 242 -3 q 179 -11 203 -11 q 124 -1 149 -11 q 81 35 99 8 q 52 111 63 63 q 42 239 42 160 q 49 449 42 378 q 60 539 57 521 q 97 576 72 554 q 150 618 122 597 q 199 651 175 638 q 250 679 222 665 q 267 682 257 681 q 287 685 275 683 q 314 686 299 686 q 374 681 346 686 q 439 664 403 676 l 514 679 q 513 574 513 629 q 511 467 511 526 q 511 347 511 408 q 511 218 511 281 q 513 107 511 156 q 514 0 513 50 l 331 0 m 339 347 q 338 424 339 390 q 338 481 338 457 q 336 529 336 507 q 321 538 329 533 q 302 544 314 540 q 275 547 290 547 q 253 546 263 547 q 236 542 243 544 q 222 538 228 539 q 214 461 218 510 q 210 336 210 413 q 213 265 210 300 q 224 201 215 229 q 249 156 232 174 q 294 139 265 139 q 314 140 301 139 q 336 146 326 142 q 338 188 336 161 q 338 250 338 211 q 339 347 339 289 m 121 935 q 167 972 135 972 q 196 968 179 972 l 453 900 q 471 896 463 897 q 486 894 479 894 q 543 932 522 894 l 497 801 q 451 764 483 764 q 422 768 439 764 l 165 836 q 149 840 157 839 q 132 842 140 842 q 75 804 96 842 l 121 935 z "},"":{"ha":563,"x_min":43,"x_max":568,"o":"m 332 0 q 333 24 333 10 q 333 51 333 35 q 335 88 333 67 q 297 47 314 65 q 269 19 282 32 q 256 4 257 6 q 224 -7 243 -3 q 181 -11 204 -11 q 125 -1 150 -11 q 82 35 100 8 q 53 111 64 63 q 43 239 43 160 q 51 449 43 378 q 61 539 58 521 q 99 576 74 554 q 151 618 124 597 q 200 651 176 638 q 251 679 224 665 q 268 682 258 681 q 288 685 276 683 q 315 686 300 686 q 376 681 347 686 q 440 664 404 676 l 515 679 q 514 574 514 629 q 513 467 513 526 q 513 347 513 408 q 513 218 513 281 q 514 107 513 156 q 515 0 514 50 l 332 0 m 340 347 q 340 424 340 390 q 339 481 339 457 q 338 529 338 507 q 322 538 331 533 q 303 544 315 540 q 276 547 292 547 q 254 546 264 547 q 238 542 244 544 q 224 538 229 539 q 215 461 219 510 q 211 336 211 413 q 214 265 211 300 q 225 201 217 229 q 250 156 233 174 q 296 139 267 139 q 315 140 303 139 q 338 146 328 142 q 339 188 338 161 q 340 250 339 211 q 340 347 340 289 m 317 807 q 336 829 326 817 q 356 852 344 840 q 378 878 367 864 l 428 939 l 447 929 q 467 919 456 925 q 492 907 478 914 q 519 894 506 900 q 543 882 532 888 q 568 871 556 876 q 550 851 560 861 q 531 831 542 842 q 510 807 521 819 q 489 784 499 796 q 471 763 479 772 q 453 742 461 751 q 432 751 443 746 q 410 762 422 756 q 385 775 397 768 q 360 787 372 781 q 339 797 349 793 q 317 807 328 803 m 44 807 q 64 829 54 817 q 83 852 72 840 q 106 878 94 864 l 156 939 l 175 929 q 194 919 183 925 q 219 907 206 914 q 247 894 233 900 q 271 882 260 888 q 296 871 283 876 q 278 851 288 861 q 259 831 269 842 q 238 807 249 819 q 217 784 226 796 q 199 763 207 772 q 181 742 189 751 q 160 751 171 746 q 138 762 150 756 q 113 775 125 768 q 88 787 100 781 q 67 797 76 793 q 44 807 56 803 z "},"":{"ha":563,"x_min":42,"x_max":514,"o":"m 331 0 q 332 24 332 10 q 332 51 332 35 q 333 88 332 67 q 296 47 313 65 q 268 19 281 32 q 254 4 256 6 q 222 -7 242 -3 q 179 -11 203 -11 q 124 -1 149 -11 q 81 35 99 8 q 52 111 63 63 q 42 239 42 160 q 49 449 42 378 q 60 539 57 521 q 97 576 72 554 q 150 618 122 597 q 199 651 175 638 q 250 679 222 665 q 267 682 257 681 q 287 685 275 683 q 314 686 299 686 q 374 681 346 686 q 439 664 403 676 l 514 679 q 513 574 513 629 q 511 467 511 526 q 511 347 511 408 q 511 218 511 281 q 513 107 511 156 q 514 0 513 50 l 331 0 m 339 347 q 338 424 339 390 q 338 481 338 457 q 336 529 336 507 q 321 538 329 533 q 302 544 314 540 q 275 547 290 547 q 253 546 263 547 q 236 542 243 544 q 222 538 228 539 q 214 461 218 510 q 210 336 210 413 q 213 265 210 300 q 224 201 215 229 q 249 156 232 174 q 294 139 265 139 q 314 140 301 139 q 336 146 326 142 q 338 188 336 161 q 338 250 338 211 q 339 347 339 289 m 188 856 q 265 971 188 931 q 296 979 279 979 q 356 958 331 979 q 394 875 394 924 q 378 814 394 840 q 329 764 361 788 q 286 750 308 750 q 217 780 246 750 q 188 856 188 810 m 306 803 q 331 807 328 803 q 339 826 335 814 q 343 854 343 839 q 322 910 343 889 q 272 931 300 931 q 256 926 260 931 q 245 907 249 919 q 242 879 242 894 q 259 824 242 844 q 306 803 276 803 z "},"":{"ha":747,"x_min":35,"x_max":719,"o":"m 508 318 q 507 297 507 308 q 507 278 507 286 q 528 183 507 207 q 586 160 550 160 q 652 178 626 160 q 694 219 678 196 q 703 218 699 219 q 710 211 707 217 q 699 179 708 204 q 679 124 690 154 q 658 67 668 94 q 642 31 647 40 q 595 4 633 19 q 508 -11 557 -11 q 401 19 440 -11 q 343 107 361 49 q 324 85 338 100 q 295 53 311 69 q 265 23 279 38 q 242 4 250 8 q 172 -11 215 -11 q 118 -2 143 -11 q 74 31 93 7 q 45 95 56 54 q 35 201 35 136 q 39 282 35 256 q 49 331 43 308 q 88 367 61 346 q 142 410 114 389 q 190 443 167 429 q 242 471 214 457 q 253 474 246 472 q 290 476 267 476 q 313 476 303 476 q 329 474 322 475 l 329 483 q 305 527 328 507 q 229 547 282 547 q 151 522 183 547 q 104 475 118 497 q 93 477 99 475 q 85 485 88 479 q 94 514 86 492 q 113 562 103 536 q 133 610 122 588 q 149 643 143 633 q 200 672 165 657 q 290 686 235 686 q 454 631 401 686 q 501 658 478 646 q 546 681 525 671 q 640 662 608 681 q 692 615 672 643 q 715 551 711 588 q 719 483 719 514 q 719 448 719 465 q 715 419 718 431 q 651 369 679 392 q 589 317 624 347 q 559 317 574 317 q 533 318 544 318 l 508 318 m 264 338 q 242 336 251 338 q 226 332 233 335 l 214 328 q 205 287 208 310 q 201 236 201 264 q 221 165 201 192 q 289 138 240 138 q 308 139 296 138 q 333 147 319 140 q 329 190 331 167 q 328 236 328 213 q 328 278 328 257 q 329 319 328 299 q 305 331 321 325 q 264 338 289 338 m 583 440 q 568 500 583 474 q 524 526 553 526 q 517 526 519 526 q 511 525 514 525 l 508 525 q 507 490 507 508 l 507 413 q 582 417 550 413 q 583 428 583 422 q 583 440 583 435 z "},"":{"ha":424,"x_min":35,"x_max":403,"o":"m 228 -62 q 283 -90 261 -65 q 306 -158 306 -114 q 293 -217 306 -186 q 249 -256 275 -233 q 210 -290 224 -279 q 165 -300 190 -300 q 135 -296 150 -300 q 113 -283 119 -292 l 121 -210 q 149 -226 135 -221 q 185 -231 163 -231 q 226 -221 210 -231 q 228 -204 228 -215 q 211 -160 228 -179 q 160 -140 194 -140 q 136 -143 146 -140 q 113 -151 126 -146 q 106 -142 106 -149 q 122 -109 113 -128 q 139 -72 131 -90 q 155 -35 147 -53 q 167 -8 163 -18 q 114 10 136 -3 q 75 42 92 24 q 55 71 63 56 q 42 108 47 86 q 36 160 38 131 q 35 233 35 190 q 38 333 35 278 q 44 438 40 389 q 54 554 49 494 q 84 584 64 565 q 131 622 104 603 q 188 658 157 642 q 250 681 218 674 q 322 663 293 681 q 369 622 351 646 q 394 572 386 597 q 403 532 401 547 l 264 447 q 247 509 261 489 q 214 529 233 529 q 210 463 211 497 q 208 397 208 433 q 207 325 207 360 q 208 260 207 290 q 217 206 210 229 q 240 170 225 183 q 279 157 254 157 q 325 165 307 157 q 356 183 343 172 q 379 210 369 194 q 397 201 390 210 q 383 160 392 185 q 365 110 375 135 q 344 61 354 85 q 326 24 335 38 q 307 13 318 18 q 283 1 297 7 q 250 -7 269 -4 q 239 -33 244 -18 q 228 -62 233 -49 z "},"":{"ha":461,"x_min":42,"x_max":433,"o":"m 222 318 q 221 297 221 308 q 221 278 221 286 q 242 183 221 207 q 300 160 264 160 q 366 178 340 160 q 408 219 392 196 q 417 218 413 219 q 424 211 421 217 q 413 179 422 204 q 393 124 404 154 q 372 67 382 94 q 356 31 361 40 q 309 4 347 19 q 222 -11 271 -11 q 83 53 124 -11 q 42 236 42 117 q 44 347 42 292 q 51 448 47 403 q 60 523 56 493 q 67 556 64 553 q 109 590 85 572 q 159 624 133 607 q 211 656 185 642 q 260 681 238 671 q 354 662 322 681 q 406 615 386 643 q 429 551 425 588 q 433 483 433 514 q 433 448 433 465 q 429 419 432 431 q 365 369 393 392 q 303 317 338 347 q 273 317 288 317 q 247 318 258 318 l 222 318 m 297 440 q 282 500 297 474 q 238 526 267 526 q 231 526 233 526 q 225 525 228 525 l 222 525 q 221 490 221 508 l 221 413 q 296 417 264 413 q 297 428 297 422 q 297 440 297 435 m 392 749 q 344 763 369 756 q 295 777 322 769 q 238 793 268 785 q 184 807 207 801 q 146 817 161 813 q 115 825 128 822 l 71 979 q 111 967 89 972 q 156 953 131 960 q 213 938 182 946 q 267 923 243 929 q 310 913 292 917 q 347 904 331 907 l 392 749 z "},"":{"ha":461,"x_min":42,"x_max":433,"o":"m 222 318 q 221 297 221 308 q 221 278 221 286 q 242 183 221 207 q 300 160 264 160 q 366 178 340 160 q 408 219 392 196 q 417 218 413 219 q 424 211 421 217 q 413 179 422 204 q 393 124 404 154 q 372 67 382 94 q 356 31 361 40 q 309 4 347 19 q 222 -11 271 -11 q 83 53 124 -11 q 42 236 42 117 q 44 347 42 292 q 51 448 47 403 q 60 523 56 493 q 67 556 64 553 q 109 590 85 572 q 159 624 133 607 q 211 656 185 642 q 260 681 238 671 q 354 662 322 681 q 406 615 386 643 q 429 551 425 588 q 433 483 433 514 q 433 448 433 465 q 429 419 432 431 q 365 369 393 392 q 303 317 338 347 q 273 317 288 317 q 247 318 258 318 l 222 318 m 297 440 q 282 500 297 474 q 238 526 267 526 q 231 526 233 526 q 225 525 228 525 l 222 525 q 221 490 221 508 l 221 413 q 296 417 264 413 q 297 428 297 422 q 297 440 297 435 m 140 904 q 178 913 157 907 q 220 923 196 917 q 275 938 244 929 q 331 953 306 946 q 376 967 357 960 q 417 979 399 972 l 372 825 q 342 817 360 822 q 303 807 326 813 q 250 793 281 801 q 143 763 186 775 q 96 749 118 756 l 140 904 z "},"":{"ha":461,"x_min":-3,"x_max":483,"o":"m 308 742 q 259 827 283 788 q 211 901 235 867 q 165 828 185 863 q 124 749 146 793 l -3 742 q 68 847 36 797 q 136 957 100 897 l 344 957 q 409 856 378 903 q 483 749 440 808 l 308 742 m 222 318 q 221 297 221 308 q 221 278 221 286 q 242 183 221 207 q 300 160 264 160 q 366 178 340 160 q 408 219 392 196 q 417 218 413 219 q 424 211 421 217 q 413 179 422 204 q 393 124 404 154 q 372 67 382 94 q 356 31 361 40 q 309 4 347 19 q 222 -11 271 -11 q 83 53 124 -11 q 42 236 42 117 q 44 347 42 292 q 51 448 47 403 q 60 523 56 493 q 67 556 64 553 q 109 590 85 572 q 159 624 133 607 q 211 656 185 642 q 260 681 238 671 q 354 662 322 681 q 406 615 386 643 q 429 551 425 588 q 433 483 433 514 q 433 448 433 465 q 429 419 432 431 q 365 369 393 392 q 303 317 338 347 q 273 317 288 317 q 247 318 258 318 l 222 318 m 297 440 q 282 500 297 474 q 238 526 267 526 q 231 526 233 526 q 225 525 228 525 l 222 525 q 221 490 221 508 l 221 413 q 296 417 264 413 q 297 428 297 422 q 297 440 297 435 z "},"":{"ha":461,"x_min":-11,"x_max":513,"o":"m 261 807 q 281 829 271 817 q 300 852 289 840 q 322 878 311 864 l 372 939 l 392 929 q 411 919 400 925 q 436 907 422 914 q 463 894 450 900 q 488 882 476 888 q 513 871 500 876 q 494 851 504 861 q 476 831 486 842 q 454 807 465 819 q 433 784 443 796 q 415 763 424 772 q 397 742 406 751 q 376 751 388 746 q 354 762 367 756 q 329 775 342 768 q 305 787 317 781 q 283 797 293 793 q 261 807 272 803 m -11 807 q 8 829 -1 817 q 28 852 17 840 q 50 878 39 864 l 100 939 l 119 929 q 139 919 128 925 q 164 907 150 914 q 191 894 178 900 q 215 882 204 888 q 240 871 228 876 q 222 851 232 861 q 203 831 214 842 q 182 807 193 819 q 161 784 171 796 q 143 763 151 772 q 125 742 133 751 q 104 751 115 746 q 82 762 94 756 q 57 775 69 768 q 33 787 44 781 q 11 797 21 793 q -11 807 0 803 m 222 318 q 221 297 221 308 q 221 278 221 286 q 242 183 221 207 q 300 160 264 160 q 366 178 340 160 q 408 219 392 196 q 417 218 413 219 q 424 211 421 217 q 413 179 422 204 q 393 124 404 154 q 372 67 382 94 q 356 31 361 40 q 309 4 347 19 q 222 -11 271 -11 q 83 53 124 -11 q 42 236 42 117 q 44 347 42 292 q 51 448 47 403 q 60 523 56 493 q 67 556 64 553 q 109 590 85 572 q 159 624 133 607 q 211 656 185 642 q 260 681 238 671 q 354 662 322 681 q 406 615 386 643 q 429 551 425 588 q 433 483 433 514 q 433 448 433 465 q 429 419 432 431 q 365 369 393 392 q 303 317 338 347 q 273 317 288 317 q 247 318 258 318 l 222 318 m 297 440 q 282 500 297 474 q 238 526 267 526 q 231 526 233 526 q 225 525 228 525 l 222 525 q 221 490 221 508 l 221 413 q 296 417 264 413 q 297 428 297 422 q 297 440 297 435 z "},"":{"ha":286,"x_min":-29,"x_max":292,"o":"m 292 749 q 244 763 269 756 q 195 777 222 769 q 138 793 168 785 q 84 807 107 801 q 46 817 61 813 q 15 825 28 822 l -29 979 q 11 967 -11 972 q 56 953 31 960 q 113 938 82 946 q 167 923 143 929 q 210 913 192 917 q 247 904 231 907 l 292 749 m 233 672 q 232 569 232 624 q 231 465 231 524 q 231 347 231 407 q 231 219 231 281 q 232 108 231 157 q 233 0 232 51 l 54 0 q 56 108 54 51 q 56 219 56 157 q 57 347 57 281 q 56 465 57 407 q 56 569 56 524 q 54 672 54 624 l 233 672 z "},"":{"ha":286,"x_min":-8,"x_max":313,"o":"m 36 904 q 74 913 53 907 q 116 923 92 917 q 171 938 140 929 q 227 953 201 946 q 272 967 253 960 q 313 979 294 972 l 268 825 q 238 817 256 822 q 199 807 222 813 q 146 793 176 801 q 39 763 82 775 q -8 749 14 756 l 36 904 m 233 672 q 232 569 232 624 q 231 465 231 524 q 231 347 231 407 q 231 219 231 281 q 232 108 231 157 q 233 0 232 51 l 54 0 q 56 108 54 51 q 56 219 56 157 q 57 347 57 281 q 56 465 57 407 q 56 569 56 524 q 54 672 54 624 l 233 672 z "},"":{"ha":286,"x_min":-89,"x_max":397,"o":"m 222 742 q 173 827 197 788 q 125 901 149 867 q 79 828 99 863 q 38 749 60 793 l -89 742 q -18 847 -50 797 q 50 957 14 897 l 258 957 q 323 856 292 903 q 397 749 354 808 l 222 742 m 233 672 q 232 569 232 624 q 231 465 231 524 q 231 347 231 407 q 231 219 231 281 q 232 108 231 157 q 233 0 232 51 l 54 0 q 56 108 54 51 q 56 219 56 157 q 57 347 57 281 q 56 465 57 407 q 56 569 56 524 q 54 672 54 624 l 233 672 z "},"":{"ha":286,"x_min":-118,"x_max":406,"o":"m 154 807 q 174 829 164 817 q 193 852 182 840 q 215 878 204 864 l 265 939 l 285 929 q 304 919 293 925 q 329 907 315 914 q 356 894 343 900 q 381 882 369 888 q 406 871 393 876 q 388 851 397 861 q 369 831 379 842 q 347 807 358 819 q 326 784 336 796 q 308 763 317 772 q 290 742 299 751 q 269 751 281 746 q 247 762 260 756 q 222 775 235 768 q 198 787 210 781 q 176 797 186 793 q 154 807 165 803 m -118 807 q -99 829 -108 817 q -79 852 -90 840 q -57 878 -68 864 l -7 939 l 13 929 q 32 919 21 925 q 57 907 43 914 q 84 894 71 900 q 108 882 97 888 q 133 871 121 876 q 115 851 125 861 q 97 831 107 842 q 75 807 86 819 q 54 784 64 796 q 36 763 44 772 q 18 742 26 751 q -3 751 8 746 q -25 762 -12 756 q -50 775 -37 768 q -74 787 -62 781 q -96 797 -86 793 q -118 807 -107 803 m 233 672 q 232 569 232 624 q 231 465 231 524 q 231 347 231 407 q 231 219 231 281 q 232 108 231 157 q 233 0 232 51 l 54 0 q 56 108 54 51 q 56 219 56 157 q 57 347 57 281 q 56 465 57 407 q 56 569 56 524 q 54 672 54 624 l 233 672 z "},"":{"ha":547,"x_min":32,"x_max":519,"o":"m 461 856 l 349 813 q 380 760 365 785 q 410 710 394 736 q 444 653 426 683 q 485 583 463 622 q 515 475 510 539 q 519 346 519 411 q 518 272 519 307 q 515 208 517 236 q 510 161 513 179 q 507 139 508 143 q 492 121 504 132 q 463 97 479 110 q 428 70 446 83 q 399 49 411 57 q 371 30 386 40 q 340 10 356 19 q 312 -6 325 1 q 290 -14 299 -12 q 275 -17 282 -17 q 260 -17 268 -17 q 215 -14 242 -17 q 158 1 188 -11 q 102 35 129 13 q 58 97 75 57 q 38 183 43 132 q 32 289 32 233 q 35 385 32 338 q 42 471 38 433 q 49 532 46 508 q 53 556 53 556 q 78 575 54 556 q 158 628 101 594 q 203 654 189 646 q 232 669 218 663 q 264 657 251 665 l 206 753 q 168 736 189 746 q 131 718 147 726 l 47 801 q 103 822 78 813 q 150 842 128 832 l 65 972 l 251 979 l 296 901 q 335 917 315 908 q 379 938 356 926 l 461 856 m 218 519 q 211 469 214 497 q 206 410 208 446 q 204 328 204 374 q 226 190 204 238 q 303 143 249 143 q 333 147 322 143 q 338 168 335 151 q 342 208 340 185 q 346 261 344 232 q 347 318 347 290 q 344 409 347 371 q 321 476 340 447 q 288 508 310 494 q 238 521 267 521 q 228 521 235 521 q 218 519 222 521 z "},"":{"ha":563,"x_min":49,"x_max":538,"o":"m 228 672 l 228 568 q 271 620 254 599 q 302 655 288 642 q 334 674 317 668 q 381 681 351 681 q 479 640 439 681 q 519 533 519 599 q 519 474 519 501 q 518 417 518 446 q 517 354 518 388 q 517 278 517 321 q 517 184 517 233 q 518 94 517 135 q 521 0 519 46 l 344 0 q 346 161 344 85 q 346 228 346 194 q 347 294 346 263 q 347 354 347 326 q 347 403 347 382 q 341 458 347 436 q 324 494 335 481 q 298 512 313 507 q 268 517 283 517 q 250 515 257 517 q 238 513 243 514 q 228 508 232 510 q 225 422 226 468 q 224 336 224 383 q 224 242 224 289 q 224 151 224 194 q 225 74 224 107 q 228 0 226 35 l 49 0 q 50 85 49 36 q 52 186 51 126 q 53 325 53 246 q 52 467 53 403 q 50 576 51 531 q 49 672 49 631 l 228 672 m 115 935 q 161 972 129 972 q 190 968 174 972 l 447 900 q 465 896 457 897 q 481 894 474 894 q 538 932 517 894 l 492 801 q 446 764 478 764 q 417 768 433 764 l 160 836 q 143 840 151 839 q 126 842 135 842 q 69 804 90 842 l 115 935 z "},"":{"ha":553,"x_min":35,"x_max":525,"o":"m 56 557 q 78 575 57 557 q 157 629 100 593 q 204 657 185 647 q 235 674 224 667 q 257 683 249 679 q 265 685 260 683 q 275 685 269 685 q 288 686 281 686 q 339 683 311 686 q 394 668 367 679 q 448 635 422 657 q 492 578 474 614 q 519 473 514 535 q 525 346 525 411 q 523 271 525 307 q 518 206 521 235 q 513 158 515 176 q 508 135 510 139 q 496 122 507 132 q 469 99 485 111 q 438 73 454 86 q 408 51 421 60 q 352 13 383 33 q 301 -14 321 -7 q 285 -16 294 -15 q 265 -17 276 -17 q 218 -14 246 -17 q 161 1 190 -11 q 105 35 132 13 q 61 97 78 57 q 40 183 46 132 q 35 289 35 233 q 38 385 35 338 q 44 472 40 433 q 52 533 49 510 q 56 557 56 557 m 219 517 q 213 471 215 496 q 208 417 210 449 q 207 349 207 386 q 209 278 207 315 q 220 212 211 242 q 249 163 229 182 q 307 143 269 143 q 338 149 326 143 q 343 174 340 157 q 348 215 346 192 q 351 265 350 238 q 353 321 353 293 q 349 391 353 356 q 334 456 346 426 q 302 503 322 485 q 249 521 282 521 q 219 517 229 521 m 425 749 q 378 763 403 756 q 328 777 356 769 q 271 793 301 785 q 217 807 240 801 q 179 817 194 813 q 149 825 161 822 l 104 979 q 144 967 122 972 q 190 953 164 960 q 246 938 215 946 q 301 923 276 929 q 343 913 325 917 q 381 904 364 907 l 425 749 z "},"":{"ha":553,"x_min":35,"x_max":525,"o":"m 56 557 q 78 575 57 557 q 157 629 100 593 q 204 657 185 647 q 235 674 224 667 q 257 683 249 679 q 265 685 260 683 q 275 685 269 685 q 288 686 281 686 q 339 683 311 686 q 394 668 367 679 q 448 635 422 657 q 492 578 474 614 q 519 473 514 535 q 525 346 525 411 q 523 271 525 307 q 518 206 521 235 q 513 158 515 176 q 508 135 510 139 q 496 122 507 132 q 469 99 485 111 q 438 73 454 86 q 408 51 421 60 q 352 13 383 33 q 301 -14 321 -7 q 285 -16 294 -15 q 265 -17 276 -17 q 218 -14 246 -17 q 161 1 190 -11 q 105 35 132 13 q 61 97 78 57 q 40 183 46 132 q 35 289 35 233 q 38 385 35 338 q 44 472 40 433 q 52 533 49 510 q 56 557 56 557 m 219 517 q 213 471 215 496 q 208 417 210 449 q 207 349 207 386 q 209 278 207 315 q 220 212 211 242 q 249 163 229 182 q 307 143 269 143 q 338 149 326 143 q 343 174 340 157 q 348 215 346 192 q 351 265 350 238 q 353 321 353 293 q 349 391 353 356 q 334 456 346 426 q 302 503 322 485 q 249 521 282 521 q 219 517 229 521 m 157 904 q 194 913 174 907 q 237 923 213 917 q 292 938 261 929 q 348 953 322 946 q 393 967 374 960 q 433 979 415 972 l 389 825 q 358 817 376 822 q 320 807 343 813 q 267 793 297 801 q 160 763 203 775 q 113 749 135 756 l 157 904 z "},"":{"ha":553,"x_min":35,"x_max":525,"o":"m 56 557 q 78 575 57 557 q 157 629 100 593 q 204 657 185 647 q 235 674 224 667 q 257 683 249 679 q 265 685 260 683 q 275 685 269 685 q 288 686 281 686 q 339 683 311 686 q 394 668 367 679 q 448 635 422 657 q 492 578 474 614 q 519 473 514 535 q 525 346 525 411 q 523 271 525 307 q 518 206 521 235 q 513 158 515 176 q 508 135 510 139 q 496 122 507 132 q 469 99 485 111 q 438 73 454 86 q 408 51 421 60 q 352 13 383 33 q 301 -14 321 -7 q 285 -16 294 -15 q 265 -17 276 -17 q 218 -14 246 -17 q 161 1 190 -11 q 105 35 132 13 q 61 97 78 57 q 40 183 46 132 q 35 289 35 233 q 38 385 35 338 q 44 472 40 433 q 52 533 49 510 q 56 557 56 557 m 219 517 q 213 471 215 496 q 208 417 210 449 q 207 349 207 386 q 209 278 207 315 q 220 212 211 242 q 249 163 229 182 q 307 143 269 143 q 338 149 326 143 q 343 174 340 157 q 348 215 346 192 q 351 265 350 238 q 353 321 353 293 q 349 391 353 356 q 334 456 346 426 q 302 503 322 485 q 249 521 282 521 q 219 517 229 521 m 349 742 q 299 827 324 788 q 251 901 275 867 q 206 828 225 863 q 164 749 186 793 l 38 742 q 108 847 76 797 q 176 957 140 897 l 385 957 q 449 856 418 903 q 524 749 481 808 l 349 742 z "},"":{"ha":553,"x_min":35,"x_max":525,"o":"m 89 935 q 135 972 103 972 q 164 968 147 972 l 421 900 q 439 896 431 897 q 454 894 447 894 q 511 932 490 894 l 465 801 q 419 764 451 764 q 390 768 407 764 l 133 836 q 117 840 125 839 q 100 842 108 842 q 43 804 64 842 l 89 935 m 56 557 q 78 575 57 557 q 157 629 100 593 q 204 657 185 647 q 235 674 224 667 q 257 683 249 679 q 265 685 260 683 q 275 685 269 685 q 288 686 281 686 q 339 683 311 686 q 394 668 367 679 q 448 635 422 657 q 492 578 474 614 q 519 473 514 535 q 525 346 525 411 q 523 271 525 307 q 518 206 521 235 q 513 158 515 176 q 508 135 510 139 q 496 122 507 132 q 469 99 485 111 q 438 73 454 86 q 408 51 421 60 q 352 13 383 33 q 301 -14 321 -7 q 285 -16 294 -15 q 265 -17 276 -17 q 218 -14 246 -17 q 161 1 190 -11 q 105 35 132 13 q 61 97 78 57 q 40 183 46 132 q 35 289 35 233 q 38 385 35 338 q 44 472 40 433 q 52 533 49 510 q 56 557 56 557 m 219 517 q 213 471 215 496 q 208 417 210 449 q 207 349 207 386 q 209 278 207 315 q 220 212 211 242 q 249 163 229 182 q 307 143 269 143 q 338 149 326 143 q 343 174 340 157 q 348 215 346 192 q 351 265 350 238 q 353 321 353 293 q 349 391 353 356 q 334 456 346 426 q 302 503 322 485 q 249 521 282 521 q 219 517 229 521 z "},"":{"ha":553,"x_min":15,"x_max":539,"o":"m 288 807 q 307 829 297 817 q 326 852 315 840 q 349 878 338 864 l 399 939 l 418 929 q 438 919 426 925 q 463 907 449 914 q 490 894 476 900 q 514 882 503 888 q 539 871 526 876 q 521 851 531 861 q 502 831 513 842 q 481 807 492 819 q 460 784 469 796 q 442 763 450 772 q 424 742 432 751 q 403 751 414 746 q 381 762 393 756 q 356 775 368 768 q 331 787 343 781 q 310 797 319 793 q 288 807 299 803 m 15 807 q 35 829 25 817 q 54 852 43 840 q 76 878 65 864 l 126 939 l 146 929 q 165 919 154 925 q 190 907 176 914 q 217 894 204 900 q 242 882 231 888 q 267 871 254 876 q 249 851 258 861 q 230 831 240 842 q 208 807 219 819 q 188 784 197 796 q 169 763 178 772 q 151 742 160 751 q 131 751 142 746 q 108 762 121 756 q 83 775 96 768 q 59 787 71 781 q 38 797 47 793 q 15 807 26 803 m 56 557 q 78 575 57 557 q 157 629 100 593 q 204 657 185 647 q 235 674 224 667 q 257 683 249 679 q 265 685 260 683 q 275 685 269 685 q 288 686 281 686 q 339 683 311 686 q 394 668 367 679 q 448 635 422 657 q 492 578 474 614 q 519 473 514 535 q 525 346 525 411 q 523 271 525 307 q 518 206 521 235 q 513 158 515 176 q 508 135 510 139 q 496 122 507 132 q 469 99 485 111 q 438 73 454 86 q 408 51 421 60 q 352 13 383 33 q 301 -14 321 -7 q 285 -16 294 -15 q 265 -17 276 -17 q 218 -14 246 -17 q 161 1 190 -11 q 105 35 132 13 q 61 97 78 57 q 40 183 46 132 q 35 289 35 233 q 38 385 35 338 q 44 472 40 433 q 52 533 49 510 q 56 557 56 557 m 219 517 q 213 471 215 496 q 208 417 210 449 q 207 349 207 386 q 209 278 207 315 q 220 212 211 242 q 249 163 229 182 q 307 143 269 143 q 338 149 326 143 q 343 174 340 157 q 348 215 346 192 q 351 265 350 238 q 353 321 353 293 q 349 391 353 356 q 334 456 346 426 q 302 503 322 485 q 249 521 282 521 q 219 517 229 521 z "},"":{"ha":651,"x_min":35,"x_max":617,"o":"m 85 508 q 171 507 125 507 q 258 506 210 506 q 358 506 307 506 q 452 506 406 506 q 535 507 499 506 q 617 508 578 507 l 567 364 q 481 365 526 364 q 393 366 442 365 q 293 367 344 367 q 199 366 246 367 q 117 365 153 365 q 35 364 74 364 l 85 508 m 319 90 q 256 149 288 113 q 208 221 225 185 l 339 332 q 386 260 354 297 q 450 201 418 224 l 319 90 m 329 547 q 266 606 297 569 q 218 678 235 642 l 349 789 q 396 717 364 754 q 460 658 428 681 l 329 547 z "},"":{"ha":553,"x_min":35,"x_max":525,"o":"m 56 557 q 78 575 57 557 q 157 629 100 593 q 204 657 185 647 q 235 674 224 667 q 257 683 249 679 q 265 685 260 683 q 275 685 269 685 q 288 686 281 686 q 324 685 304 686 q 365 678 344 683 q 385 725 379 710 q 392 743 389 735 l 511 750 q 496 714 504 733 q 478 675 489 697 q 457 625 468 653 q 476 604 467 615 q 492 578 485 593 q 519 473 514 535 q 525 346 525 411 q 523 271 525 307 q 518 206 521 235 q 513 158 515 176 q 508 135 510 139 q 496 122 507 132 q 469 99 485 111 q 438 73 454 86 q 408 51 421 60 q 352 13 383 33 q 301 -14 321 -7 q 285 -16 294 -15 q 265 -17 276 -17 q 232 -15 250 -17 q 193 -8 214 -14 q 175 -53 182 -35 q 169 -69 171 -62 l 50 -76 q 64 -44 57 -62 q 80 -8 71 -29 q 100 39 89 13 q 78 64 89 50 q 61 97 68 78 q 40 183 46 132 q 35 289 35 233 q 38 385 35 338 q 44 472 40 433 q 52 533 49 510 q 56 557 56 557 m 347 363 q 302 256 324 310 q 260 153 281 201 q 307 142 279 142 q 338 147 326 142 q 343 173 340 156 q 348 214 346 190 q 351 265 350 238 q 353 321 353 293 q 353 346 353 333 q 351 372 353 358 l 347 363 m 219 517 q 213 471 215 496 q 208 417 210 449 q 207 349 207 386 l 207 289 l 238 363 q 251 398 242 374 q 271 446 260 422 q 296 507 282 474 q 249 521 275 521 q 219 517 229 521 z "},"":{"ha":564,"x_min":49,"x_max":515,"o":"m 225 672 q 224 532 224 604 q 222 394 222 469 q 222 246 222 319 q 243 162 222 185 q 299 139 264 139 q 328 142 317 139 q 336 144 333 143 l 336 333 q 335 433 336 375 q 335 544 335 492 q 333 672 333 607 l 515 672 q 514 563 514 618 q 513 454 513 514 q 513 336 513 394 q 513 208 513 269 q 514 101 513 147 q 515 0 514 46 l 335 0 l 335 25 q 335 52 335 36 q 336 88 336 68 q 313 60 325 75 q 260 3 292 35 q 237 -7 253 -3 q 193 -11 221 -11 q 120 6 149 -11 q 76 51 92 22 q 54 119 60 81 q 49 201 49 157 q 49 302 49 243 q 50 417 50 361 q 49 513 50 467 q 49 594 49 558 l 49 672 l 225 672 m 422 749 q 375 763 400 756 q 326 777 353 769 q 268 793 299 785 q 215 807 238 801 q 176 817 192 813 q 146 825 158 822 l 101 979 q 142 967 119 972 q 187 953 161 960 q 243 938 213 946 q 298 923 274 929 q 340 913 322 917 q 378 904 361 907 l 422 749 z "},"":{"ha":564,"x_min":49,"x_max":515,"o":"m 225 672 q 224 532 224 604 q 222 394 222 469 q 222 246 222 319 q 243 162 222 185 q 299 139 264 139 q 328 142 317 139 q 336 144 333 143 l 336 333 q 335 433 336 375 q 335 544 335 492 q 333 672 333 607 l 515 672 q 514 563 514 618 q 513 454 513 514 q 513 336 513 394 q 513 208 513 269 q 514 101 513 147 q 515 0 514 46 l 335 0 l 335 25 q 335 52 335 36 q 336 88 336 68 q 313 60 325 75 q 260 3 292 35 q 237 -7 253 -3 q 193 -11 221 -11 q 120 6 149 -11 q 76 51 92 22 q 54 119 60 81 q 49 201 49 157 q 49 302 49 243 q 50 417 50 361 q 49 513 50 467 q 49 594 49 558 l 49 672 l 225 672 m 178 904 q 215 913 194 907 q 258 923 233 917 q 313 938 282 929 q 369 953 343 946 q 414 967 394 960 q 454 979 436 972 l 410 825 q 379 817 397 822 q 341 807 364 813 q 288 793 318 801 q 181 763 224 775 q 133 749 156 756 l 178 904 z "},"":{"ha":564,"x_min":49,"x_max":535,"o":"m 360 742 q 310 827 335 788 q 263 901 286 867 q 217 828 236 863 q 175 749 197 793 l 49 742 q 119 847 88 797 q 188 957 151 897 l 396 957 q 460 856 429 903 q 535 749 492 808 l 360 742 m 225 672 q 224 532 224 604 q 222 394 222 469 q 222 246 222 319 q 243 162 222 185 q 299 139 264 139 q 328 142 317 139 q 336 144 333 143 l 336 333 q 335 433 336 375 q 335 544 335 492 q 333 672 333 607 l 515 672 q 514 563 514 618 q 513 454 513 514 q 513 336 513 394 q 513 208 513 269 q 514 101 513 147 q 515 0 514 46 l 335 0 l 335 25 q 335 52 335 36 q 336 88 336 68 q 313 60 325 75 q 260 3 292 35 q 237 -7 253 -3 q 193 -11 221 -11 q 120 6 149 -11 q 76 51 92 22 q 54 119 60 81 q 49 201 49 157 q 49 302 49 243 q 50 417 50 361 q 49 513 50 467 q 49 594 49 558 l 49 672 l 225 672 z "},"":{"ha":564,"x_min":22,"x_max":546,"o":"m 294 807 q 314 829 304 817 q 333 852 322 840 q 356 878 344 864 l 406 939 l 425 929 q 444 919 433 925 q 469 907 456 914 q 497 894 483 900 q 521 882 510 888 q 546 871 533 876 q 528 851 538 861 q 509 831 519 842 q 488 807 499 819 q 467 784 476 796 q 449 763 457 772 q 431 742 439 751 q 410 751 421 746 q 388 762 400 756 q 363 775 375 768 q 338 787 350 781 q 317 797 326 793 q 294 807 306 803 m 22 807 q 42 829 32 817 q 61 852 50 840 q 83 878 72 864 l 133 939 l 153 929 q 172 919 161 925 q 197 907 183 914 q 224 894 211 900 q 249 882 238 888 q 274 871 261 876 q 256 851 265 861 q 237 831 247 842 q 215 807 226 819 q 194 784 204 796 q 176 763 185 772 q 158 742 167 751 q 138 751 149 746 q 115 762 128 756 q 90 775 103 768 q 66 787 78 781 q 44 797 54 793 q 22 807 33 803 m 225 672 q 224 532 224 604 q 222 394 222 469 q 222 246 222 319 q 243 162 222 185 q 299 139 264 139 q 328 142 317 139 q 336 144 333 143 l 336 333 q 335 433 336 375 q 335 544 335 492 q 333 672 333 607 l 515 672 q 514 563 514 618 q 513 454 513 514 q 513 336 513 394 q 513 208 513 269 q 514 101 513 147 q 515 0 514 46 l 335 0 l 335 25 q 335 52 335 36 q 336 88 336 68 q 313 60 325 75 q 260 3 292 35 q 237 -7 253 -3 q 193 -11 221 -11 q 120 6 149 -11 q 76 51 92 22 q 54 119 60 81 q 49 201 49 157 q 49 302 49 243 q 50 417 50 361 q 49 513 50 467 q 49 594 49 558 l 49 672 l 225 672 z "},"":{"ha":557,"x_min":50,"x_max":508,"o":"m 229 672 q 228 535 228 607 q 226 393 226 472 q 226 229 226 314 q 247 165 226 185 q 294 146 268 146 q 335 158 315 146 q 334 363 335 269 q 333 526 333 457 q 332 672 332 607 l 508 672 q 507 565 507 621 l 507 326 l 507 21 q 508 -122 507 -54 q 471 -167 494 -142 q 420 -218 447 -193 q 367 -265 393 -243 q 322 -299 340 -287 q 298 -303 311 -301 q 274 -304 285 -304 q 147 -272 203 -304 q 58 -196 90 -240 l 194 -64 q 214 -90 200 -76 q 246 -116 228 -104 q 286 -136 264 -128 q 332 -144 308 -144 l 332 89 q 306 64 318 76 q 283 40 294 53 q 260 18 271 28 q 181 -11 228 -11 q 137 -4 158 -11 q 99 18 115 3 q 58 91 65 49 q 50 164 50 133 q 51 200 50 181 q 51 246 51 219 q 52 307 51 272 q 53 389 53 342 q 52 489 53 438 q 51 581 51 540 q 50 672 50 628 l 229 672 m 175 904 q 213 913 192 907 q 255 923 231 917 q 310 938 279 929 q 366 953 340 946 q 411 967 392 960 q 451 979 433 972 l 407 825 q 376 817 394 822 q 338 807 361 813 q 285 793 315 801 q 178 763 221 775 q 131 749 153 756 l 175 904 z "},"":{"ha":563,"x_min":49,"x_max":526,"o":"m 232 972 q 231 850 231 915 q 229 725 229 794 q 229 583 229 656 q 263 619 247 603 q 291 649 276 635 q 314 669 306 663 q 340 683 325 679 q 369 686 354 686 q 415 680 393 686 q 449 665 436 674 q 473 647 460 658 q 498 614 486 635 q 518 563 510 593 q 526 489 526 532 q 524 390 526 446 q 518 283 521 335 q 511 192 515 232 q 506 139 507 151 q 471 97 490 118 q 428 56 451 75 q 382 19 406 36 q 338 -8 358 3 q 304 -10 322 -10 q 269 -11 289 -11 q 229 -11 249 -11 q 229 -135 229 -81 q 231 -226 229 -189 q 232 -304 231 -271 l 49 -304 q 50 -85 49 -197 q 52 126 51 11 q 53 344 53 240 q 52 560 53 449 q 50 763 51 671 q 49 972 49 869 l 232 972 m 349 417 q 339 467 349 447 q 315 497 329 486 q 285 510 301 507 q 257 514 269 514 q 244 513 250 514 q 236 513 239 513 q 229 511 231 511 l 229 178 q 246 139 229 154 q 314 124 263 124 q 347 128 332 124 l 347 221 q 348 314 347 263 q 349 417 349 365 z "},"":{"ha":557,"x_min":18,"x_max":542,"o":"m 290 807 q 310 829 300 817 q 329 852 318 840 q 351 878 340 864 l 401 939 l 421 929 q 440 919 429 925 q 465 907 451 914 q 492 894 479 900 q 517 882 506 888 q 542 871 529 876 q 524 851 533 861 q 505 831 515 842 q 483 807 494 819 q 463 784 472 796 q 444 763 453 772 q 426 742 435 751 q 406 751 417 746 q 383 762 396 756 q 358 775 371 768 q 334 787 346 781 q 313 797 322 793 q 290 807 301 803 m 18 807 q 38 829 28 817 q 57 852 46 840 q 79 878 68 864 l 129 939 l 149 929 q 168 919 157 925 q 193 907 179 914 q 220 894 207 900 q 244 882 233 888 q 269 871 257 876 q 251 851 261 861 q 233 831 243 842 q 211 807 222 819 q 190 784 200 796 q 172 763 181 772 q 154 742 163 751 q 133 751 144 746 q 111 762 124 756 q 86 775 99 768 q 62 787 74 781 q 40 797 50 793 q 18 807 29 803 m 229 672 q 228 535 228 607 q 226 393 226 472 q 226 229 226 314 q 247 165 226 185 q 294 146 268 146 q 335 158 315 146 q 334 363 335 269 q 333 526 333 457 q 332 672 332 607 l 508 672 q 507 565 507 621 l 507 326 l 507 21 q 508 -122 507 -54 q 471 -167 494 -142 q 420 -218 447 -193 q 367 -265 393 -243 q 322 -299 340 -287 q 298 -303 311 -301 q 274 -304 285 -304 q 147 -272 203 -304 q 58 -196 90 -240 l 194 -64 q 214 -90 200 -76 q 246 -116 228 -104 q 286 -136 264 -128 q 332 -144 308 -144 l 332 89 q 306 64 318 76 q 283 40 294 53 q 260 18 271 28 q 181 -11 228 -11 q 137 -4 158 -11 q 99 18 115 3 q 58 91 65 49 q 50 164 50 133 q 51 200 50 181 q 51 246 51 219 q 52 307 51 272 q 53 389 53 342 q 52 489 53 438 q 51 581 51 540 q 50 672 50 628 l 229 672 z "},"":{"ha":286,"x_min":54,"x_max":233,"o":"m 233 672 q 232 569 232 624 q 231 465 231 524 q 231 347 231 407 q 231 219 231 281 q 232 108 231 157 q 233 0 232 51 l 54 0 q 56 108 54 51 q 56 219 56 157 q 57 347 57 281 q 56 465 57 407 q 56 569 56 524 q 54 672 54 624 l 233 672 z "},"":{"ha":460,"x_min":-79,"x_max":460,"o":"m 376 522 l 239 469 l 239 146 q 319 148 281 146 q 390 153 358 150 q 460 160 426 156 l 351 0 l 56 0 q 57 110 56 49 q 58 234 58 163 q 60 392 58 306 l 4 367 l -79 451 l 60 506 q 59 691 60 606 q 57 839 58 776 q 56 972 56 913 l 243 972 q 240 854 242 918 q 239 730 239 800 q 239 581 239 660 q 266 593 253 588 q 294 606 279 599 l 376 522 z "},"":{"ha":281,"x_min":-89,"x_max":367,"o":"m 367 522 q 292 494 326 507 q 228 468 258 481 q 228 283 228 368 q 229 135 228 197 q 232 0 231 61 l 49 0 q 50 113 49 50 q 51 237 51 165 q 53 393 51 308 l -6 367 l -89 451 l 53 507 q 52 668 53 586 q 50 818 51 750 q 49 972 49 897 l 232 972 q 229 844 231 911 q 228 719 228 788 q 228 581 228 650 q 256 592 242 586 q 285 606 269 599 l 367 522 z "},"":{"ha":881,"x_min":42,"x_max":865,"o":"m 857 972 l 767 824 q 726 825 749 824 q 683 826 707 825 q 632 826 660 826 l 632 569 q 707 569 671 569 q 772 571 743 569 q 836 572 806 571 l 760 428 q 722 429 743 428 q 681 430 704 429 q 632 431 658 431 l 632 146 q 717 146 676 146 q 792 147 758 146 q 865 149 829 147 l 788 0 l 444 0 l 444 32 q 407 6 425 17 q 378 -12 389 -6 q 331 -17 358 -17 q 192 17 247 -17 q 103 109 136 51 q 56 241 69 167 q 42 396 42 315 q 49 545 42 471 q 64 679 56 619 q 88 813 74 749 q 124 843 104 828 q 161 874 140 857 q 204 907 182 890 q 278 957 249 940 q 308 975 294 967 q 357 979 329 979 q 444 963 400 979 l 444 972 l 857 972 m 260 801 q 246 713 251 764 q 236 602 240 668 q 232 449 232 536 q 274 235 232 303 q 383 167 317 167 q 401 167 394 167 q 415 171 408 168 q 428 258 422 211 q 438 353 433 299 q 442 472 442 408 q 436 594 442 535 q 411 699 431 653 q 356 774 392 746 q 260 801 319 801 z "},"":{"ha":765,"x_min":35,"x_max":738,"o":"m 56 557 q 78 575 57 557 q 157 629 100 593 q 204 657 185 647 q 235 674 224 667 q 257 683 249 679 q 265 685 260 683 q 275 685 269 685 q 288 686 281 686 q 372 676 325 686 q 458 625 419 665 q 515 663 488 646 q 565 686 542 679 q 658 667 626 686 q 710 621 690 649 q 733 553 729 593 q 738 483 738 514 q 737 448 738 465 q 733 419 736 431 q 669 369 697 392 q 607 317 642 347 q 577 317 592 317 q 551 318 563 318 l 526 318 q 525 297 525 308 q 525 278 525 286 q 547 183 525 207 q 604 160 568 160 q 670 178 644 160 q 713 219 696 196 q 721 218 717 219 q 728 211 725 217 q 717 178 726 204 q 697 122 708 153 q 676 63 686 90 q 660 25 665 35 q 613 -1 651 14 q 526 -17 575 -17 q 449 -1 482 -17 q 394 42 417 15 q 344 9 371 25 q 301 -14 317 -7 q 285 -16 294 -15 q 265 -17 276 -17 q 218 -14 246 -17 q 161 1 190 -11 q 105 35 132 13 q 61 97 78 57 q 40 183 46 132 q 35 289 35 233 q 38 385 35 338 q 44 472 40 433 q 52 533 49 510 q 56 557 56 557 m 219 519 q 213 472 215 499 q 208 417 210 449 q 207 349 207 386 q 209 278 207 315 q 220 212 211 242 q 249 163 229 182 q 307 143 269 143 q 338 149 326 143 q 343 174 340 157 q 348 215 346 192 q 351 265 350 238 q 353 321 353 293 q 349 392 353 356 q 334 457 346 428 q 302 505 322 486 q 249 524 282 524 q 219 519 229 524 m 601 440 q 586 500 601 474 q 542 526 571 526 q 535 526 538 526 q 529 525 532 525 l 526 525 q 525 490 525 508 l 525 413 q 600 417 568 413 q 601 428 601 422 q 601 440 601 435 z "},"":{"ha":497,"x_min":10,"x_max":496,"o":"m 258 979 q 318 972 285 979 q 381 946 351 965 q 431 890 410 926 q 454 793 451 853 l 275 704 q 267 753 272 731 q 250 788 261 772 q 219 806 239 803 q 211 688 211 744 q 224 626 211 644 q 263 596 238 608 q 313 570 283 585 q 361 544 343 556 q 440 462 417 513 q 464 340 464 411 q 458 259 464 297 q 444 192 451 221 q 425 126 436 157 l 268 -14 q 249 -17 260 -17 q 228 -18 238 -18 q 163 -12 196 -18 q 103 15 131 -6 q 58 76 76 36 q 39 186 40 117 l 219 258 q 228 208 222 231 q 244 173 233 189 q 275 154 256 157 q 288 205 283 178 q 292 258 292 232 q 285 315 292 292 q 263 354 278 338 q 226 384 249 371 q 174 410 204 397 q 95 461 132 428 q 46 560 58 494 q 41 599 43 579 q 39 639 39 618 q 50 744 39 689 q 85 853 61 799 l 258 979 m 185 1236 q 234 1151 210 1190 q 282 1076 258 1111 q 328 1150 308 1115 q 369 1229 347 1185 l 496 1236 q 459 1182 476 1208 q 425 1130 442 1156 q 392 1077 408 1104 q 357 1021 375 1050 l 149 1021 q 84 1122 115 1075 q 10 1229 53 1169 l 185 1236 z "},"":{"ha":439,"x_min":-22,"x_max":464,"o":"m 153 957 q 202 872 178 911 q 250 797 226 832 q 296 871 276 836 q 338 950 315 906 l 464 957 q 427 903 444 929 q 393 851 410 876 q 360 798 376 825 q 325 742 343 771 l 117 742 q 52 843 83 796 q -22 950 21 890 l 153 957 m 261 450 q 243 489 253 472 q 221 516 233 504 q 192 531 208 528 q 186 494 186 513 q 204 444 186 464 q 263 421 222 424 q 376 374 342 414 q 411 251 411 335 q 408 195 411 224 q 399 143 406 167 q 363 99 386 124 q 312 51 339 74 q 258 10 285 28 q 211 -11 232 -7 q 199 -12 204 -12 q 186 -12 193 -12 q 122 0 149 -12 q 76 32 94 13 q 48 75 58 51 q 32 122 38 99 l 179 218 q 192 178 182 194 q 213 151 199 163 q 251 139 228 139 q 253 159 253 150 q 253 176 253 168 q 238 235 253 219 q 179 253 222 250 q 69 294 111 256 q 28 410 28 332 q 33 472 28 442 q 50 531 39 503 q 85 567 63 544 q 135 613 108 590 q 191 653 163 635 q 242 681 219 672 q 319 667 289 681 q 369 633 350 653 q 395 589 388 613 q 404 546 403 565 l 261 450 l 261 450 z "},"":{"ha":513,"x_min":7,"x_max":533,"o":"m 282 1086 q 301 1108 292 1096 q 321 1131 310 1119 q 343 1157 332 1143 l 393 1218 l 413 1208 q 432 1199 421 1204 q 457 1186 443 1193 q 484 1173 471 1179 q 508 1161 497 1167 q 533 1150 521 1156 q 515 1131 525 1140 q 497 1110 507 1121 q 475 1086 486 1099 q 454 1063 464 1075 q 436 1042 444 1051 q 418 1021 426 1031 q 397 1031 408 1025 q 375 1041 388 1035 q 350 1054 363 1047 q 326 1066 338 1060 q 304 1076 314 1072 q 282 1086 293 1082 m 10 1086 q 29 1108 19 1096 q 49 1131 38 1119 q 71 1157 60 1143 l 121 1218 l 140 1208 q 160 1199 149 1204 q 185 1186 171 1193 q 212 1173 199 1179 q 236 1161 225 1167 q 261 1150 249 1156 q 243 1131 253 1140 q 224 1110 235 1121 q 203 1086 214 1099 q 182 1063 192 1075 q 164 1042 172 1051 q 146 1021 154 1031 q 125 1031 136 1025 q 103 1041 115 1035 q 78 1054 90 1047 q 53 1066 65 1060 q 32 1076 42 1072 q 10 1086 21 1082 m 168 0 q 169 111 168 51 q 172 228 171 163 q 172 369 172 294 l 7 972 l 210 972 l 293 629 l 367 972 l 513 972 l 360 410 q 360 246 360 321 q 361 117 360 171 q 363 0 361 51 l 168 0 z "},"":{"ha":450,"x_min":4,"x_max":490,"o":"m 435 972 q 390 826 414 901 q 347 683 371 761 q 300 528 324 606 q 260 388 278 453 q 228 274 242 322 q 199 167 213 217 q 288 167 243 167 q 368 169 332 168 q 447 174 410 171 l 397 0 l 8 0 q 57 161 32 78 q 103 317 78 232 q 151 486 128 403 q 188 614 171 554 q 215 718 204 674 q 240 813 229 769 q 161 811 200 813 q 92 808 122 810 q 24 806 56 807 l 81 972 l 435 972 m 179 1236 q 228 1151 204 1190 q 276 1076 253 1111 q 322 1150 303 1115 q 364 1229 342 1185 l 490 1236 q 453 1182 471 1208 q 419 1130 436 1156 q 386 1077 403 1104 q 351 1021 369 1050 l 143 1021 q 78 1122 110 1075 q 4 1229 47 1169 l 179 1236 z "},"":{"ha":411,"x_min":-25,"x_max":461,"o":"m 150 957 q 199 872 175 911 q 247 797 224 832 q 293 871 274 836 q 335 950 313 906 l 461 957 q 424 903 442 929 q 390 851 407 876 q 357 798 374 825 q 322 742 340 771 l 114 742 q 49 843 81 796 q -25 950 18 890 l 150 957 m 75 672 l 393 672 q 363 596 378 636 q 332 518 349 561 q 299 431 315 475 q 263 335 279 382 q 233 250 247 288 q 204 167 218 206 q 274 167 240 167 q 333 168 307 167 q 392 171 364 169 l 361 0 l 18 0 q 51 82 33 38 q 86 169 67 119 q 126 278 106 219 q 158 368 143 325 q 183 443 172 411 q 207 513 196 481 q 136 512 169 513 q 79 510 103 511 q 28 508 51 508 l 75 672 z "},"":{"ha":518,"x_min":14,"x_max":504,"o":"m 60 614 q 96 613 76 613 q 135 612 113 613 q 183 611 158 611 q 182 684 182 653 q 182 736 182 715 q 181 778 182 761 q 258 888 211 836 q 343 967 304 939 q 361 972 351 969 q 381 977 369 975 q 408 979 393 979 q 433 976 424 979 q 450 969 443 972 q 463 960 457 964 l 425 781 q 379 803 401 799 q 339 807 357 807 q 338 756 339 785 q 335 694 336 731 q 335 611 335 657 q 398 611 367 611 q 453 613 429 611 q 504 614 481 613 l 458 469 q 421 471 440 469 q 382 472 404 471 q 335 472 360 472 l 335 371 q 335 178 335 267 q 336 26 335 90 q 339 -110 338 -50 q 262 -219 308 -168 q 176 -299 215 -271 q 158 -306 168 -303 q 138 -310 150 -308 q 111 -311 126 -311 q 69 -301 83 -311 q 57 -292 63 -297 l 94 -112 q 140 -135 118 -131 q 181 -139 163 -139 q 182 11 181 -71 q 184 174 183 82 q 185 371 185 267 l 185 472 q 121 471 151 471 q 67 471 90 471 q 14 469 39 471 l 60 614 z "},"":{"ha":542,"x_min":28,"x_max":514,"o":"m 339 757 q 290 842 314 803 q 242 917 265 882 q 196 843 215 878 q 154 764 176 808 l 28 757 q 99 863 67 813 q 167 972 131 913 l 375 972 q 440 871 408 918 q 514 764 471 824 l 339 757 z "},"":{"ha":542,"x_min":28,"x_max":514,"o":"m 203 979 q 252 894 228 933 q 300 819 276 854 q 346 893 326 858 q 388 972 365 928 l 514 979 q 477 925 494 951 q 443 873 460 899 q 410 820 426 847 q 375 764 393 793 l 167 764 q 102 865 133 818 q 28 972 71 913 l 203 979 z "},"":{"ha":446,"x_min":42,"x_max":418,"o":"m 282 885 q 363 909 335 885 q 406 964 390 933 q 418 958 414 964 q 405 918 413 940 q 388 873 397 896 q 369 829 379 850 q 350 792 360 808 q 318 774 338 781 q 275 762 301 767 q 211 757 249 757 q 143 768 172 757 q 93 798 114 779 q 60 841 72 817 q 42 890 47 865 l 168 972 q 188 928 172 947 q 222 898 200 911 q 282 885 244 885 z "},"":{"ha":318,"x_min":42,"x_max":283,"o":"m 153 757 q 90 815 121 779 q 42 888 58 851 l 172 999 q 219 927 188 964 q 283 868 251 890 l 153 757 z "},"":{"ha":289,"x_min":35,"x_max":242,"o":"m 35 856 q 113 971 35 931 q 143 979 126 979 q 203 958 178 979 q 242 875 242 924 q 225 814 242 840 q 176 764 208 788 q 133 750 156 750 q 64 780 93 750 q 35 856 35 810 m 153 803 q 178 807 175 803 q 186 826 182 814 q 190 854 190 839 q 169 910 190 889 q 119 931 147 931 q 103 926 107 931 q 92 907 96 919 q 89 879 89 894 q 106 824 89 844 q 153 803 124 803 z "},"":{"ha":286,"x_min":40,"x_max":244,"o":"m 40 -181 q 58 -74 40 -122 q 104 14 76 -26 l 161 14 q 131 -74 139 -39 q 122 -142 122 -110 q 138 -201 122 -179 q 185 -222 153 -222 q 213 -219 203 -222 q 236 -208 222 -215 q 244 -219 244 -211 q 221 -247 232 -233 q 199 -271 210 -258 q 182 -290 189 -283 q 139 -300 167 -300 q 92 -290 111 -300 q 62 -264 74 -281 q 45 -226 50 -247 q 40 -181 40 -204 z "},"":{"ha":524,"x_min":28,"x_max":496,"o":"m 74 935 q 119 972 88 972 q 149 968 132 972 l 406 900 q 424 896 415 897 q 439 894 432 894 q 496 932 475 894 l 450 801 q 404 764 436 764 q 375 768 392 764 l 118 836 q 101 840 110 839 q 85 842 93 842 q 28 804 49 842 l 74 935 z "},"":{"ha":551,"x_min":42,"x_max":510,"o":"m 42 906 q 69 932 54 917 l 140 1003 q 181 1044 163 1025 q 214 1079 200 1064 q 243 1110 229 1096 l 282 954 q 258 932 272 946 l 192 865 q 149 822 168 843 q 114 785 129 801 q 81 749 96 765 l 42 906 m 269 906 q 297 932 282 917 l 368 1003 q 409 1044 390 1025 q 442 1079 428 1064 q 471 1110 457 1096 l 510 954 q 486 932 500 946 l 419 865 q 376 822 396 843 q 342 785 357 801 q 308 749 324 765 l 269 906 z "},"":{"ha":699,"x_min":14,"x_max":683,"o":"m 490 979 q 518 829 503 910 q 548 668 531 760 q 585 472 565 576 q 619 298 601 382 q 651 147 636 214 q 683 0 668 69 l 14 0 q 44 147 29 69 q 75 298 58 214 q 110 472 92 382 q 146 667 129 576 q 175 826 163 758 q 200 972 189 906 l 490 979 m 318 844 q 274 618 296 736 q 234 391 254 517 q 197 139 214 265 l 449 139 q 408 391 431 265 q 367 618 386 517 q 318 844 343 736 z "},"":{"ha":757,"x_min":21,"x_max":743,"o":"m 357 0 l 51 0 l 21 172 q 56 158 38 164 q 92 148 71 153 q 135 140 113 143 q 151 139 146 139 q 161 139 156 139 q 99 254 121 189 q 78 403 78 319 q 85 569 78 494 q 100 699 92 644 q 122 813 110 763 q 158 843 139 828 q 196 874 175 857 q 239 907 217 890 q 281 936 260 922 q 317 960 301 950 q 353 979 335 971 q 668 578 668 979 q 659 398 668 475 q 639 269 650 321 q 611 167 626 208 q 600 153 607 160 q 586 139 593 146 q 611 140 601 139 q 633 142 621 140 q 673 150 653 144 q 708 163 693 156 q 743 179 726 169 l 713 0 l 421 0 l 421 125 q 449 204 436 154 q 469 318 460 247 q 478 496 478 389 q 470 606 478 551 q 442 704 463 661 q 387 774 422 747 q 294 801 351 801 q 288 783 293 801 q 278 726 283 765 q 269 624 274 686 q 265 472 265 561 q 272 346 265 400 q 292 251 279 292 q 321 181 304 211 q 357 125 338 150 l 357 0 z "},"":{"ha":869,"x_min":35,"x_max":835,"o":"m 126 411 q 225 410 169 410 q 337 408 272 408 q 481 408 401 408 q 624 408 560 408 q 736 410 689 408 q 835 411 792 410 l 743 267 q 644 268 700 267 q 533 269 597 268 q 389 269 468 269 q 245 269 310 269 q 133 268 181 268 q 35 267 78 267 l 126 411 l 126 411 z "},"":{"ha":1064,"x_min":35,"x_max":1029,"o":"m 126 411 q 247 410 179 410 q 390 408 306 408 q 578 408 474 408 q 765 408 682 408 q 907 410 849 408 q 1029 411 975 410 l 938 267 q 815 268 883 267 q 674 269 757 268 q 486 269 590 269 q 298 269 382 269 q 156 268 214 268 q 35 267 88 267 l 126 411 l 126 411 z "},"":{"ha":235,"x_min":22,"x_max":215,"o":"m 22 789 q 42 841 28 814 q 76 894 56 868 q 125 942 97 919 q 185 979 153 964 q 163 914 168 944 q 157 856 157 883 q 178 807 163 829 q 215 768 194 785 l 85 657 q 65 678 76 665 q 45 708 54 690 q 29 745 36 725 q 22 789 22 765 z "},"":{"ha":235,"x_min":19,"x_max":213,"o":"m 213 847 q 193 795 207 822 q 158 742 179 768 q 110 694 138 717 q 50 657 82 671 q 72 722 67 692 q 78 781 78 753 q 56 829 72 807 q 19 868 40 851 l 150 979 q 169 958 158 971 q 190 928 181 946 q 206 890 199 911 q 213 847 213 869 z "},"":{"ha":235,"x_min":19,"x_max":213,"o":"m 213 93 q 193 41 207 68 q 158 -12 179 14 q 110 -60 138 -37 q 50 -97 82 -83 q 72 -32 67 -62 q 78 26 78 -1 q 56 75 72 53 q 19 114 40 97 l 150 225 q 169 204 158 217 q 190 174 181 192 q 206 136 199 157 q 213 93 213 115 z "},"":{"ha":456,"x_min":22,"x_max":436,"o":"m 22 789 q 42 841 28 814 q 76 894 56 868 q 125 942 97 919 q 185 979 153 964 q 163 914 168 944 q 157 856 157 883 q 178 807 163 829 q 215 768 194 785 l 85 657 q 65 678 76 665 q 45 708 54 690 q 29 745 36 725 q 22 789 22 765 m 243 789 q 263 841 249 814 q 297 894 276 868 q 346 942 318 919 q 406 979 374 964 q 383 914 389 944 q 378 856 378 883 q 399 807 383 829 q 436 768 415 785 l 306 657 q 286 678 297 665 q 266 708 275 690 q 250 745 257 725 q 243 789 243 765 z "},"":{"ha":456,"x_min":19,"x_max":433,"o":"m 213 847 q 193 795 207 822 q 158 742 179 768 q 110 694 138 717 q 50 657 82 671 q 72 722 67 692 q 78 781 78 753 q 56 829 72 807 q 19 868 40 851 l 150 979 q 169 958 158 971 q 190 928 181 946 q 206 890 199 911 q 213 847 213 869 m 433 847 q 414 795 428 822 q 379 742 400 768 q 331 694 358 717 q 271 657 303 671 q 293 722 288 692 q 299 781 299 753 q 277 829 293 807 q 240 868 261 851 l 371 979 q 390 958 379 971 q 410 928 401 946 q 426 890 419 911 q 433 847 433 869 z "},"":{"ha":456,"x_min":19,"x_max":433,"o":"m 213 93 q 193 41 207 68 q 158 -12 179 14 q 110 -60 138 -37 q 50 -97 82 -83 q 72 -32 67 -62 q 78 26 78 -1 q 56 75 72 53 q 19 114 40 97 l 150 225 q 169 204 158 217 q 190 174 181 192 q 206 136 199 157 q 213 93 213 115 m 433 93 q 414 41 428 68 q 379 -12 400 14 q 331 -60 358 -37 q 271 -97 303 -83 q 293 -32 288 -62 q 299 26 299 -1 q 277 75 293 53 q 240 114 261 97 l 371 225 q 390 204 379 217 q 410 174 401 192 q 426 136 419 157 q 433 93 433 115 z "},"":{"ha":507,"x_min":7,"x_max":500,"o":"m 51 675 q 88 674 67 674 q 130 672 106 672 q 183 672 154 672 q 183 794 183 739 q 182 889 182 849 l 182 972 l 326 979 q 325 894 325 942 q 324 797 325 854 q 324 672 324 740 q 394 672 363 672 q 450 674 426 672 q 500 675 476 674 l 456 544 q 418 546 439 546 q 376 546 400 546 q 324 547 353 546 l 324 382 q 324 93 324 219 q 325 -122 324 -33 q 326 -304 325 -226 l 182 -311 q 183 -126 182 -232 q 184 92 183 -36 q 185 382 185 219 l 185 547 q 113 546 144 546 q 57 546 81 546 q 7 544 29 546 l 51 675 l 51 675 z "},"":{"ha":507,"x_min":7,"x_max":500,"o":"m 51 675 q 88 674 67 674 q 130 672 106 672 q 183 672 154 672 q 183 794 183 739 q 182 889 182 849 l 182 972 l 326 979 q 325 894 325 942 q 324 797 325 854 q 324 672 324 740 q 394 672 363 672 q 450 674 426 672 q 500 675 476 674 l 456 544 q 418 546 439 546 q 376 546 400 546 q 324 547 353 546 l 324 401 q 394 401 363 401 q 450 403 426 401 q 500 404 476 403 l 456 274 q 418 275 439 275 q 376 275 400 275 q 324 276 353 275 q 324 32 324 139 q 325 -150 324 -75 q 326 -304 325 -237 l 182 -311 q 183 -154 183 -243 q 183 31 183 -78 q 185 276 183 139 q 113 275 144 275 q 57 275 81 275 q 7 274 29 275 l 51 404 q 89 403 68 403 q 131 401 107 401 q 185 401 154 401 l 185 547 q 113 546 144 546 q 57 546 81 546 q 7 544 29 546 l 51 675 l 51 675 z "},"":{"ha":308,"x_min":33,"x_max":275,"o":"m 144 240 q 81 299 113 263 q 33 371 50 335 l 164 482 q 211 410 179 447 q 275 351 243 374 l 144 240 z "},"":{"ha":1410,"x_min":54,"x_max":1356,"o":"m 792 1049 q 722 889 758 975 q 651 720 690 815 q 567 521 611 625 q 480 311 522 417 q 404 121 438 206 q 329 -69 365 22 l 218 -76 q 304 118 260 17 q 386 310 342 204 q 474 521 431 417 q 553 719 515 625 q 621 885 592 813 q 683 1042 656 969 l 792 1049 m 71 889 q 89 903 72 889 q 146 940 106 917 q 203 971 185 963 l 219 979 l 226 979 q 261 977 240 979 q 304 967 282 975 q 347 944 326 960 q 381 903 368 929 q 398 831 394 875 q 401 742 401 786 q 398 642 401 686 q 392 593 394 599 q 381 581 389 589 q 360 563 372 572 q 336 544 349 553 q 315 529 324 535 q 274 501 297 517 q 235 483 250 486 l 226 483 q 190 485 211 483 q 149 496 169 488 q 108 521 128 504 q 76 565 89 538 q 60 632 65 589 q 54 715 54 675 q 56 781 54 750 q 62 836 58 813 q 68 874 65 860 q 71 889 71 889 m 188 861 q 182 832 185 849 q 178 739 178 803 q 180 687 178 713 q 189 641 182 661 q 210 608 196 621 q 247 596 224 596 q 267 599 258 596 q 272 615 269 601 q 276 646 275 628 q 278 685 278 664 q 279 728 279 707 q 278 774 279 750 q 269 818 276 799 q 248 851 263 838 q 207 864 233 864 q 188 861 196 864 m 614 392 q 632 406 615 392 q 689 443 649 419 q 746 474 728 465 l 763 482 l 769 482 q 804 480 783 482 q 847 470 825 478 q 890 447 869 463 q 924 406 911 432 q 941 333 938 378 q 944 244 944 289 q 941 145 944 189 q 935 96 938 101 q 924 83 932 92 q 903 65 915 75 q 879 47 892 56 q 858 32 867 38 q 817 4 840 19 q 778 -14 793 -11 l 769 -14 q 733 -12 754 -14 q 692 -1 713 -10 q 651 24 671 7 q 619 68 632 40 q 603 135 608 92 q 597 218 597 178 q 599 284 597 253 q 605 339 601 315 q 611 377 608 363 q 614 392 614 392 m 731 364 q 725 335 728 351 q 721 242 721 306 q 723 190 721 215 q 732 144 725 164 q 753 111 739 124 q 790 99 767 99 q 810 101 801 99 q 815 117 813 104 q 819 149 818 131 q 822 188 821 167 q 822 231 822 210 q 821 277 822 253 q 813 321 819 301 q 791 353 806 340 q 750 367 776 367 q 731 364 739 367 m 1025 392 q 1043 406 1026 392 q 1100 443 1060 419 q 1157 474 1139 465 l 1174 482 l 1181 482 q 1215 480 1194 482 q 1258 470 1236 478 q 1301 447 1281 463 q 1335 406 1322 432 q 1352 333 1349 378 q 1356 244 1356 289 q 1352 145 1356 189 q 1346 96 1349 101 q 1335 83 1343 92 q 1315 65 1326 75 q 1290 47 1303 56 q 1269 32 1278 38 q 1228 4 1251 19 q 1189 -14 1204 -11 l 1181 -14 q 1144 -12 1165 -14 q 1103 -1 1124 -10 q 1063 24 1082 7 q 1031 68 1043 40 q 1014 135 1019 92 q 1008 218 1008 178 q 1010 284 1008 253 q 1016 339 1013 315 q 1022 377 1019 363 q 1025 392 1025 392 m 1142 364 q 1136 335 1139 351 q 1132 242 1132 306 q 1134 190 1132 215 q 1143 144 1136 164 q 1164 111 1150 124 q 1201 99 1178 99 q 1221 101 1213 99 q 1226 117 1224 104 q 1231 149 1229 131 q 1233 188 1232 167 q 1233 231 1233 210 q 1232 277 1233 253 q 1224 321 1231 301 q 1202 353 1217 340 q 1161 367 1188 367 q 1142 364 1150 367 z "},"":{"ha":375,"x_min":49,"x_max":319,"o":"m 49 417 q 118 460 85 439 q 184 503 151 482 q 250 548 217 525 q 319 597 283 571 l 319 431 q 167 347 236 392 q 319 264 236 303 l 319 97 q 250 147 283 124 q 184 191 217 169 q 118 234 151 213 q 49 278 85 256 l 49 417 z "},"":{"ha":375,"x_min":56,"x_max":326,"o":"m 326 278 q 257 234 290 256 q 191 191 224 213 q 125 147 158 169 q 56 97 92 124 l 56 264 q 208 347 139 303 q 56 431 139 392 l 56 597 q 125 548 92 571 q 191 503 158 525 q 257 460 224 482 q 326 417 290 439 l 326 278 z "},"":{"ha":629,"x_min":0,"x_max":629,"o":"m 629 1049 q 560 889 596 975 q 488 720 528 815 q 404 521 449 625 q 317 311 360 417 q 242 121 275 206 q 167 -69 203 22 l 0 -76 q 86 118 42 17 q 168 310 124 204 q 256 521 213 417 q 335 719 297 625 q 403 885 374 813 q 465 1042 438 969 l 629 1049 z "},"":{"ha":693,"x_min":8,"x_max":672,"o":"m 54 433 q 82 432 67 432 q 113 431 94 432 q 150 431 131 431 l 150 472 q 95 471 121 471 q 50 471 69 471 q 8 469 26 471 l 54 614 q 86 613 69 613 q 120 612 101 613 q 163 611 139 611 q 181 735 171 682 q 194 799 190 789 q 208 816 196 804 q 238 843 219 828 q 278 876 256 858 q 324 911 300 894 q 408 962 371 944 q 465 979 444 979 q 549 969 508 979 q 626 918 590 960 q 649 883 640 901 q 661 849 657 865 q 666 819 665 832 q 667 799 667 806 l 667 790 l 479 696 q 481 709 481 703 q 481 719 481 715 q 470 775 481 754 q 444 806 460 796 q 413 820 429 817 q 385 824 397 824 q 377 823 381 824 q 371 822 374 822 l 367 822 q 357 761 363 794 q 349 694 353 733 q 343 611 346 656 q 401 611 374 611 q 451 613 429 611 q 499 614 476 613 l 453 469 l 418 469 q 383 470 403 469 q 339 471 363 471 l 339 431 q 399 431 371 431 q 450 432 428 431 q 499 433 475 432 l 453 289 q 425 290 440 289 q 393 291 411 290 q 356 292 375 292 q 392 217 369 243 q 439 178 414 190 q 489 163 464 165 q 532 161 514 161 q 605 177 576 161 q 653 213 633 193 q 663 208 654 214 q 671 200 672 203 q 659 178 668 196 q 637 138 650 161 q 609 90 624 115 q 581 47 594 65 q 515 -5 551 7 q 424 -17 478 -17 q 307 11 360 -17 q 222 89 254 39 q 177 183 192 133 q 156 292 163 233 q 99 290 125 290 q 53 290 72 290 q 8 289 29 290 l 54 433 z "},"":{"ha":753,"x_min":14,"x_max":728,"o":"m 301 972 l 260 897 l 242 897 q 224 898 233 897 q 204 899 215 899 q 203 842 203 872 l 203 707 l 203 557 q 204 486 203 521 l 107 486 l 107 557 q 108 628 107 589 q 108 707 108 667 q 108 781 108 747 q 107 842 107 815 l 107 899 q 74 898 90 899 q 43 897 57 897 l 14 897 l 49 972 l 301 972 m 435 976 q 449 911 442 944 q 463 849 456 883 q 476 788 469 815 q 490 731 483 756 q 500 686 496 706 q 510 647 506 664 q 519 686 514 664 q 531 731 524 706 q 544 788 538 756 q 558 848 551 815 q 572 908 565 881 q 586 972 579 940 l 707 976 q 708 900 707 940 q 710 823 710 865 q 714 736 711 781 q 718 644 717 688 q 722 565 719 600 q 728 489 725 525 l 629 482 q 628 547 629 513 q 626 611 626 576 q 624 679 625 646 q 620 735 621 710 q 618 781 619 761 q 615 821 617 803 q 606 781 611 801 q 597 742 601 763 q 588 701 592 721 q 574 642 581 672 q 561 588 568 613 l 547 532 l 553 489 l 453 485 q 440 543 446 513 q 428 601 435 569 q 414 664 421 632 q 402 714 407 690 q 393 757 397 738 q 383 799 388 779 l 378 664 q 376 602 376 633 q 375 546 375 571 q 374 489 374 517 l 296 482 q 303 561 299 519 q 310 642 306 597 q 317 736 314 688 q 321 822 319 781 q 325 897 322 864 q 329 972 328 936 l 435 976 z "},"":{"ha":551,"x_min":36,"x_max":524,"o":"m 485 593 q 505 542 497 571 q 517 480 513 513 q 522 413 521 447 q 524 346 524 378 q 522 272 524 307 q 519 208 521 236 q 515 161 517 179 q 511 139 513 143 q 496 121 508 132 q 467 97 483 110 q 433 70 450 83 q 403 49 415 57 q 375 30 390 40 q 344 10 360 19 q 316 -6 329 1 q 294 -14 303 -12 q 279 -17 286 -17 q 264 -17 272 -17 q 219 -14 246 -17 q 163 1 192 -11 q 106 35 133 13 q 63 97 79 57 q 42 183 47 132 q 36 289 36 233 q 39 385 36 338 q 46 471 42 433 q 53 532 50 508 q 57 556 57 556 q 82 575 58 556 q 163 628 106 594 q 208 654 193 646 q 236 669 222 663 q 268 657 256 665 q 236 710 260 671 q 176 805 215 743 q 69 972 138 867 l 256 979 q 292 917 274 947 q 325 859 307 889 q 358 804 343 829 q 415 710 383 761 q 485 593 446 660 m 222 519 q 215 469 218 497 q 210 410 213 446 q 208 328 208 374 q 231 190 208 238 q 307 143 253 143 q 338 147 326 143 q 342 168 339 151 q 347 208 344 185 q 350 261 349 232 q 351 318 351 290 q 348 409 351 371 q 325 476 344 447 q 292 508 314 494 q 242 521 271 521 q 233 521 239 521 q 222 519 226 521 z "},"":{"ha":713,"x_min":56,"x_max":657,"o":"m 467 826 l 250 826 l 250 672 q 251 356 250 483 q 253 149 251 228 q 256 0 254 56 l 56 0 q 57 126 56 53 q 59 282 58 189 q 60 500 60 375 q 59 713 60 625 q 57 860 58 801 q 56 972 56 926 l 657 972 q 654 860 656 926 q 653 713 653 801 q 653 500 653 625 q 653 282 653 375 q 654 126 653 189 q 657 0 656 53 l 463 0 q 464 149 463 56 q 466 356 465 228 q 467 672 467 483 l 467 826 z "},"":{"ha":594,"x_min":14,"x_max":581,"o":"m 236 153 l 347 153 l 388 153 q 426 153 406 153 q 465 156 446 154 q 508 162 488 157 q 544 172 528 167 q 581 186 563 178 l 500 0 l 28 0 q 64 82 44 39 q 100 165 79 118 q 142 264 121 213 q 175 346 161 308 q 200 410 189 383 l 222 465 q 192 544 207 503 q 160 624 178 581 q 126 708 143 667 q 85 805 106 757 q 50 890 65 853 q 14 972 32 935 l 578 972 l 510 813 q 467 815 492 814 q 412 818 444 817 q 336 819 379 819 l 264 819 q 278 781 269 803 q 294 734 285 761 q 318 674 304 707 q 341 617 329 644 q 363 567 353 589 q 383 517 374 542 q 353 444 368 481 q 327 382 340 414 q 304 326 314 350 l 236 153 z "},"":{"ha":568,"x_min":35,"x_max":533,"o":"m 85 508 q 150 507 114 507 q 224 506 182 506 q 317 506 265 506 q 403 506 364 506 q 472 507 443 506 q 533 508 507 507 l 483 364 q 418 365 454 364 q 344 366 386 365 q 251 367 303 367 q 165 366 204 367 q 96 365 125 365 q 35 364 61 364 l 85 508 l 85 508 z "},"":{"ha":706,"x_min":7,"x_max":706,"o":"m 161 -76 q 139 -1 151 -42 q 115 76 128 32 q 88 167 103 119 q 58 257 72 214 q 32 335 43 300 q 7 410 18 374 l 190 424 q 203 369 196 397 q 217 317 210 346 q 232 260 224 288 q 248 204 239 232 q 264 154 257 176 q 279 104 272 128 q 326 243 301 167 q 378 397 349 308 q 440 590 407 486 q 499 778 474 694 q 542 919 524 861 q 578 1042 563 988 l 706 1049 q 643 858 675 956 q 583 676 615 775 q 522 486 551 578 q 462 297 493 394 q 404 117 431 199 q 346 -69 374 21 l 161 -76 z "},"":{"ha":735,"x_min":49,"x_max":686,"o":"m 318 354 q 292 322 307 338 q 258 290 278 306 q 227 283 243 286 q 192 281 211 281 q 85 315 121 281 q 49 429 49 350 q 60 484 49 464 q 83 519 71 504 q 126 567 103 543 q 174 611 150 592 q 204 616 185 614 q 249 618 224 618 q 297 615 272 618 q 344 602 322 611 q 385 576 367 593 q 413 529 403 558 q 438 560 424 544 q 471 592 451 576 q 499 598 482 596 q 532 600 515 600 q 644 566 601 600 q 686 457 686 532 q 676 401 686 422 q 654 364 667 379 q 610 316 635 340 q 563 272 586 292 q 527 267 550 269 q 479 265 504 265 q 385 282 429 265 q 318 354 342 299 m 153 503 q 149 476 149 490 q 181 418 149 435 q 254 401 213 401 q 274 402 265 401 q 289 404 282 403 q 303 408 296 406 q 270 486 303 463 q 196 510 238 510 q 153 503 169 510 m 582 376 q 586 403 586 386 q 554 466 586 446 q 481 486 522 486 q 458 485 468 486 q 442 481 449 483 q 428 475 433 478 q 464 393 429 414 q 549 372 499 372 q 582 376 567 372 z "},"":{"ha":433,"x_min":14,"x_max":419,"o":"m 51 -43 q 92 -65 72 -61 q 122 -69 111 -69 l 133 -69 q 138 -68 136 -69 q 139 125 138 25 q 141 317 140 211 q 142 528 142 424 q 141 720 142 632 q 139 874 140 808 q 138 1013 138 950 q 215 1122 168 1071 q 300 1201 261 1174 q 318 1207 308 1204 q 338 1212 326 1210 q 365 1214 350 1214 q 390 1210 381 1214 q 407 1204 400 1207 q 419 1194 414 1199 l 382 1015 q 342 1038 361 1033 q 311 1042 322 1042 q 305 1041 307 1042 q 300 1040 303 1040 l 296 1040 q 293 888 294 969 q 292 724 292 817 q 292 528 292 632 q 292 322 292 424 q 293 139 292 219 q 296 -40 294 44 q 219 -150 265 -99 q 133 -229 172 -201 q 115 -236 125 -233 q 95 -240 107 -239 q 68 -242 83 -242 q 26 -232 40 -242 q 14 -222 19 -228 l 51 -43 z "},"":{"ha":669,"x_min":35,"x_max":635,"o":"m 81 433 q 126 471 94 471 q 156 467 139 471 l 544 364 q 563 360 554 361 q 578 358 571 358 q 635 396 614 358 l 589 265 q 543 228 575 228 q 514 232 531 228 l 125 335 q 107 339 115 338 q 92 340 99 340 q 35 303 56 340 l 81 433 m 81 643 q 126 681 94 681 q 156 676 139 681 l 544 574 q 563 569 554 571 q 578 568 571 568 q 635 606 614 568 l 589 475 q 543 438 575 438 q 514 442 531 438 l 125 544 q 107 549 115 547 q 92 550 99 550 q 35 513 56 550 l 81 643 z "},"":{"ha":568,"x_min":35,"x_max":533,"o":"m 85 606 q 142 604 110 604 q 207 603 169 603 q 290 603 244 603 q 303 644 297 626 q 314 674 310 661 q 322 700 319 689 l 428 704 q 418 676 424 692 q 406 644 413 663 q 392 603 400 626 q 449 603 424 603 q 494 604 475 603 q 533 606 517 604 l 483 461 q 444 463 467 463 q 399 463 425 463 q 343 464 374 463 q 340 457 342 461 q 338 449 339 454 q 333 438 336 444 q 329 424 331 431 q 326 415 328 418 q 324 408 325 410 q 407 408 368 408 q 474 410 446 408 q 533 411 507 410 l 483 267 q 425 268 457 267 q 360 269 397 268 q 276 269 322 269 q 263 228 268 246 q 253 197 257 210 q 246 172 247 182 l 139 168 q 149 194 143 179 q 160 226 153 207 q 175 269 167 246 q 118 268 143 268 q 74 268 93 268 q 35 267 51 268 l 85 411 q 124 410 101 410 q 167 408 143 408 q 224 408 192 408 l 235 439 q 238 447 236 443 q 240 456 239 451 l 243 464 q 158 463 196 464 q 93 463 121 463 q 35 461 61 461 l 85 606 l 85 606 z "},"":{"ha":742,"x_min":21,"x_max":724,"o":"m 724 672 l 674 528 l 649 528 q 620 528 638 528 q 582 529 603 528 q 581 455 582 519 q 579 278 579 390 q 579 160 579 211 q 581 74 579 110 q 582 0 581 32 l 403 0 q 404 74 403 32 q 405 160 404 110 q 406 278 406 211 q 404 458 406 393 q 403 529 403 522 l 319 529 q 318 458 319 522 q 317 278 317 393 q 317 160 317 211 q 318 74 317 110 q 319 0 318 32 l 140 0 q 142 74 140 32 q 142 160 142 110 q 143 278 143 211 q 142 457 143 392 q 140 529 140 522 q 90 528 113 529 q 53 528 68 528 l 21 528 l 71 672 l 724 672 z "},"":{"ha":561,"x_min":35,"x_max":533,"o":"m 85 142 q 150 140 114 140 q 224 139 182 139 q 317 139 265 139 q 403 139 364 139 q 472 140 443 139 q 533 142 507 140 l 483 -3 q 418 -1 454 -3 q 344 -1 386 -1 q 251 0 303 0 q 165 -1 204 0 q 96 -1 125 -1 q 35 -3 61 -3 l 85 142 m 85 506 q 178 546 128 524 q 282 592 229 568 q 387 640 335 615 q 483 686 439 664 l 483 549 q 418 528 449 538 q 358 508 388 518 q 296 488 328 499 q 226 464 264 476 q 296 439 264 450 q 358 418 328 428 q 418 399 388 408 q 483 381 449 390 l 483 186 q 387 233 439 208 q 282 281 335 257 q 178 326 229 304 q 85 367 128 349 l 85 506 z "},"":{"ha":561,"x_min":28,"x_max":526,"o":"m 78 142 q 143 140 107 140 q 217 139 175 139 q 310 139 258 139 q 397 139 357 139 q 465 140 436 139 q 526 142 500 140 l 476 -3 q 411 -1 447 -3 q 338 -1 379 -1 q 244 0 296 0 q 158 -1 197 0 q 89 -1 118 -1 q 28 -3 54 -3 l 78 142 m 476 367 q 383 326 433 349 q 279 281 332 304 q 174 233 226 257 q 78 186 122 208 l 78 324 q 143 344 113 335 q 203 364 174 354 q 265 385 233 374 q 335 408 297 396 q 265 433 297 422 q 203 454 233 444 q 143 473 174 464 q 78 492 113 482 l 78 686 q 174 640 122 664 q 279 592 226 615 q 383 546 332 568 q 476 506 433 524 l 476 367 z "},"":{"ha":711,"x_min":28,"x_max":683,"o":"m 507 972 q 535 890 519 933 q 564 806 547 853 q 600 708 581 758 q 631 630 615 667 q 658 565 647 593 q 683 507 672 533 q 650 431 667 471 q 617 352 635 396 q 581 264 599 308 q 542 166 560 214 q 510 82 524 118 q 479 0 494 38 l 204 0 q 176 82 192 38 q 147 166 164 118 q 111 264 131 214 q 79 342 94 306 q 53 406 64 378 q 28 465 39 438 q 61 542 44 501 q 94 619 76 576 q 131 708 111 663 q 169 806 150 758 q 201 890 188 853 q 232 972 217 933 l 507 972 m 422 708 q 383 802 403 757 q 347 883 363 847 q 313 802 332 847 q 274 708 293 757 q 240 626 254 663 q 214 563 225 589 q 193 507 201 532 q 224 426 208 468 q 254 348 238 390 q 289 264 271 306 l 363 88 q 398 169 379 124 q 438 264 417 214 q 471 346 457 308 q 496 410 485 383 l 518 465 q 488 544 503 503 q 456 624 474 581 q 422 708 439 667 z "},"":{"ha":603,"x_min":-8,"x_max":589,"o":"m 589 863 q 571 843 581 853 q 552 822 563 833 q 531 799 542 811 q 510 776 519 788 q 492 754 500 764 q 474 733 482 743 q 314 819 406 819 q 273 816 294 819 q 231 803 251 813 l 231 671 l 319 671 q 364 672 342 671 l 269 567 l 231 567 q 231 372 231 471 q 232 189 231 272 q 233 0 232 92 l 69 0 q 71 189 69 92 q 72 372 71 272 q 72 567 72 471 q 42 566 57 567 q 17 565 28 565 l -8 565 l 72 671 l 72 775 q 145 882 103 833 q 224 958 188 931 q 258 968 239 963 q 297 976 275 972 q 346 979 318 979 q 474 954 413 979 q 589 863 535 929 m 564 672 q 563 569 563 624 q 561 465 561 524 q 561 347 561 407 q 561 219 561 281 q 563 108 561 157 q 564 0 563 51 l 385 0 q 386 108 385 51 q 387 219 386 157 q 388 347 388 281 q 387 465 388 407 q 386 569 386 524 q 385 672 385 624 l 564 672 z "},"":{"ha":617,"x_min":-8,"x_max":568,"o":"m 346 979 q 474 953 413 979 l 568 972 q 565 804 567 890 q 564 646 564 731 q 564 486 564 561 q 564 294 564 382 q 565 140 564 207 q 568 0 567 64 l 385 0 q 386 143 385 67 q 388 297 388 210 q 389 486 389 385 q 388 654 389 571 q 386 804 388 738 q 314 819 351 819 q 273 816 294 819 q 231 803 251 813 l 231 646 l 319 646 q 364 647 342 646 l 269 542 l 231 542 q 231 351 231 446 q 232 176 231 256 q 233 0 232 85 l 69 0 q 71 176 69 85 q 72 351 71 256 q 72 542 72 446 q 42 541 57 542 q 17 540 28 540 l -8 540 l 72 646 l 72 775 q 145 882 103 833 q 224 958 188 931 q 258 968 239 963 q 297 976 275 972 q 346 979 318 979 z "},"":{"ha":933,"x_min":56,"x_max":878,"o":"m 878 31 q 869 10 878 19 q 847 0 861 0 q 838 1 843 0 l 467 108 l 96 1 q 86 0 90 0 q 64 10 72 0 q 56 31 56 19 l 56 857 q 78 888 56 881 l 453 996 q 467 999 461 999 q 481 996 472 999 l 856 888 q 878 857 878 881 l 878 31 m 436 929 l 117 836 q 147 714 121 771 q 216 613 174 657 q 315 542 258 569 q 436 508 371 514 l 436 929 m 497 508 q 618 542 561 514 q 717 613 675 569 q 786 714 760 657 q 817 836 813 771 l 497 929 l 497 508 m 115 71 l 436 164 l 436 447 q 249 508 333 456 q 115 643 165 560 l 115 71 m 818 643 q 683 508 767 560 q 497 447 600 456 l 497 164 l 818 71 l 818 643 z "},"":{"ha":989,"x_min":28,"x_max":961,"o":"m 139 -17 q 76 42 107 6 q 28 114 44 78 l 158 225 q 206 153 174 190 q 269 94 238 117 l 139 -17 m 485 -17 q 422 42 453 6 q 374 114 390 78 l 504 225 q 551 153 519 190 q 615 94 583 117 l 485 -17 m 831 -17 q 767 42 799 6 q 719 114 736 78 l 850 225 q 897 153 865 190 q 961 94 929 117 l 831 -17 z "},"\"":{"ha":406,"x_min":56,"x_max":350,"o":"m 224 743 q 225 769 224 754 q 226 805 225 783 q 226 858 226 826 q 226 913 226 890 q 225 950 225 935 q 224 979 224 967 l 350 893 q 349 865 349 882 q 347 828 347 850 q 347 775 347 807 q 347 722 347 743 q 349 685 347 700 q 350 657 349 668 l 224 743 m 56 743 q 57 769 56 754 q 58 805 57 783 q 58 858 58 826 q 58 913 58 890 q 57 950 57 935 q 56 979 56 967 l 182 893 q 181 865 181 882 q 179 828 179 850 q 179 775 179 807 q 179 722 179 743 q 181 685 179 700 q 182 657 181 668 l 56 743 z "},"!":{"ha":353,"x_min":56,"x_max":297,"o":"m 258 979 q 256 881 257 935 q 254 771 254 835 q 254 632 254 707 q 254 492 254 556 q 256 383 254 429 q 258 285 257 329 l 86 271 q 88 369 86 315 q 90 478 89 415 q 90 618 90 542 q 90 757 90 693 q 88 867 89 821 q 86 965 86 921 l 258 979 m 167 -17 q 103 42 135 6 q 56 114 72 78 l 186 225 q 233 153 201 190 q 297 94 265 117 l 167 -17 z "},"":{"ha":343,"x_min":28,"x_max":315,"o":"m 44 899 q 65 918 51 907 q 94 941 78 929 q 129 963 111 953 q 163 979 147 974 q 212 976 190 979 q 253 958 233 972 q 291 910 275 942 q 313 826 307 879 q 315 784 315 804 q 315 744 315 764 q 312 673 315 706 q 304 617 308 640 q 293 565 299 589 q 274 546 286 557 q 251 524 263 535 q 227 504 239 514 q 208 490 215 494 q 185 483 196 485 q 161 482 175 482 q 93 508 119 482 q 52 570 67 533 q 33 647 38 607 q 28 714 28 686 q 33 816 28 765 q 44 899 38 867 m 138 885 q 131 828 133 860 q 128 761 128 797 q 131 694 128 728 q 141 635 133 661 q 162 592 149 608 q 196 576 175 576 q 208 578 206 576 q 215 635 211 601 q 218 731 218 669 q 215 789 218 761 q 202 838 211 817 q 179 872 193 860 q 144 885 165 885 l 138 885 z "},"":{"ha":314,"x_min":19,"x_max":297,"o":"m 19 714 q 38 751 28 731 q 56 790 46 768 q 78 836 67 813 q 100 885 89 861 q 119 929 111 910 q 138 972 129 951 l 238 976 q 236 893 236 936 l 236 722 l 278 722 q 297 724 288 722 l 271 639 l 236 639 l 236 535 q 238 490 236 510 l 136 490 l 136 535 q 137 582 136 556 q 138 639 138 608 l 19 639 l 19 714 m 68 724 q 86 722 75 722 l 138 722 l 138 743 q 138 764 138 753 q 139 789 139 775 q 138 820 139 804 q 138 849 138 836 l 138 876 l 68 724 z "},"":{"ha":274,"x_min":26,"x_max":244,"o":"m 185 890 l 150 890 q 115 891 135 890 q 75 892 96 892 l 75 813 q 86 817 81 814 q 118 822 100 822 q 214 783 183 822 q 244 681 244 743 q 239 615 244 644 q 225 563 233 586 q 206 544 218 556 q 181 522 194 533 q 154 501 167 511 q 135 486 142 492 q 115 481 129 483 q 88 478 101 478 q 55 481 72 478 q 28 494 38 485 l 38 578 q 69 560 51 568 q 110 553 86 553 q 129 555 121 553 q 147 561 138 557 q 153 597 151 576 q 154 638 154 618 q 137 709 154 685 q 79 733 119 733 q 52 731 67 733 q 26 721 38 728 l 26 764 q 27 808 26 783 q 28 857 28 832 q 27 899 28 879 q 26 936 26 919 l 26 972 l 222 972 l 185 890 z "},"":{"ha":324,"x_min":29,"x_max":294,"o":"m 221 881 q 197 892 211 888 q 167 897 182 897 q 153 897 160 897 q 142 893 146 896 q 128 831 131 861 q 124 769 125 800 q 146 788 135 781 q 172 808 157 796 q 186 815 179 813 q 203 818 193 818 q 226 816 217 818 q 246 808 235 814 q 281 768 267 799 q 294 689 294 738 q 285 604 294 640 q 265 544 276 568 q 247 528 258 538 q 224 510 236 519 q 199 493 211 501 q 181 481 188 485 q 160 478 178 478 q 125 483 146 478 q 89 503 104 489 q 63 531 74 517 q 44 567 51 546 q 33 619 36 589 q 29 693 29 649 q 38 807 29 751 q 60 899 47 863 q 106 939 76 917 q 167 974 135 961 q 180 975 175 975 q 193 975 185 975 q 223 972 208 975 q 251 957 238 968 l 221 881 m 122 728 q 124 667 122 699 q 132 614 125 636 q 185 565 146 565 q 194 567 192 565 q 197 585 196 574 q 200 607 199 594 q 201 638 201 619 q 199 672 201 654 q 189 703 196 689 q 172 727 182 718 q 147 736 161 736 q 122 728 132 736 z "},"":{"ha":268,"x_min":17,"x_max":242,"o":"m 242 972 q 226 907 233 943 q 211 836 219 876 q 194 750 203 796 q 179 659 186 706 q 165 574 172 613 q 153 486 158 528 l 68 482 q 83 557 76 518 q 98 632 90 590 q 113 715 106 674 q 124 783 119 751 q 133 838 129 814 q 142 889 139 865 q 130 890 138 890 q 115 890 122 890 q 59 886 81 890 q 17 874 38 882 l 47 972 l 242 972 z "},"":{"ha":322,"x_min":31,"x_max":292,"o":"m 46 901 q 83 933 61 915 q 122 961 106 950 q 144 970 129 965 q 185 975 160 975 q 257 954 229 975 q 285 889 285 933 q 282 853 285 871 q 275 824 279 836 q 250 801 264 811 q 225 783 236 790 q 272 736 251 769 q 292 656 292 703 q 289 613 292 632 q 283 581 286 594 q 275 553 279 565 l 192 479 q 181 478 186 478 l 144 478 q 88 493 117 478 q 43 543 58 508 q 33 576 36 560 q 31 611 31 592 q 33 648 31 632 q 38 679 35 664 q 61 705 49 694 q 86 725 74 715 q 57 747 71 732 q 39 782 43 763 q 35 821 35 800 q 39 868 35 846 q 46 901 43 890 m 124 908 q 120 892 121 901 q 119 871 119 882 q 136 821 119 838 q 185 797 153 804 q 188 811 186 804 q 190 827 189 818 q 190 847 190 836 q 178 893 190 875 q 140 911 167 911 q 124 908 135 911 m 135 711 q 132 686 133 700 q 131 661 131 675 q 131 633 131 647 q 140 579 131 604 q 176 554 149 554 q 190 557 182 554 q 193 579 192 565 q 195 606 194 590 q 196 644 196 622 q 190 675 196 663 q 174 695 183 688 q 153 706 164 703 q 135 711 143 710 z "},"":{"ha":322,"x_min":29,"x_max":293,"o":"m 63 911 q 81 926 69 917 q 103 944 92 935 q 126 962 115 954 q 146 974 138 969 q 153 975 149 975 q 163 975 158 975 q 261 922 229 975 q 293 743 293 868 q 288 671 293 703 q 276 615 283 639 q 261 565 269 588 q 243 545 256 557 q 217 522 231 533 q 189 499 203 510 q 167 485 175 489 q 126 478 150 478 q 92 482 107 478 q 68 492 76 486 l 67 576 q 101 560 82 565 q 147 554 121 554 q 185 563 169 554 q 190 600 188 579 q 194 639 193 621 q 196 681 196 660 q 176 665 186 672 q 159 651 168 658 q 142 639 150 644 q 128 635 135 636 q 114 635 122 635 q 53 667 78 635 q 29 763 29 700 q 34 828 29 800 q 46 875 39 856 q 63 911 53 897 m 126 889 q 122 857 124 876 q 119 817 119 838 q 121 783 119 801 q 128 751 122 765 q 144 726 133 736 q 175 717 156 717 q 197 724 188 717 q 199 740 199 731 q 199 757 199 749 q 185 851 199 813 q 136 890 171 890 q 126 889 128 890 z "},"":{"ha":846,"x_min":99,"x_max":763,"o":"m 678 1049 q 608 889 644 975 q 537 720 576 815 q 453 521 497 625 q 366 311 408 417 q 290 121 324 206 q 215 -69 251 22 l 104 -76 q 190 118 146 17 q 272 310 228 204 q 360 521 317 417 q 440 719 401 625 q 507 885 478 813 q 569 1042 542 969 l 678 1049 m 201 979 q 200 906 200 944 q 199 830 199 872 q 199 744 199 788 q 199 649 199 696 q 200 567 199 603 q 201 486 200 524 l 99 486 q 100 567 99 524 q 101 649 100 603 q 101 744 101 696 q 101 827 101 786 q 100 900 100 868 q 99 972 99 938 l 201 979 m 560 410 q 578 435 569 424 q 592 453 585 444 q 604 468 600 463 q 633 489 617 483 q 669 494 650 494 q 697 491 682 494 q 724 478 711 488 q 744 452 736 469 q 751 406 751 435 q 744 369 751 385 q 727 340 738 353 q 705 319 717 328 q 683 306 693 311 q 724 288 703 301 q 754 247 746 274 q 761 218 760 232 q 763 183 763 204 q 758 124 763 153 q 749 78 754 94 q 703 40 732 61 q 654 6 674 19 q 608 -6 633 -6 q 578 -1 593 -6 q 556 11 563 3 l 564 90 q 629 69 593 69 q 649 72 639 69 q 665 78 658 74 q 669 106 668 89 q 671 139 671 122 q 658 201 671 176 q 603 226 644 226 q 561 217 582 226 q 555 221 558 217 q 551 228 551 225 q 574 256 563 242 q 593 279 583 267 q 610 299 603 292 q 633 307 619 304 l 647 310 q 653 333 651 321 q 656 364 656 344 q 642 403 656 392 q 610 415 629 415 q 585 410 593 415 q 571 399 576 404 q 563 403 567 399 q 560 410 560 407 z "},"":{"ha":865,"x_min":42,"x_max":782,"o":"m 697 1049 q 628 889 664 975 q 556 720 596 815 q 472 521 517 625 q 385 311 428 417 q 310 121 343 206 q 235 -69 271 22 l 124 -76 q 210 118 165 17 q 292 310 247 204 q 379 521 336 417 q 459 719 421 625 q 526 885 497 813 q 589 1042 561 969 l 697 1049 m 579 410 q 597 435 589 424 q 612 453 604 444 q 624 468 619 463 q 653 489 636 483 q 689 494 669 494 q 716 491 701 494 q 743 478 731 488 q 763 452 756 469 q 771 406 771 435 q 764 369 771 385 q 747 340 757 353 q 724 319 736 328 q 703 306 713 311 q 744 288 722 301 q 774 247 765 274 q 781 218 779 232 q 782 183 782 204 q 778 124 782 153 q 768 78 774 94 q 722 40 751 61 q 674 6 693 19 q 628 -6 653 -6 q 597 -1 613 -6 q 575 11 582 3 l 583 90 q 649 69 613 69 q 668 72 658 69 q 685 78 678 74 q 689 106 688 89 q 690 139 690 122 q 677 201 690 176 q 622 226 664 226 q 581 217 601 226 q 574 221 578 217 q 571 228 571 225 q 593 256 582 242 q 613 279 603 267 q 629 299 622 292 q 653 307 639 304 l 667 310 q 673 333 671 321 q 675 364 675 344 q 662 403 675 392 q 629 415 649 415 q 604 410 613 415 q 590 399 596 404 q 583 403 586 399 q 579 410 579 407 m 42 886 q 58 911 50 899 q 72 932 65 922 q 85 949 79 942 q 112 970 96 961 q 156 979 128 979 q 207 967 182 979 q 243 919 232 956 q 256 854 254 888 q 258 789 258 821 q 253 717 258 749 q 240 657 247 685 q 197 608 221 632 q 150 564 174 585 l 171 564 q 190 564 179 564 q 210 565 200 564 q 231 568 221 565 q 250 574 242 571 q 268 581 260 578 l 253 486 l 49 486 l 54 561 q 117 597 85 568 q 156 676 149 626 q 159 714 158 699 q 160 746 160 729 q 156 822 160 786 q 134 881 151 867 q 96 896 117 896 q 70 891 81 896 q 51 878 60 886 q 42 886 42 878 z "},"":{"ha":886,"x_min":99,"x_max":794,"o":"m 678 1049 q 608 889 644 975 q 537 720 576 815 q 453 521 497 625 q 366 311 408 417 q 290 121 324 206 q 215 -69 251 22 l 104 -76 q 190 118 146 17 q 272 310 228 204 q 360 521 317 417 q 440 719 401 625 q 507 885 478 813 q 569 1042 542 969 l 678 1049 m 201 979 q 200 906 200 944 q 199 830 199 872 q 199 744 199 788 q 199 649 199 696 q 200 567 199 603 q 201 486 200 524 l 99 486 q 100 567 99 524 q 101 649 100 603 q 101 744 101 696 q 101 827 101 786 q 100 900 100 868 q 99 972 99 938 l 201 979 m 549 417 q 586 448 564 431 q 625 476 608 465 q 647 485 632 481 q 688 490 663 490 q 760 469 732 490 q 788 404 788 449 q 785 369 788 386 q 778 339 782 351 q 753 316 767 326 q 728 299 739 306 q 774 251 754 285 q 794 171 794 218 q 792 128 794 147 q 786 96 789 110 q 778 68 782 81 l 694 -6 q 683 -7 689 -7 l 647 -7 q 590 8 619 -7 q 546 58 561 24 q 536 91 539 75 q 533 126 533 107 q 535 163 533 147 q 540 194 538 179 q 564 220 551 210 q 589 240 576 231 q 560 263 574 247 q 542 297 546 278 q 538 336 538 315 q 542 383 538 361 q 549 417 546 406 m 626 424 q 623 407 624 417 q 622 386 622 397 q 639 336 622 353 q 688 313 656 319 q 690 326 689 319 q 692 342 692 333 q 693 363 693 351 q 681 408 693 390 q 643 426 669 426 q 626 424 638 426 m 638 226 q 635 201 636 215 q 633 176 633 190 q 633 149 633 163 q 642 94 633 119 q 679 69 651 69 q 693 72 685 69 q 696 94 694 81 q 698 122 697 106 q 699 160 699 138 q 692 190 699 178 q 676 210 686 203 q 656 222 667 218 q 638 226 646 225 z "},"":{"ha":956,"x_min":101,"x_max":864,"o":"m 747 1049 q 678 889 714 975 q 606 720 646 815 q 522 521 567 625 q 435 311 478 417 q 360 121 393 206 q 285 -69 321 22 l 174 -76 q 260 118 215 17 q 342 310 297 204 q 429 521 386 417 q 509 719 471 625 q 576 885 547 813 q 639 1042 611 969 l 747 1049 m 618 417 q 656 448 633 431 q 694 476 678 465 q 717 485 701 481 q 757 490 732 490 q 829 469 801 490 q 857 404 857 449 q 854 369 857 386 q 847 339 851 351 q 822 316 836 326 q 797 299 808 306 q 844 251 824 285 q 864 171 864 218 q 861 128 864 147 q 856 96 858 110 q 847 68 851 81 l 764 -6 q 753 -7 758 -7 l 717 -7 q 660 8 689 -7 q 615 58 631 24 q 606 91 608 75 q 603 126 603 107 q 605 163 603 147 q 610 194 607 179 q 633 220 621 210 q 658 240 646 231 q 629 263 643 247 q 611 297 615 278 q 607 336 607 315 q 611 383 607 361 q 618 417 615 406 m 696 424 q 692 407 693 417 q 692 386 692 397 q 708 336 692 353 q 757 313 725 319 q 760 326 758 319 q 762 342 761 333 q 763 363 763 351 q 751 408 763 390 q 713 426 739 426 q 696 424 707 426 m 707 226 q 704 201 706 215 q 703 176 703 190 q 703 149 703 163 q 712 94 703 119 q 749 69 721 69 q 763 72 754 69 q 765 94 764 81 q 767 122 767 106 q 768 160 768 138 q 762 190 768 178 q 746 210 756 203 q 726 222 736 218 q 707 226 715 225 m 110 894 q 128 919 119 908 q 142 938 135 929 q 154 953 150 947 q 183 974 167 968 q 219 979 200 979 q 247 976 232 979 q 274 963 261 972 q 294 937 286 954 q 301 890 301 919 q 294 853 301 869 q 277 825 288 838 q 255 804 267 813 q 233 790 243 796 q 274 772 253 786 q 304 732 296 758 q 311 703 310 717 q 313 668 313 689 q 308 608 313 638 q 299 563 304 579 q 253 525 282 546 q 204 490 224 504 q 158 479 183 479 q 128 483 143 479 q 106 496 113 488 l 114 575 q 179 554 143 554 q 199 556 189 554 q 215 563 208 558 q 219 590 218 574 q 221 624 221 607 q 208 686 221 661 q 153 711 194 711 q 111 701 132 711 q 105 706 108 701 q 101 713 101 710 q 124 740 113 726 q 143 764 133 751 q 160 783 153 776 q 183 792 169 789 l 197 794 q 203 817 201 806 q 206 849 206 829 q 192 888 206 876 q 160 900 179 900 q 135 894 143 900 q 121 883 126 889 q 113 888 117 883 q 110 894 110 892 z "},"":{"ha":957,"x_min":97,"x_max":865,"o":"m 749 1049 q 679 889 715 975 q 608 720 647 815 q 524 521 568 625 q 437 311 479 417 q 361 121 394 206 q 286 -69 322 22 l 175 -76 q 261 118 217 17 q 343 310 299 204 q 431 521 388 417 q 510 719 472 625 q 578 885 549 813 q 640 1042 613 969 l 749 1049 m 619 417 q 657 448 635 431 q 696 476 679 465 q 718 485 703 481 q 758 490 733 490 q 831 469 803 490 q 858 404 858 449 q 856 369 858 386 q 849 339 853 351 q 824 316 838 326 q 799 299 810 306 q 845 251 825 285 q 865 171 865 218 q 863 128 865 147 q 857 96 860 110 q 849 68 853 81 l 765 -6 q 754 -7 760 -7 l 718 -7 q 661 8 690 -7 q 617 58 632 24 q 607 91 610 75 q 604 126 604 107 q 606 163 604 147 q 611 194 608 179 q 635 220 622 210 q 660 240 647 231 q 631 263 644 247 q 613 297 617 278 q 608 336 608 315 q 613 383 608 361 q 619 417 617 406 m 697 424 q 694 407 694 417 q 693 386 693 397 q 710 336 693 353 q 758 313 726 319 q 761 326 760 319 q 763 342 763 333 q 764 363 764 351 q 752 408 764 390 q 714 426 740 426 q 697 424 708 426 m 708 226 q 706 201 707 215 q 704 176 704 190 q 704 149 704 163 q 713 94 704 119 q 750 69 722 69 q 764 72 756 69 q 767 94 765 81 q 769 122 768 106 q 769 160 769 138 q 763 190 769 178 q 747 210 757 203 q 727 222 738 218 q 708 226 717 225 m 256 890 l 221 890 q 186 891 206 890 q 146 892 167 892 l 146 813 q 157 817 151 814 q 189 822 171 822 q 285 783 254 822 q 315 681 315 743 q 310 615 315 644 q 296 563 304 586 q 277 544 289 556 q 251 522 265 533 q 225 501 238 511 q 206 486 213 492 q 186 481 200 483 q 158 478 172 478 q 126 481 143 478 q 99 494 108 485 l 108 578 q 140 560 122 568 q 181 553 157 553 q 200 555 192 553 q 218 561 208 557 q 224 597 222 576 q 225 638 225 618 q 208 709 225 685 q 150 733 190 733 q 123 731 138 733 q 97 721 108 728 l 97 764 q 98 808 97 783 q 99 857 99 832 q 98 899 99 879 q 97 936 97 919 l 97 972 l 293 972 l 256 890 z "},"":{"ha":897,"x_min":56,"x_max":806,"o":"m 689 1049 q 619 889 656 975 q 548 720 588 815 q 464 521 508 625 q 377 311 419 417 q 301 121 335 206 q 226 -69 263 22 l 115 -76 q 201 118 157 17 q 283 310 239 204 q 371 521 328 417 q 451 719 413 625 q 518 885 489 813 q 581 1042 553 969 l 689 1049 m 560 417 q 597 448 575 431 q 636 476 619 465 q 658 485 643 481 q 699 490 674 490 q 771 469 743 490 q 799 404 799 449 q 796 369 799 386 q 789 339 793 351 q 764 316 778 326 q 739 299 750 306 q 785 251 765 285 q 806 171 806 218 q 803 128 806 147 q 797 96 800 110 q 789 68 793 81 l 706 -6 q 694 -7 700 -7 l 658 -7 q 601 8 631 -7 q 557 58 572 24 q 547 91 550 75 q 544 126 544 107 q 547 163 544 147 q 551 194 549 179 q 575 220 563 210 q 600 240 588 231 q 571 263 585 247 q 553 297 557 278 q 549 336 549 315 q 553 383 549 361 q 560 417 557 406 m 638 424 q 634 407 635 417 q 633 386 633 397 q 650 336 633 353 q 699 313 667 319 q 701 326 700 319 q 703 342 703 333 q 704 363 704 351 q 692 408 704 390 q 654 426 681 426 q 638 424 649 426 m 649 226 q 646 201 647 215 q 644 176 644 190 q 644 149 644 163 q 653 94 644 119 q 690 69 663 69 q 704 72 696 69 q 707 94 706 81 q 709 122 708 106 q 710 160 710 138 q 703 190 710 178 q 688 210 697 203 q 667 222 678 218 q 649 226 657 225 m 281 972 q 265 907 272 943 q 250 836 258 876 q 233 750 242 796 q 218 659 225 706 q 204 574 211 613 q 192 486 197 528 l 107 482 q 122 557 115 518 q 137 632 129 590 q 151 715 144 674 q 163 783 158 751 q 172 838 168 814 q 181 889 178 865 q 169 890 176 890 q 154 890 161 890 q 98 886 119 890 q 56 874 76 882 l 86 972 l 281 972 z "},"":{"ha":343,"x_min":28,"x_max":315,"o":"m 44 106 q 65 125 51 114 q 94 148 78 136 q 129 170 111 160 q 163 186 147 181 q 212 183 190 186 q 253 165 233 179 q 291 117 275 149 q 313 33 307 86 q 315 -9 315 11 q 315 -49 315 -29 q 312 -120 315 -87 q 304 -176 308 -153 q 293 -228 299 -204 q 274 -247 286 -236 q 251 -269 263 -258 q 227 -289 239 -279 q 208 -303 215 -299 q 185 -310 196 -308 q 161 -311 175 -311 q 93 -285 119 -311 q 52 -223 67 -260 q 33 -147 38 -186 q 28 -79 28 -107 q 33 23 28 -28 q 44 106 38 74 m 138 92 q 131 35 133 67 q 128 -32 128 4 q 131 -99 128 -65 q 141 -158 133 -132 q 162 -201 149 -185 q 196 -217 175 -217 q 208 -215 206 -217 q 215 -158 211 -192 q 218 -62 218 -124 q 215 -4 218 -32 q 202 45 211 24 q 179 79 193 67 q 144 92 165 92 l 138 92 z "},"":{"ha":242,"x_min":69,"x_max":172,"o":"m 172 189 q 171 115 171 154 q 169 40 169 82 q 169 -46 169 -3 q 169 -141 169 -94 q 171 -224 169 -187 q 172 -304 171 -267 l 69 -304 q 71 -224 69 -267 q 72 -141 71 -187 q 72 -46 72 -94 q 72 37 72 -4 q 71 110 71 78 q 69 182 69 147 l 172 189 l 172 189 z "},"":{"ha":306,"x_min":42,"x_max":268,"o":"m 42 96 q 58 121 50 108 q 72 142 65 132 q 85 158 79 151 q 112 180 96 171 q 156 189 128 189 q 207 177 182 189 q 243 129 232 165 q 256 64 254 97 q 258 -1 258 31 q 253 -74 258 -42 q 240 -133 247 -106 q 197 -182 221 -158 q 150 -226 174 -206 l 171 -226 q 190 -226 179 -226 q 210 -225 200 -226 q 231 -222 221 -225 q 250 -217 242 -219 q 268 -210 260 -212 l 253 -304 l 49 -304 l 54 -229 q 117 -193 85 -222 q 156 -114 149 -164 q 159 -76 158 -92 q 160 -44 160 -61 q 156 32 160 -4 q 134 91 151 76 q 96 106 117 106 q 70 101 81 106 q 51 88 60 96 q 42 96 42 88 z "},"":{"ha":283,"x_min":43,"x_max":254,"o":"m 51 104 q 69 129 61 118 q 84 148 76 139 q 96 163 92 157 q 125 183 108 178 q 161 189 142 189 q 188 185 174 189 q 215 173 203 182 q 235 147 228 164 q 243 100 243 129 q 236 63 243 79 q 219 35 229 47 q 197 14 208 22 q 175 0 185 6 q 216 -18 194 -4 q 246 -58 238 -32 q 253 -87 251 -74 q 254 -122 254 -101 q 250 -182 254 -153 q 240 -228 246 -211 q 194 -265 224 -244 q 146 -300 165 -286 q 100 -311 125 -311 q 69 -307 85 -311 q 47 -294 54 -303 l 56 -215 q 121 -236 85 -236 q 140 -234 131 -236 q 157 -228 150 -232 q 161 -200 160 -217 q 163 -167 163 -183 q 149 -104 163 -129 q 94 -79 136 -79 q 53 -89 74 -79 q 47 -85 50 -89 q 43 -78 43 -81 q 65 -50 54 -64 q 85 -26 75 -39 q 101 -7 94 -14 q 125 1 111 -1 l 139 4 q 145 27 143 15 q 147 58 147 39 q 134 98 147 86 q 101 110 121 110 q 76 104 85 110 q 63 93 68 99 q 55 97 58 93 q 51 104 51 101 z "},"":{"ha":314,"x_min":19,"x_max":297,"o":"m 19 -81 q 38 -43 28 -64 q 56 -4 46 -26 q 78 42 67 18 q 100 91 89 67 q 119 135 111 115 q 138 178 129 157 l 238 182 q 236 99 236 142 l 236 -72 l 278 -72 q 297 -71 288 -72 l 271 -156 l 236 -156 l 236 -260 q 238 -304 236 -285 l 136 -304 l 136 -260 q 137 -212 136 -239 q 138 -156 138 -186 l 19 -156 l 19 -81 m 68 -71 q 86 -72 75 -72 l 138 -72 l 138 -51 q 138 -31 138 -42 q 139 -6 139 -19 q 138 26 139 10 q 138 54 138 42 l 138 82 l 68 -71 z "},"":{"ha":274,"x_min":26,"x_max":244,"o":"m 185 101 l 150 101 q 115 102 135 101 q 75 103 96 103 l 75 24 q 86 28 81 25 q 118 33 100 33 q 214 -6 183 33 q 244 -108 244 -46 q 239 -174 244 -144 q 225 -226 233 -203 q 206 -244 218 -233 q 181 -267 194 -256 q 154 -287 167 -278 q 135 -303 142 -297 q 115 -308 129 -306 q 88 -311 101 -311 q 55 -308 72 -311 q 28 -294 38 -304 l 38 -211 q 69 -228 51 -221 q 110 -236 86 -236 q 129 -234 121 -236 q 147 -228 138 -232 q 153 -192 151 -212 q 154 -151 154 -171 q 137 -80 154 -104 q 79 -56 119 -56 q 52 -58 67 -56 q 26 -68 38 -61 l 26 -25 q 27 19 26 -6 q 28 68 28 43 q 27 110 28 90 q 26 147 26 131 l 26 183 l 222 183 l 185 101 z "}}}
